<svg xmlns="http://www.w3.org/2000/svg" xmlns:xlink="http://www.w3.org/1999/xlink" width="50" height="50" preserveAspectRatio="xMidYMid meet" version="1.0" viewBox="0 0 37.5 37.5" zoomAndPan="magnify"><defs><clipPath id="feda1fc6c9"><path d="M 0 0 L 37.007812 0 L 37.007812 37.007812 L 0 37.007812 Z M 0 0" clip-rule="nonzero"/></clipPath></defs><path fill="#969faa" fill-opacity="1" fill-rule="nonzero" d="M 6.652344 0.605469 L 24.796875 0.605469 C 26.136719 0.605469 27.21875 1.6875 27.21875 3.023438 L 27.21875 9.1875 C 26.589844 9.34375 26.015625 9.671875 25.546875 10.136719 L 24.796875 10.886719 L 24.796875 6.046875 C 24.796875 5.714844 24.527344 5.445312 24.195312 5.445312 L 7.257812 5.445312 C 6.925781 5.445312 6.652344 5.714844 6.652344 6.046875 L 6.652344 24.195312 C 6.652344 24.527344 6.925781 24.796875 7.257812 24.796875 L 7.542969 24.796875 C 7.238281 25.839844 6.839844 26.84375 6.359375 27.8125 C 6.167969 28.183594 5.78125 28.425781 5.355469 28.425781 C 4.738281 28.425781 4.234375 27.925781 4.234375 27.308594 L 4.234375 3.023438 C 4.234375 1.6875 5.316406 0.605469 6.652344 0.605469"/><path fill="#969faa" fill-opacity="1" fill-rule="nonzero" d="M 11.492188 29.4375 C 11.492188 29.164062 11.480469 28.898438 11.460938 28.632812 L 11.164062 24.796875 L 24.195312 24.796875 C 24.527344 24.796875 24.796875 24.527344 24.796875 24.195312 L 24.796875 20.566406 L 27.21875 18.144531 L 27.21875 29.636719 C 27.21875 30.972656 26.136719 32.054688 24.796875 32.054688 L 11.152344 32.054688 C 11.375 31.203125 11.492188 30.320312 11.492188 29.4375"/><path fill="#69d6f4" fill-opacity="1" fill-rule="nonzero" d="M 24.195312 5.445312 L 7.257812 5.445312 C 6.925781 5.445312 6.652344 5.714844 6.652344 6.046875 L 6.652344 24.195312 C 6.652344 24.527344 6.925781 24.796875 7.257812 24.796875 L 24.195312 24.796875 C 24.527344 24.796875 24.796875 24.527344 24.796875 24.195312 L 24.796875 6.046875 C 24.796875 5.714844 24.527344 5.445312 24.195312 5.445312"/><path fill="#e6e9ed" fill-opacity="1" fill-rule="nonzero" d="M 18.75 27.824219 C 18.75 28.324219 18.542969 28.78125 18.21875 29.105469 C 17.890625 29.429688 17.4375 29.636719 16.933594 29.636719 L 14.515625 29.636719 C 13.511719 29.636719 12.703125 28.828125 12.703125 27.824219 C 12.703125 27.488281 12.972656 27.21875 13.304688 27.21875 L 18.144531 27.21875 C 18.476562 27.21875 18.75 27.488281 18.75 27.824219"/><path fill="#ef7385" fill-opacity="1" fill-rule="nonzero" d="M 22.378906 7.863281 L 22.378906 10.28125 L 9.074219 10.28125 L 9.074219 7.863281 L 22.378906 7.863281"/><path fill="#ef7385" fill-opacity="1" fill-rule="nonzero" d="M 10.28125 34.476562 L 10.28125 36.894531 L 3.023438 36.894531 L 3.023438 34.476562 L 10.28125 34.476562"/><path fill="#cf9e76" fill-opacity="1" fill-rule="nonzero" d="M 24.195312 21.167969 L 21.351562 22.304688 C 21.230469 22.355469 21.101562 22.378906 20.976562 22.378906 C 20.414062 22.378906 19.960938 21.925781 19.960938 21.363281 C 19.960938 21.234375 19.984375 21.109375 20.03125 20.988281 L 21.167969 18.144531 L 24.195312 21.167969"/><path fill="#b4dd7f" fill-opacity="1" fill-rule="nonzero" d="M 36.894531 7.585938 C 36.894531 8.144531 36.671875 8.691406 36.265625 9.097656 L 30.242188 15.121094 L 28.375 13.628906 C 27.835938 13.199219 27.207031 12.90625 26.535156 12.78125 L 33.242188 6.070312 C 33.648438 5.667969 34.191406 5.445312 34.753906 5.445312 C 35.347656 5.445312 35.878906 5.6875 36.265625 6.070312 C 36.652344 6.460938 36.894531 6.992188 36.894531 7.585938"/><path fill="#b4dd7f" fill-opacity="1" fill-rule="nonzero" d="M 24.363281 14.949219 C 24.871094 15.523438 24.90625 15.542969 24.941406 15.566406 L 27.972656 17.390625 L 24.195312 21.167969 L 21.167969 18.144531 L 23.046875 16.273438 L 24.363281 14.949219"/><path fill="#f0d0b4" fill-opacity="1" fill-rule="nonzero" d="M 24.648438 13.15625 C 24.363281 13.433594 24.195312 13.8125 24.195312 14.246094 C 24.195312 14.496094 24.253906 14.742188 24.363281 14.949219 L 23.046875 16.273438 C 22.679688 16.171875 22.359375 15.953125 22.136719 15.671875 C 21.90625 15.378906 21.773438 15.011719 21.773438 14.617188 C 21.773438 14.164062 21.957031 13.730469 22.277344 13.40625 L 25.546875 10.136719 C 26.015625 9.671875 26.589844 9.34375 27.21875 9.1875 C 27.507812 9.109375 27.8125 9.074219 28.117188 9.074219 L 30.242188 9.074219 L 26.535156 12.78125 C 26.273438 12.726562 26.007812 12.703125 25.738281 12.703125 C 25.304688 12.703125 24.925781 12.871094 24.648438 13.15625"/><path fill="#f0d0b4" fill-opacity="1" fill-rule="nonzero" d="M 24.941406 15.566406 C 24.90625 15.542969 24.871094 15.523438 24.363281 14.949219 C 24.253906 14.742188 24.195312 14.496094 24.195312 14.246094 C 24.195312 13.8125 24.363281 13.433594 24.648438 13.15625 C 24.925781 12.871094 25.304688 12.703125 25.738281 12.703125 C 26.007812 12.703125 26.273438 12.726562 26.535156 12.78125 C 27.207031 12.90625 27.835938 13.199219 28.375 13.628906 L 30.242188 15.121094 L 34.214844 11.148438 L 36.289062 12.703125 L 36.894531 12.703125 L 36.894531 17.539062 L 36.289062 17.539062 L 33.507812 18.464844 C 32.945312 18.652344 32.359375 18.75 31.765625 18.75 C 30.769531 18.75 29.789062 18.476562 28.933594 17.964844 L 27.972656 17.390625 L 24.941406 15.566406"/><path fill="#f0d0b4" fill-opacity="1" fill-rule="nonzero" d="M 11.460938 28.632812 C 11.480469 28.898438 11.492188 29.164062 11.492188 29.4375 C 11.492188 30.320312 11.375 31.203125 11.152344 32.054688 C 11.046875 32.488281 10.90625 32.910156 10.742188 33.328125 L 10.28125 34.476562 L 3.023438 34.476562 L 2.238281 32.503906 C 1.953125 31.804688 1.753906 31.074219 1.628906 30.335938 L 0.691406 24.691406 C 0.636719 24.355469 0.605469 24.023438 0.605469 23.691406 C 0.605469 22.078125 1.246094 20.527344 2.386719 19.386719 L 4.234375 17.539062 L 4.234375 27.308594 C 4.234375 27.925781 4.738281 28.425781 5.355469 28.425781 C 5.78125 28.425781 6.167969 28.183594 6.359375 27.8125 C 6.839844 26.84375 7.238281 25.839844 7.542969 24.796875 L 7.746094 24.054688 L 8.199219 22.246094 C 8.359375 21.609375 8.921875 21.167969 9.574219 21.167969 C 9.945312 21.167969 10.28125 21.3125 10.535156 21.546875 C 10.789062 21.78125 10.960938 22.105469 10.988281 22.476562 L 11.164062 24.796875 L 11.460938 28.632812"/><path fill="#000" fill-opacity="1" fill-rule="nonzero" d="M 16.933594 29.03125 L 14.515625 29.03125 C 13.851562 29.03125 13.304688 28.488281 13.304688 27.824219 L 18.144531 27.824219 C 18.144531 28.488281 17.601562 29.03125 16.933594 29.03125 Z M 18.144531 26.613281 L 13.304688 26.613281 C 12.640625 26.613281 12.097656 27.15625 12.097656 27.824219 C 12.097656 29.15625 13.179688 30.242188 14.515625 30.242188 L 16.933594 30.242188 C 18.269531 30.242188 19.355469 29.15625 19.355469 27.824219 C 19.355469 27.15625 18.8125 26.613281 18.144531 26.613281"/><path fill="#000" fill-opacity="1" fill-rule="nonzero" d="M 24.796875 3.628906 C 25.132812 3.628906 25.402344 3.355469 25.402344 3.023438 C 25.402344 2.691406 25.132812 2.417969 24.796875 2.417969 C 24.464844 2.417969 24.195312 2.691406 24.195312 3.023438 C 24.195312 3.355469 24.464844 3.628906 24.796875 3.628906"/><path fill="#000" fill-opacity="1" fill-rule="nonzero" d="M 22.378906 3.628906 C 22.710938 3.628906 22.984375 3.355469 22.984375 3.023438 C 22.984375 2.691406 22.710938 2.417969 22.378906 2.417969 C 22.046875 2.417969 21.773438 2.691406 21.773438 3.023438 C 21.773438 3.355469 22.046875 3.628906 22.378906 3.628906"/><path fill="#000" fill-opacity="1" fill-rule="nonzero" d="M 18.144531 2.417969 L 13.304688 2.417969 L 13.304688 3.628906 L 18.144531 3.628906 L 18.144531 2.417969"/><g clip-path="url(#feda1fc6c9)"><path fill="#000" fill-opacity="1" fill-rule="nonzero" d="M 36.289062 16.933594 L 36.195312 16.933594 L 33.316406 17.894531 C 31.972656 18.34375 30.457031 18.175781 29.246094 17.445312 L 25.253906 15.050781 C 24.972656 14.882812 24.796875 14.574219 24.796875 14.246094 C 24.796875 13.730469 25.222656 13.304688 25.738281 13.304688 C 26.554688 13.304688 27.355469 13.585938 27.996094 14.097656 L 30.027344 15.726562 L 33.265625 15.726562 L 33.265625 14.515625 L 31.703125 14.515625 L 34.273438 11.945312 L 36.089844 13.304688 L 36.289062 13.304688 Z M 24.195312 20.3125 L 22.023438 18.144531 L 24.316406 15.851562 C 24.414062 15.9375 24.515625 16.019531 24.632812 16.089844 L 26.996094 17.507812 Z M 26.613281 29.636719 C 26.613281 30.640625 25.800781 31.453125 24.796875 31.453125 L 11.910156 31.453125 C 12.03125 30.789062 12.097656 30.113281 12.097656 29.433594 C 12.097656 29.148438 12.085938 28.867188 12.0625 28.585938 L 11.820312 25.402344 L 24.195312 25.402344 C 24.859375 25.402344 25.402344 24.859375 25.402344 24.195312 L 25.402344 20.816406 L 26.613281 19.605469 Z M 21.390625 19.222656 L 23.117188 20.949219 L 21.125 21.746094 C 20.863281 21.851562 20.566406 21.640625 20.566406 21.367188 C 20.566406 21.3125 20.574219 21.261719 20.59375 21.210938 Z M 9.574219 20.566406 C 8.644531 20.566406 7.835938 21.195312 7.613281 22.09375 L 7.257812 23.515625 L 7.257812 6.046875 L 24.195312 6.046875 L 24.195312 10.636719 L 21.847656 12.984375 C 21.410156 13.417969 21.167969 14 21.167969 14.621094 C 21.167969 15.335938 21.503906 15.992188 22.042969 16.421875 L 20.652344 17.804688 L 19.46875 20.761719 C 19.394531 20.953125 19.355469 21.15625 19.355469 21.367188 C 19.355469 22.257812 20.082031 22.984375 20.972656 22.984375 C 21.179688 22.984375 21.382812 22.945312 21.574219 22.867188 L 24.195312 21.820312 L 24.195312 24.195312 L 11.726562 24.195312 L 11.589844 22.433594 C 11.511719 21.382812 10.625 20.566406 9.574219 20.566406 Z M 10.179688 33.101562 L 9.875 33.871094 L 3.433594 33.871094 L 2.796875 32.277344 C 2.53125 31.621094 2.339844 30.933594 2.226562 30.234375 L 1.285156 24.589844 C 1.234375 24.292969 1.210938 23.992188 1.210938 23.691406 C 1.210938 22.226562 1.777344 20.851562 2.8125 19.816406 L 3.628906 19 L 3.628906 27.304688 C 3.628906 28.257812 4.402344 29.03125 5.355469 29.03125 C 6.011719 29.03125 6.605469 28.667969 6.898438 28.078125 C 7.515625 26.84375 7.996094 25.539062 8.332031 24.203125 L 8.785156 22.390625 C 8.875 22.027344 9.199219 21.773438 9.574219 21.773438 C 9.996094 21.773438 10.351562 22.101562 10.382812 22.527344 L 10.859375 28.679688 C 10.878906 28.929688 10.886719 29.179688 10.886719 29.433594 C 10.886719 30.695312 10.648438 31.929688 10.179688 33.101562 Z M 9.675781 36.289062 L 3.628906 36.289062 L 3.628906 35.082031 L 9.675781 35.082031 Z M 4.839844 3.023438 C 4.839844 2.023438 5.652344 1.210938 6.652344 1.210938 L 24.796875 1.210938 C 25.800781 1.210938 26.613281 2.023438 26.613281 3.023438 L 26.613281 8.746094 C 26.175781 8.910156 25.765625 9.148438 25.402344 9.453125 L 25.402344 6.046875 C 25.402344 5.382812 24.859375 4.839844 24.195312 4.839844 L 7.257812 4.839844 C 6.589844 4.839844 6.046875 5.382812 6.046875 6.046875 L 6.046875 24.195312 C 6.046875 24.679688 6.335938 25.09375 6.746094 25.285156 C 6.488281 26.058594 6.179688 26.8125 5.816406 27.535156 C 5.730469 27.714844 5.550781 27.824219 5.355469 27.824219 C 5.070312 27.824219 4.839844 27.589844 4.839844 27.304688 Z M 28.78125 9.675781 L 26.324219 12.136719 C 26.128906 12.113281 25.933594 12.097656 25.738281 12.097656 C 24.550781 12.097656 23.589844 13.0625 23.589844 14.246094 C 23.589844 14.433594 23.613281 14.621094 23.660156 14.796875 L 22.902344 15.554688 C 22.585938 15.355469 22.378906 15.011719 22.378906 14.621094 C 22.378906 14.328125 22.496094 14.042969 22.703125 13.839844 L 25.976562 10.5625 C 26.550781 9.992188 27.308594 9.675781 28.117188 9.675781 Z M 33.671875 6.496094 C 33.960938 6.210938 34.347656 6.046875 34.757812 6.046875 C 35.601562 6.046875 36.289062 6.734375 36.289062 7.582031 C 36.289062 7.992188 36.128906 8.375 35.839844 8.667969 L 30.195312 14.3125 L 28.75 13.152344 C 28.417969 12.886719 28.054688 12.671875 27.667969 12.503906 Z M 35.136719 11.082031 L 36.695312 9.519531 C 37.214844 9.003906 37.5 8.3125 37.5 7.582031 C 37.5 6.070312 36.269531 4.839844 34.757812 4.839844 C 34.023438 4.839844 33.335938 5.125 32.816406 5.640625 L 29.992188 8.46875 L 28.117188 8.46875 C 28.015625 8.46875 27.917969 8.476562 27.824219 8.480469 L 27.824219 3.023438 C 27.824219 1.355469 26.464844 0 24.796875 0 L 6.652344 0 C 4.984375 0 3.628906 1.355469 3.628906 3.023438 L 3.628906 17.289062 L 1.957031 18.960938 C 0.695312 20.222656 0 21.902344 0 23.691406 C 0 24.054688 0.03125 24.425781 0.09375 24.789062 L 1.03125 30.433594 C 1.164062 31.21875 1.378906 31.992188 1.671875 32.726562 L 2.417969 34.59375 L 2.417969 37.5 L 10.886719 37.5 L 10.886719 34.59375 L 11.304688 33.550781 C 11.421875 33.257812 11.519531 32.957031 11.613281 32.660156 L 24.796875 32.660156 C 26.464844 32.660156 27.824219 31.304688 27.824219 29.636719 L 27.824219 18.394531 L 28.066406 18.148438 L 28.625 18.484375 C 29.570312 19.054688 30.660156 19.355469 31.769531 19.355469 C 32.425781 19.355469 33.074219 19.25 33.699219 19.039062 L 36.386719 18.144531 L 37.5 18.144531 L 37.5 12.097656 L 36.492188 12.097656 L 35.136719 11.082031"/></g><path fill="#000" fill-opacity="1" fill-rule="nonzero" d="M 21.773438 9.675781 L 9.675781 9.675781 L 9.675781 8.46875 L 21.773438 8.46875 Z M 22.984375 7.257812 L 8.46875 7.257812 L 8.46875 10.886719 L 22.984375 10.886719 L 22.984375 7.257812"/><path fill="#000" fill-opacity="1" fill-rule="nonzero" d="M 12.097656 13.304688 L 19.960938 13.304688 L 19.960938 12.097656 L 12.097656 12.097656 L 12.097656 13.304688"/><path fill="#000" fill-opacity="1" fill-rule="nonzero" d="M 18.75 15.726562 L 19.960938 15.726562 L 19.960938 14.515625 L 18.75 14.515625 L 18.75 15.726562"/><path fill="#000" fill-opacity="1" fill-rule="nonzero" d="M 12.097656 14.515625 L 12.097656 15.726562 L 17.539062 15.726562 L 17.539062 14.515625 L 12.097656 14.515625"/><path fill="#000" fill-opacity="1" fill-rule="nonzero" d="M 12.097656 18.144531 L 19.960938 18.144531 L 19.960938 16.933594 L 12.097656 16.933594 L 12.097656 18.144531"/><path fill="#000" fill-opacity="1" fill-rule="nonzero" d="M 12.097656 20.566406 L 18.75 20.566406 L 18.75 19.355469 L 12.097656 19.355469 L 12.097656 20.566406"/><path fill="#000" fill-opacity="1" fill-rule="nonzero" d="M 12.097656 22.984375 L 18.75 22.984375 L 18.75 21.773438 L 12.097656 21.773438 L 12.097656 22.984375"/></svg>