<svg xmlns="http://www.w3.org/2000/svg" xmlns:xlink="http://www.w3.org/1999/xlink" width="50" height="50" preserveAspectRatio="xMidYMid meet" version="1.0" viewBox="0 0 37.5 37.5" zoomAndPan="magnify"><defs><clipPath id="3073b17a37"><path d="M 0 0 L 37.007812 0 L 37.007812 37.007812 L 0 37.007812 Z M 0 0" clip-rule="nonzero"/></clipPath></defs><path fill="#ffc338" fill-opacity="1" fill-rule="evenodd" d="M 21.601562 6.804688 L 22.574219 9.675781 C 25.105469 12.363281 26.949219 14.640625 28.105469 16.652344 C 31.804688 23.082031 26.542969 29.613281 19.496094 29.496094 C 12.449219 29.613281 7.183594 23.082031 10.882812 16.652344 C 12.042969 14.640625 13.886719 12.363281 16.417969 9.675781 L 17.394531 6.808594 L 15.019531 4.457031 C 14.441406 3.882812 14.441406 2.945312 15.019531 2.375 C 15.511719 1.886719 16.292969 1.804688 16.878906 2.175781 C 17.097656 2.3125 17.347656 2.335938 17.585938 2.238281 C 17.824219 2.140625 17.984375 1.949219 18.039062 1.699219 C 18.1875 1.039062 18.785156 0.539062 19.496094 0.539062 C 20.195312 0.539062 20.800781 1.023438 20.949219 1.699219 C 21.007812 1.949219 21.167969 2.140625 21.40625 2.238281 C 21.644531 2.335938 21.894531 2.3125 22.113281 2.175781 C 22.6875 1.808594 23.46875 1.875 23.972656 2.375 C 24.550781 2.945312 24.550781 3.882812 23.972656 4.457031 Z M 21.601562 6.804688"/><path fill="#f5b829" fill-opacity="1" fill-rule="evenodd" d="M 21.601562 6.804688 L 22.574219 9.675781 C 25.105469 12.363281 26.949219 14.640625 28.105469 16.652344 C 31.804688 23.082031 26.542969 29.613281 19.496094 29.496094 C 19.359375 29.5 19.222656 29.496094 19.085938 29.496094 C 25.921875 29.359375 30.910156 22.957031 27.285156 16.652344 C 26.125 14.640625 24.28125 12.363281 21.75 9.675781 L 20.777344 6.804688 L 23.148438 4.457031 C 23.726562 3.882812 23.726562 2.945312 23.148438 2.375 C 22.964844 2.191406 22.742188 2.066406 22.507812 2 C 23.011719 1.859375 23.574219 1.980469 23.972656 2.375 C 24.550781 2.945312 24.550781 3.882812 23.972656 4.457031 Z M 15.664062 2 C 16.066406 1.886719 16.511719 1.941406 16.878906 2.175781 L 16.882812 2.175781 C 16.84375 2.199219 16.804688 2.222656 16.761719 2.238281 C 16.523438 2.335938 16.273438 2.3125 16.054688 2.175781 C 15.933594 2.097656 15.800781 2.039062 15.664062 2 Z M 19.082031 0.597656 C 19.597656 0.742188 20.007812 1.160156 20.128906 1.699219 C 20.183594 1.949219 20.34375 2.140625 20.582031 2.238281 C 20.820312 2.335938 21.070312 2.3125 21.285156 2.175781 C 21.113281 2.070312 20.996094 1.90625 20.949219 1.699219 C 20.800781 1.023438 20.195312 0.539062 19.496094 0.539062 C 19.351562 0.539062 19.214844 0.558594 19.082031 0.597656 Z M 19.082031 0.597656"/><path fill="#837683" fill-opacity="1" fill-rule="evenodd" d="M 16.261719 9.675781 L 22.726562 9.675781 C 23.523438 9.675781 24.175781 9.03125 24.175781 8.242188 C 24.175781 7.453125 23.523438 6.804688 22.726562 6.804688 L 16.261719 6.804688 C 15.464844 6.804688 14.816406 7.453125 14.816406 8.242188 C 14.816406 9.03125 15.464844 9.675781 16.261719 9.675781 Z M 16.261719 9.675781"/><path fill="#685e68" fill-opacity="1" fill-rule="evenodd" d="M 21.90625 9.675781 L 22.726562 9.675781 C 23.523438 9.675781 24.175781 9.03125 24.175781 8.242188 C 24.175781 7.453125 23.523438 6.804688 22.726562 6.804688 L 21.90625 6.804688 C 22.703125 6.804688 23.355469 7.453125 23.355469 8.242188 C 23.355469 9.03125 22.703125 9.675781 21.90625 9.675781 Z M 21.90625 9.675781"/><path fill="#f6dccd" fill-opacity="1" fill-rule="evenodd" d="M 3.746094 26.722656 L 10.753906 22.703125 C 12.066406 21.949219 13.402344 21.414062 14.847656 21.878906 C 16.460938 22.394531 19.089844 23.507812 21.773438 23.984375 C 22.769531 24.304688 23.390625 25.292969 23.121094 26.292969 C 22.847656 27.292969 21.992188 27.8125 20.789062 27.625 L 21.726562 27.773438 C 22.800781 27.945312 23.789062 27.800781 24.726562 27.257812 L 31.464844 23.375 C 36.699219 20.355469 37.46875 25 35.726562 26.058594 L 23.503906 33.511719 C 22.378906 34.195312 21.152344 34.355469 19.875 34.015625 L 11.011719 31.664062 L 7.726562 33.542969 C 7.097656 33.902344 6.285156 33.6875 5.917969 33.0625 L 3.265625 28.511719 C 2.902344 27.886719 3.117188 27.082031 3.746094 26.722656 Z M 3.746094 26.722656"/><path fill="#f1cbbc" fill-opacity="1" fill-rule="evenodd" d="M 22.960938 26.707031 C 22.585938 27.433594 21.8125 27.785156 20.789062 27.625 C 19.335938 27.246094 17.886719 26.855469 16.433594 26.472656 C 16.046875 26.367188 15.816406 25.972656 15.917969 25.589844 C 16.023438 25.203125 16.421875 24.976562 16.8125 25.078125 Z M 22.960938 26.707031"/><path fill="#f1cbbc" fill-opacity="1" fill-rule="evenodd" d="M 3.746094 26.722656 L 10.753906 22.703125 C 12.066406 21.949219 13.402344 21.414062 14.847656 21.878906 C 15.710938 22.15625 16.863281 22.601562 18.160156 23.03125 L 4.59375 30.785156 L 3.265625 28.511719 C 2.902344 27.886719 3.117188 27.082031 3.746094 26.722656 Z M 3.746094 26.722656"/><path fill="#d1d1d6" fill-opacity="1" fill-rule="evenodd" d="M 4.5625 24.722656 L 10.117188 34.441406 C 10.386719 34.910156 10.214844 35.511719 9.742188 35.777344 L 7.851562 36.835938 C 7.378906 37.101562 6.769531 36.9375 6.5 36.464844 L 0.945312 26.75 C 0.675781 26.277344 0.84375 25.675781 1.320312 25.410156 L 3.210938 24.351562 C 3.683594 24.085938 4.292969 24.253906 4.5625 24.722656 Z M 4.5625 24.722656"/><path fill="#b1b1b5" fill-opacity="1" fill-rule="evenodd" d="M 7.484375 31.398438 L 8.464844 33.121094 L 9.4375 34.820312 C 9.707031 35.289062 9.539062 35.890625 9.066406 36.15625 L 9.742188 35.777344 C 10.214844 35.511719 10.386719 34.910156 10.117188 34.441406 L 9.140625 32.734375 L 7.179688 29.308594 L 5.21875 25.875 L 4.5625 24.722656 C 4.328125 24.316406 3.839844 24.136719 3.40625 24.269531 L 4.546875 26.265625 L 6.507812 29.691406 L 7.480469 31.398438 Z M 7.484375 31.398438"/><path fill="#685e68" fill-opacity="1" fill-rule="evenodd" d="M 3.175781 25.984375 C 2.808594 26.039062 2.550781 26.378906 2.605469 26.742188 C 2.660156 27.109375 3.003906 27.359375 3.371094 27.308594 C 3.738281 27.253906 3.996094 26.914062 3.941406 26.550781 C 3.886719 26.183594 3.542969 25.933594 3.175781 25.984375 Z M 3.175781 25.984375"/><g clip-path="url(#3073b17a37)"><path fill="#000" fill-opacity="1" fill-rule="evenodd" d="M 4.042969 26.714844 C 4.097656 27.078125 3.84375 27.417969 3.472656 27.46875 C 3.105469 27.523438 2.765625 27.269531 2.710938 26.90625 C 2.65625 26.542969 2.910156 26.207031 3.28125 26.152344 C 3.648438 26.097656 3.988281 26.351562 4.042969 26.714844 Z M 35.417969 25.726562 L 23.234375 33.15625 C 22.269531 33.746094 21.207031 33.894531 20.082031 33.59375 L 11.242188 31.25 C 11.089844 31.210938 10.929688 31.230469 10.792969 31.308594 L 9.445312 32.078125 L 6.121094 26.257812 L 11.128906 23.386719 C 12.25 22.746094 13.460938 22.207031 14.734375 22.617188 C 15.140625 22.746094 15.613281 22.914062 16.15625 23.109375 C 17.71875 23.667969 19.660156 24.363281 21.671875 24.726562 C 22.375 24.972656 22.769531 25.644531 22.589844 26.308594 C 22.355469 27.179688 21.617188 27.289062 21.035156 27.222656 C 20.046875 27.023438 19.105469 26.757812 18.109375 26.476562 C 17.640625 26.34375 17.152344 26.203125 16.652344 26.070312 C 16.335938 25.988281 16.011719 26.171875 15.925781 26.484375 C 15.839844 26.796875 16.027344 27.121094 16.34375 27.203125 C 16.835938 27.332031 17.320312 27.46875 17.785156 27.601562 C 18.8125 27.890625 19.777344 28.164062 20.820312 28.375 C 20.824219 28.375 21.679688 28.515625 21.679688 28.515625 C 22.925781 28.710938 24.035156 28.519531 25.0625 27.925781 L 31.777344 24.054688 C 33.710938 22.9375 35.203125 22.828125 35.761719 23.753906 C 36.148438 24.390625 35.976562 25.390625 35.417969 25.726562 Z M 9.421875 35.210938 C 9.609375 35.105469 9.679688 34.863281 9.574219 34.675781 L 4.035156 24.988281 C 3.929688 24.800781 3.679688 24.738281 3.492188 24.839844 L 1.609375 25.894531 C 1.421875 26 1.355469 26.246094 1.460938 26.429688 L 7 36.117188 C 7.105469 36.304688 7.351562 36.371094 7.539062 36.265625 Z M 11.398438 17.003906 C 10.371094 18.789062 10.03125 20.65625 10.402344 22.449219 L 10.535156 22.375 C 11.828125 21.632812 13.382812 20.949219 15.097656 21.5 C 15.484375 21.625 15.929688 21.78125 16.402344 21.953125 C 16.394531 21.925781 16.386719 21.902344 16.378906 21.875 C 16.300781 21.5625 16.492188 21.242188 16.808594 21.164062 C 17.128906 21.085938 17.449219 21.277344 17.527344 21.59375 C 17.6875 22.222656 18.152344 22.535156 18.523438 22.691406 C 19.328125 23.023438 20.566406 22.964844 21.171875 22.273438 C 21.351562 22.070312 21.417969 21.828125 21.382812 21.535156 C 21.324219 21.050781 21.042969 20.464844 19.378906 20.195312 C 17.179688 19.839844 16.667969 18.722656 16.625 17.847656 C 16.566406 16.640625 17.417969 15.625 18.742188 15.328125 C 18.789062 15.320312 18.832031 15.308594 18.878906 15.300781 L 18.878906 14.734375 C 18.878906 14.410156 19.140625 14.148438 19.46875 14.148438 C 19.796875 14.148438 20.058594 14.410156 20.058594 14.734375 L 20.058594 15.296875 C 20.976562 15.453125 21.871094 15.992188 22.320312 17.0625 C 22.449219 17.359375 22.308594 17.703125 22.003906 17.828125 C 21.703125 17.953125 21.359375 17.8125 21.230469 17.515625 C 20.902344 16.734375 20.191406 16.417969 19.507812 16.417969 C 19.484375 16.417969 19.464844 16.417969 19.445312 16.417969 C 19.292969 16.421875 19.148438 16.4375 19.003906 16.46875 C 18.402344 16.605469 17.769531 17.023438 17.804688 17.792969 C 17.820312 18.058594 17.851562 18.761719 19.570312 19.039062 C 20.253906 19.152344 22.324219 19.488281 22.558594 21.390625 C 22.632812 22.015625 22.464844 22.585938 22.066406 23.039062 C 21.914062 23.214844 21.726562 23.371094 21.515625 23.503906 C 21.648438 23.53125 21.789062 23.558594 21.925781 23.582031 C 21.949219 23.585938 21.976562 23.59375 22 23.601562 C 23.316406 24.023438 24.074219 25.34375 23.730469 26.609375 C 23.660156 26.878906 23.554688 27.117188 23.421875 27.332031 C 23.78125 27.246094 24.128906 27.109375 24.46875 26.914062 L 27.34375 25.257812 C 29.109375 22.800781 29.203125 19.796875 27.59375 17.003906 C 26.53125 15.152344 24.851562 13.027344 22.316406 10.320312 L 16.675781 10.320312 C 14.144531 13.027344 12.460938 15.152344 11.398438 17.003906 Z M 16.265625 7.453125 L 22.730469 7.453125 C 23.199219 7.453125 23.585938 7.832031 23.585938 8.300781 C 23.585938 8.769531 23.199219 9.148438 22.730469 9.148438 L 16.265625 9.148438 C 15.792969 9.148438 15.40625 8.769531 15.40625 8.300781 C 15.40625 7.832031 15.792969 7.453125 16.265625 7.453125 Z M 15.179688 3.476562 C 15.179688 3.238281 15.269531 3.015625 15.441406 2.847656 C 15.734375 2.554688 16.207031 2.503906 16.558594 2.726562 C 16.941406 2.96875 17.394531 3.011719 17.8125 2.839844 C 18.230469 2.667969 18.523438 2.320312 18.617188 1.882812 C 18.707031 1.480469 19.078125 1.183594 19.496094 1.183594 C 19.914062 1.183594 20.285156 1.480469 20.375 1.882812 C 20.46875 2.320312 20.765625 2.667969 21.179688 2.839844 C 21.597656 3.011719 22.050781 2.96875 22.433594 2.726562 C 22.785156 2.503906 23.257812 2.554688 23.554688 2.847656 C 23.722656 3.015625 23.8125 3.238281 23.8125 3.476562 C 23.8125 3.714844 23.722656 3.9375 23.554688 4.105469 L 21.355469 6.28125 L 17.636719 6.28125 L 15.441406 4.105469 C 15.269531 3.9375 15.179688 3.714844 15.179688 3.476562 Z M 36.777344 23.152344 C 36.425781 22.570312 34.984375 20.847656 31.179688 23.042969 L 29.308594 24.125 C 29.640625 23.300781 29.84375 22.433594 29.898438 21.554688 C 30.011719 19.816406 29.582031 18.089844 28.621094 16.421875 C 27.585938 14.625 26.011719 12.59375 23.695312 10.078125 C 24.335938 9.738281 24.769531 9.066406 24.769531 8.300781 C 24.769531 7.28125 24 6.4375 23.007812 6.300781 L 24.390625 4.933594 C 25.199219 4.128906 25.199219 2.824219 24.390625 2.019531 C 23.703125 1.339844 22.609375 1.222656 21.792969 1.742188 C 21.738281 1.777344 21.691406 1.78125 21.632812 1.757812 C 21.574219 1.734375 21.542969 1.695312 21.527344 1.632812 C 21.320312 0.695312 20.46875 0.0117188 19.496094 0.0117188 C 18.523438 0.0117188 17.671875 0.695312 17.464844 1.632812 C 17.449219 1.695312 17.417969 1.734375 17.359375 1.757812 C 17.300781 1.78125 17.253906 1.777344 17.199219 1.742188 C 16.382812 1.222656 15.289062 1.339844 14.601562 2.019531 C 14.210938 2.40625 13.996094 2.925781 13.996094 3.476562 C 13.996094 4.027344 14.210938 4.542969 14.601562 4.933594 L 15.984375 6.300781 C 14.992188 6.4375 14.222656 7.28125 14.222656 8.300781 C 14.222656 9.066406 14.65625 9.738281 15.296875 10.078125 C 12.980469 12.59375 11.40625 14.625 10.371094 16.421875 C 9.125 18.589844 8.769531 20.875 9.332031 23.0625 L 5.539062 25.238281 L 5.0625 24.410156 C 4.636719 23.660156 3.667969 23.394531 2.910156 23.820312 L 1.027344 24.875 C 0.269531 25.300781 0 26.257812 0.429688 27.007812 L 5.96875 36.695312 C 6.257812 37.203125 6.796875 37.488281 7.347656 37.488281 C 7.609375 37.488281 7.878906 37.425781 8.121094 37.285156 L 10.007812 36.230469 C 10.765625 35.804688 11.03125 34.851562 10.601562 34.097656 L 10.03125 33.097656 L 11.171875 32.445312 L 19.773438 34.726562 C 20.257812 34.855469 20.734375 34.917969 21.203125 34.917969 C 22.132812 34.917969 23.019531 34.660156 23.855469 34.152344 L 36.039062 26.726562 C 37.148438 26.050781 37.5 24.347656 36.777344 23.152344 Z M 36.777344 23.152344"/></g></svg>