<svg xmlns="http://www.w3.org/2000/svg" xmlns:xlink="http://www.w3.org/1999/xlink" width="50" zoomAndPan="magnify" viewBox="0 0 37.5 37.499999" height="50" preserveAspectRatio="xMidYMid meet" version="1.0"><defs><clipPath id="9dfefba062"><path d="M 2 2 L 37.007812 2 L 37.007812 26.25 L 2 26.25 Z M 2 2 " clip-rule="nonzero"/></clipPath><clipPath id="d29e38cd69"><path d="M 3 14 L 37 14 L 37 37.007812 L 3 37.007812 Z M 3 14 " clip-rule="nonzero"/></clipPath><clipPath id="9e3e976540"><path d="M 4 36 L 37 36 L 37 37.007812 L 4 37.007812 Z M 4 36 " clip-rule="nonzero"/></clipPath><clipPath id="55ec038d15"><path d="M 36 29 L 37.007812 29 L 37.007812 31 L 36 31 Z M 36 29 " clip-rule="nonzero"/></clipPath><clipPath id="9d4b0e40ac"><path d="M 15 7.050781 L 26 7.050781 L 26 12 L 15 12 Z M 15 7.050781 " clip-rule="nonzero"/></clipPath><clipPath id="c53c72a60d"><path d="M 2.925781 14 L 37.007812 14 L 37.007812 37.007812 L 2.925781 37.007812 Z M 2.925781 14 " clip-rule="nonzero"/></clipPath><clipPath id="30bd1e22cd"><path d="M 24 14 L 37.007812 14 L 37.007812 29 L 24 29 Z M 24 14 " clip-rule="nonzero"/></clipPath></defs><path fill="#fcd965" d="M 1.757812 4.667969 C 1.757812 3.058594 3.070312 1.75 4.6875 1.75 L 33.546875 1.75 L 33.546875 0.730469 L 0.734375 0.730469 L 0.734375 22.605469 L 1.757812 22.605469 L 1.757812 4.667969 " fill-opacity="1" fill-rule="nonzero"/><path fill="#2c3d53" d="M 1.757812 1.167969 L 32.8125 1.167969 C 33.136719 1.167969 33.398438 1.429688 33.398438 1.75 L 34.570312 1.75 C 34.570312 0.785156 33.78125 0 32.8125 0 L 1.757812 0 C 0.789062 0 0 0.785156 0 1.75 L 0 21.582031 C 0 22.546875 0.789062 23.332031 1.757812 23.332031 L 1.757812 22.167969 C 1.433594 22.167969 1.171875 21.90625 1.171875 21.582031 L 1.171875 1.75 C 1.171875 1.429688 1.433594 1.167969 1.757812 1.167969 " fill-opacity="1" fill-rule="nonzero"/><g clip-path="url(#9dfefba062)"><path fill="#2c3d53" d="M 35.742188 2.917969 L 4.6875 2.917969 C 3.71875 2.917969 2.929688 3.703125 2.929688 4.667969 L 2.929688 24.5 C 2.929688 25.464844 3.71875 26.25 4.6875 26.25 L 35.742188 26.25 C 36.710938 26.25 37.5 25.464844 37.5 24.5 L 37.5 4.667969 C 37.5 3.703125 36.710938 2.917969 35.742188 2.917969 M 36.328125 24.5 C 36.328125 24.820312 36.066406 25.082031 35.742188 25.082031 L 4.6875 25.082031 C 4.363281 25.082031 4.101562 24.820312 4.101562 24.5 L 4.101562 4.667969 C 4.101562 4.347656 4.363281 4.082031 4.6875 4.082031 L 35.742188 4.082031 C 36.066406 4.082031 36.328125 4.347656 36.328125 4.667969 L 36.328125 24.5 " fill-opacity="1" fill-rule="nonzero"/></g><path fill="#8dd9dd" d="M 35.742188 4.082031 L 4.6875 4.082031 C 4.363281 4.082031 4.101562 4.347656 4.101562 4.667969 L 4.101562 24.5 C 4.101562 24.820312 4.363281 25.082031 4.6875 25.082031 L 35.742188 25.082031 C 36.0625 25.082031 36.328125 24.820312 36.328125 24.5 L 36.328125 4.667969 C 36.328125 4.347656 36.0625 4.082031 35.742188 4.082031 M 12.890625 12.25 C 12.890625 12.570312 12.625 12.832031 12.304688 12.832031 L 7.03125 12.832031 C 6.707031 12.832031 6.445312 12.570312 6.445312 12.25 L 6.445312 7.582031 C 6.445312 7.261719 6.707031 7 7.03125 7 L 12.304688 7 C 12.625 7 12.890625 7.261719 12.890625 7.582031 L 12.890625 12.25 " fill-opacity="1" fill-rule="nonzero"/><path fill="#2c3d53" d="M 33.398438 16.332031 L 7.03125 16.332031 C 6.707031 16.332031 6.445312 16.59375 6.445312 16.917969 C 6.445312 17.238281 6.707031 17.5 7.03125 17.5 L 33.398438 17.5 C 33.722656 17.5 33.984375 17.238281 33.984375 16.917969 C 33.984375 16.59375 33.722656 16.332031 33.398438 16.332031 " fill-opacity="1" fill-rule="nonzero"/><path fill="#2c3d53" d="M 33.398438 18.667969 L 7.03125 18.667969 C 6.707031 18.667969 6.445312 18.929688 6.445312 19.25 C 6.445312 19.570312 6.707031 19.832031 7.03125 19.832031 L 33.398438 19.832031 C 33.722656 19.832031 33.984375 19.570312 33.984375 19.25 C 33.984375 18.929688 33.722656 18.667969 33.398438 18.667969 " fill-opacity="1" fill-rule="nonzero"/><path fill="#2c3d53" d="M 18.742188 21 L 7.03125 21 C 6.707031 21 6.445312 21.261719 6.445312 21.582031 C 6.445312 21.90625 6.707031 22.167969 7.03125 22.167969 L 18.742188 22.167969 C 19.0625 22.167969 19.328125 21.90625 19.328125 21.582031 C 19.328125 21.261719 19.0625 21 18.742188 21 " fill-opacity="1" fill-rule="nonzero"/><path fill="#2c3d53" d="M 20.023438 10.328125 C 20.453125 10.445312 20.855469 10.554688 21.011719 10.800781 C 21.117188 10.964844 21.121094 11.164062 21.027344 11.304688 C 20.828125 11.589844 20.316406 11.644531 19.925781 11.574219 C 19.777344 11.546875 19.621094 11.476562 19.488281 11.375 C 19.230469 11.179688 18.863281 11.226562 18.667969 11.484375 C 18.472656 11.738281 18.519531 12.105469 18.777344 12.300781 C 19.042969 12.5 19.34375 12.636719 19.652344 12.707031 L 19.652344 13.125 C 19.652344 13.445312 19.914062 13.707031 20.238281 13.707031 C 20.5625 13.707031 20.824219 13.445312 20.824219 13.125 L 20.824219 12.699219 C 21.277344 12.601562 21.707031 12.375 21.992188 11.960938 C 22.355469 11.4375 22.355469 10.734375 22 10.175781 C 21.601562 9.550781 20.898438 9.359375 20.332031 9.203125 C 19.730469 9.042969 19.4375 8.9375 19.351562 8.675781 C 19.253906 8.386719 19.628906 8.199219 19.855469 8.144531 C 20.199219 8.058594 20.585938 8.136719 20.882812 8.320312 C 21.160156 8.488281 21.519531 8.40625 21.691406 8.132812 C 21.859375 7.855469 21.777344 7.496094 21.5 7.328125 C 21.347656 7.234375 21.1875 7.160156 21.019531 7.101562 L 21.019531 6.707031 C 21.019531 6.386719 20.757812 6.125 20.433594 6.125 C 20.109375 6.125 19.847656 6.386719 19.847656 6.707031 L 19.847656 6.964844 C 19.644531 6.988281 19.441406 7.035156 19.25 7.113281 C 18.40625 7.457031 17.980469 8.269531 18.238281 9.046875 C 18.539062 9.925781 19.363281 10.152344 20.023438 10.328125 " fill-opacity="1" fill-rule="nonzero"/><path fill="#2c3d53" d="M 12.304688 7 L 7.03125 7 C 6.707031 7 6.445312 7.261719 6.445312 7.582031 L 6.445312 12.25 C 6.445312 12.570312 6.707031 12.832031 7.03125 12.832031 L 12.304688 12.832031 C 12.625 12.832031 12.890625 12.570312 12.890625 12.25 L 12.890625 7.582031 C 12.890625 7.261719 12.625 7 12.304688 7 M 11.71875 11.667969 L 7.617188 11.667969 L 7.617188 8.167969 L 11.71875 8.167969 L 11.71875 11.667969 " fill-opacity="1" fill-rule="nonzero"/><path fill="#fcd965" d="M 11.71875 8.167969 L 11.71875 11.667969 L 7.617188 11.667969 L 7.617188 8.167969 L 11.71875 8.167969 " fill-opacity="1" fill-rule="nonzero"/><path fill="#2c3d53" d="M 33.398438 8.167969 L 29.296875 8.167969 C 28.972656 8.167969 28.710938 8.429688 28.710938 8.75 C 28.710938 9.070312 28.972656 9.332031 29.296875 9.332031 L 33.398438 9.332031 C 33.722656 9.332031 33.984375 9.070312 33.984375 8.75 C 33.984375 8.429688 33.722656 8.167969 33.398438 8.167969 " fill-opacity="1" fill-rule="nonzero"/><path fill="#2c3d53" d="M 33.398438 10.5 L 29.296875 10.5 C 28.972656 10.5 28.710938 10.761719 28.710938 11.082031 C 28.710938 11.40625 28.972656 11.667969 29.296875 11.667969 L 33.398438 11.667969 C 33.722656 11.667969 33.984375 11.40625 33.984375 11.082031 C 33.984375 10.761719 33.722656 10.5 33.398438 10.5 " fill-opacity="1" fill-rule="nonzero"/><path fill="#b2e5e7" d="M 35.742188 4.082031 L 4.6875 4.082031 C 4.363281 4.082031 4.101562 4.347656 4.101562 4.667969 L 4.101562 5.25 C 4.101562 4.929688 4.363281 4.667969 4.6875 4.667969 L 35.742188 4.667969 C 36.0625 4.667969 36.328125 4.929688 36.328125 5.25 L 36.328125 4.667969 C 36.328125 4.347656 36.0625 4.082031 35.742188 4.082031 " fill-opacity="1" fill-rule="nonzero"/><path fill="#62aeaf" d="M 36.328125 23.917969 C 36.328125 24.238281 36.0625 24.5 35.742188 24.5 L 4.6875 24.5 C 4.363281 24.5 4.101562 24.238281 4.101562 23.917969 L 4.101562 24.5 C 4.101562 24.820312 4.363281 25.082031 4.6875 25.082031 L 35.742188 25.082031 C 36.0625 25.082031 36.328125 24.820312 36.328125 24.5 L 36.328125 23.917969 " fill-opacity="1" fill-rule="nonzero"/><path fill="#fae497" d="M 11.71875 8.167969 L 7.617188 8.167969 L 7.617188 8.75 L 11.71875 8.75 L 11.71875 8.167969 " fill-opacity="1" fill-rule="nonzero"/><path fill="#d6b856" d="M 11.71875 11.082031 L 7.617188 11.082031 L 7.617188 11.667969 L 11.71875 11.667969 L 11.71875 11.082031 " fill-opacity="1" fill-rule="nonzero"/><g clip-path="url(#d29e38cd69)"><path fill="#81d9e3" d="M 3.464844 14.867188 L 36.777344 14.867188 L 36.777344 37.992188 L 3.464844 37.992188 Z M 3.464844 14.867188 " fill-opacity="1" fill-rule="nonzero"/></g><path fill="#0f423c" d="M 11.011719 19.449219 C 11.011719 19.152344 10.769531 18.910156 10.472656 18.910156 L 5.621094 18.910156 C 5.324219 18.910156 5.082031 19.152344 5.082031 19.449219 C 5.082031 19.746094 5.324219 19.988281 5.621094 19.988281 L 10.472656 19.988281 C 10.769531 19.988281 11.011719 19.746094 11.011719 19.449219 Z M 11.011719 19.449219 " fill-opacity="0.298" fill-rule="nonzero"/><path fill="#0f423c" d="M 5.621094 21.066406 C 5.324219 21.066406 5.082031 21.308594 5.082031 21.605469 C 5.082031 21.902344 5.324219 22.144531 5.621094 22.144531 L 8.316406 22.144531 C 8.613281 22.144531 8.855469 21.902344 8.855469 21.605469 C 8.855469 21.308594 8.613281 21.066406 8.316406 21.066406 Z M 5.621094 21.066406 " fill-opacity="0.298" fill-rule="nonzero"/><path fill="#0f423c" d="M 34.730469 18.910156 L 29.878906 18.910156 C 29.582031 18.910156 29.339844 19.152344 29.339844 19.449219 C 29.339844 19.746094 29.582031 19.988281 29.878906 19.988281 L 34.730469 19.988281 C 35.027344 19.988281 35.269531 19.746094 35.269531 19.449219 C 35.269531 19.152344 35.027344 18.910156 34.730469 18.910156 Z M 34.730469 18.910156 " fill-opacity="0.298" fill-rule="nonzero"/><path fill="#0f423c" d="M 34.730469 21.066406 L 32.035156 21.066406 C 31.738281 21.066406 31.496094 21.308594 31.496094 21.605469 C 31.496094 21.902344 31.738281 22.144531 32.035156 22.144531 L 34.730469 22.144531 C 35.027344 22.144531 35.269531 21.902344 35.269531 21.605469 C 35.269531 21.308594 35.027344 21.066406 34.730469 21.066406 Z M 34.730469 21.066406 " fill-opacity="0.298" fill-rule="nonzero"/><g clip-path="url(#9e3e976540)"><path fill="#fc785e" d="M 36.347656 36.160156 L 36.347656 36.699219 C 36.347656 36.996094 36.105469 37.238281 35.808594 37.238281 L 4.542969 37.238281 C 4.246094 37.238281 4.003906 36.996094 4.003906 36.699219 L 4.003906 36.160156 Z M 36.347656 36.160156 " fill-opacity="1" fill-rule="nonzero"/><path fill="#a54b3f" d="M 36.347656 36.699219 L 36.347656 37.238281 C 36.347656 37.507812 36.132812 37.75 35.863281 37.777344 C 35.835938 37.777344 35.835938 37.777344 35.808594 37.777344 L 4.542969 37.777344 C 4.515625 37.777344 4.515625 37.777344 4.488281 37.777344 C 4.21875 37.75 4.003906 37.507812 4.003906 37.238281 L 4.003906 36.699219 Z M 36.347656 36.699219 " fill-opacity="0.498" fill-rule="nonzero"/></g><g clip-path="url(#55ec038d15)"><path fill="#2d4356" d="M 37.425781 29.691406 C 37.425781 29.839844 37.371094 29.964844 37.265625 30.070312 C 37.160156 30.175781 37.035156 30.230469 36.886719 30.230469 C 36.738281 30.230469 36.609375 30.175781 36.503906 30.070312 C 36.398438 29.964844 36.347656 29.839844 36.347656 29.691406 C 36.347656 29.542969 36.398438 29.414062 36.503906 29.308594 C 36.609375 29.203125 36.738281 29.152344 36.886719 29.152344 C 37.035156 29.152344 37.160156 29.203125 37.265625 29.308594 C 37.371094 29.414062 37.425781 29.542969 37.425781 29.691406 Z M 37.425781 29.691406 " fill-opacity="1" fill-rule="nonzero"/></g><path fill="#2d4356" d="M 11.011719 18.910156 C 11.011719 18.613281 10.769531 18.371094 10.472656 18.371094 L 5.621094 18.371094 C 5.324219 18.371094 5.082031 18.613281 5.082031 18.910156 C 5.082031 19.207031 5.324219 19.449219 5.621094 19.449219 L 10.472656 19.449219 C 10.769531 19.449219 11.011719 19.207031 11.011719 18.910156 Z M 11.011719 18.910156 " fill-opacity="1" fill-rule="nonzero"/><path fill="#2d4356" d="M 5.621094 20.527344 C 5.324219 20.527344 5.082031 20.769531 5.082031 21.066406 C 5.082031 21.363281 5.324219 21.605469 5.621094 21.605469 L 8.316406 21.605469 C 8.613281 21.605469 8.855469 21.363281 8.855469 21.066406 C 8.855469 20.769531 8.613281 20.527344 8.316406 20.527344 Z M 5.621094 20.527344 " fill-opacity="1" fill-rule="nonzero"/><path fill="#2d4356" d="M 34.730469 18.371094 L 29.878906 18.371094 C 29.582031 18.371094 29.339844 18.613281 29.339844 18.910156 C 29.339844 19.207031 29.582031 19.449219 29.878906 19.449219 L 34.730469 19.449219 C 35.027344 19.449219 35.269531 19.207031 35.269531 18.910156 C 35.269531 18.613281 35.027344 18.371094 34.730469 18.371094 Z M 34.730469 18.371094 " fill-opacity="1" fill-rule="nonzero"/><path fill="#2d4356" d="M 34.730469 20.527344 L 32.035156 20.527344 C 31.738281 20.527344 31.496094 20.769531 31.496094 21.066406 C 31.496094 21.363281 31.738281 21.605469 32.035156 21.605469 L 34.730469 21.605469 C 35.027344 21.605469 35.269531 21.363281 35.269531 21.066406 C 35.269531 20.769531 35.027344 20.527344 34.730469 20.527344 Z M 34.730469 20.527344 " fill-opacity="1" fill-rule="nonzero"/><path fill="#0f423c" d="M 11.65625 34.003906 L 4.003906 34.003906 L 4.003906 35.082031 L 12.816406 35.082031 C 12.386719 34.757812 12.007812 34.40625 11.65625 34.003906 Z M 11.65625 34.003906 " fill-opacity="0.298" fill-rule="nonzero"/><path fill="#0f423c" d="M 28.691406 34.003906 C 28.339844 34.40625 27.9375 34.757812 27.53125 35.082031 L 36.347656 35.082031 L 36.347656 34.003906 Z M 28.691406 34.003906 " fill-opacity="0.298" fill-rule="nonzero"/><path fill="#bddee0" d="M 35.863281 15.136719 C 35.835938 15.136719 35.835938 15.136719 35.808594 15.136719 L 24.296875 15.136719 C 24.542969 15.484375 24.785156 15.863281 25.027344 16.214844 L 35.808594 16.214844 C 36.105469 16.214844 36.347656 16.457031 36.347656 16.753906 L 36.347656 15.675781 C 36.347656 15.40625 36.132812 15.164062 35.863281 15.136719 Z M 35.863281 15.136719 " fill-opacity="0.498" fill-rule="nonzero"/><path fill="#bddee0" d="M 16.050781 15.136719 L 4.542969 15.136719 C 4.515625 15.136719 4.515625 15.136719 4.488281 15.136719 C 4.21875 15.164062 4.003906 15.40625 4.003906 15.675781 L 4.003906 16.753906 C 4.003906 16.457031 4.246094 16.214844 4.542969 16.214844 L 15.324219 16.214844 C 15.566406 15.863281 15.808594 15.484375 16.050781 15.136719 Z M 16.050781 15.136719 " fill-opacity="0.498" fill-rule="nonzero"/><path fill="#f9bf64" d="M 28.503906 29.125 C 28.261719 32.953125 24.8125 34.839844 21.496094 35.027344 C 21.0625 35.054688 20.6875 35.082031 20.28125 35.082031 C 20.230469 35.082031 20.148438 35.082031 20.09375 35.082031 L 19.960938 35.082031 C 19.609375 35.082031 19.230469 35.054688 18.828125 35.027344 C 15.511719 34.839844 12.0625 32.925781 11.820312 29.125 C 11.605469 25.59375 13.273438 22.738281 15.109375 20.175781 C 15.296875 19.933594 15.457031 19.691406 15.621094 19.449219 C 16.375 18.398438 17.15625 17.320312 17.882812 16.214844 L 22.386719 16.214844 C 23.113281 17.320312 23.894531 18.398438 24.648438 19.421875 C 24.835938 19.664062 25 19.90625 25.1875 20.148438 C 27.046875 22.738281 28.746094 25.59375 28.503906 29.125 Z M 28.503906 29.125 " fill-opacity="1" fill-rule="nonzero"/><path fill="#2d4356" d="M 23.140625 14.058594 C 23.4375 14.058594 23.679688 13.816406 23.679688 13.519531 C 23.679688 13.222656 23.4375 12.980469 23.140625 12.980469 L 17.210938 12.980469 C 16.914062 12.980469 16.671875 13.222656 16.671875 13.519531 C 16.671875 13.816406 16.914062 14.058594 17.210938 14.058594 Z M 23.140625 14.058594 " fill-opacity="1" fill-rule="nonzero"/><g clip-path="url(#9d4b0e40ac)"><path fill="#2d4356" d="M 24.972656 7.375 C 24.890625 7.128906 24.515625 7.050781 24.21875 7.050781 C 24.164062 7.050781 24.109375 7.050781 24.054688 7.050781 C 23.03125 7.183594 22.410156 8.316406 21.359375 8.316406 C 21.253906 8.316406 21.144531 8.316406 21.039062 8.289062 C 20.550781 8.183594 20.417969 7.667969 20.011719 7.507812 C 19.933594 7.480469 19.824219 7.453125 19.742188 7.453125 C 19.3125 7.453125 18.988281 7.914062 18.691406 8.128906 C 18.421875 8.34375 18.125 8.453125 17.804688 8.453125 C 17.667969 8.453125 17.535156 8.425781 17.398438 8.371094 C 16.914062 8.207031 16.535156 7.886719 16.050781 7.777344 C 15.996094 7.777344 15.941406 7.75 15.890625 7.75 C 15.621094 7.75 15.351562 7.886719 15.324219 8.15625 C 15.296875 8.503906 15.675781 8.828125 15.890625 9.070312 C 15.890625 9.070312 16.914062 9.824219 17.535156 11.847656 L 22.84375 11.847656 C 23.085938 10.902344 23.464844 9.988281 24.003906 9.152344 C 24.296875 8.773438 25.242188 7.964844 24.972656 7.375 Z M 22.035156 10.824219 L 18.289062 10.824219 C 18.074219 10.3125 17.855469 9.90625 17.640625 9.554688 C 17.695312 9.554688 17.75 9.554688 17.828125 9.554688 C 18.367188 9.554688 18.882812 9.367188 19.367188 9.015625 C 19.5 8.9375 19.609375 8.828125 19.714844 8.722656 C 19.714844 8.722656 19.742188 8.695312 19.742188 8.695312 C 19.960938 8.9375 20.28125 9.261719 20.847656 9.367188 C 21.039062 9.394531 21.199219 9.421875 21.386719 9.421875 C 22.035156 9.421875 22.546875 9.179688 22.949219 8.910156 C 22.574219 9.503906 22.277344 10.148438 22.035156 10.824219 Z M 22.035156 10.824219 " fill-opacity="1" fill-rule="nonzero"/></g><path fill="#f9bf64" d="M 22.925781 8.910156 C 22.574219 9.503906 22.277344 10.148438 22.035156 10.824219 L 18.289062 10.824219 C 18.074219 10.3125 17.855469 9.90625 17.640625 9.554688 C 17.695312 9.554688 17.75 9.554688 17.828125 9.554688 C 18.367188 9.554688 18.882812 9.367188 19.367188 9.015625 C 19.5 8.9375 19.609375 8.828125 19.714844 8.722656 C 19.714844 8.722656 19.742188 8.695312 19.742188 8.695312 C 19.960938 8.9375 20.28125 9.261719 20.847656 9.367188 C 21.039062 9.394531 21.199219 9.421875 21.386719 9.421875 C 21.980469 9.421875 22.492188 9.179688 22.925781 8.910156 Z M 22.925781 8.910156 " fill-opacity="1" fill-rule="nonzero"/><path fill="#937d4a" d="M 21.039062 23.03125 C 20.929688 23.007812 20.820312 23.007812 20.714844 22.980469 L 20.714844 22.144531 C 20.714844 21.847656 20.472656 21.605469 20.175781 21.605469 C 19.878906 21.605469 19.636719 21.847656 19.636719 22.144531 L 19.636719 22.980469 C 18.800781 23.085938 17.9375 23.410156 17.425781 24.136719 C 16.886719 24.894531 16.886719 25.917969 17.425781 26.753906 C 17.9375 27.535156 18.800781 27.859375 19.636719 28.101562 L 19.636719 30.984375 C 19.421875 30.929688 19.203125 30.875 19.015625 30.769531 C 18.367188 30.472656 17.910156 30.039062 17.722656 29.5 C 17.613281 29.230469 17.316406 29.070312 17.019531 29.179688 C 16.75 29.285156 16.589844 29.582031 16.699219 29.878906 C 16.996094 30.6875 17.667969 31.335938 18.558594 31.738281 C 18.90625 31.902344 19.257812 31.980469 19.636719 32.0625 L 19.636719 32.925781 C 19.636719 33.222656 19.878906 33.464844 20.175781 33.464844 C 20.472656 33.464844 20.714844 33.222656 20.714844 32.925781 L 20.714844 32.089844 C 21.0625 32.0625 21.441406 31.980469 21.765625 31.847656 C 23.058594 31.363281 23.707031 30.175781 23.300781 29.070312 C 22.898438 27.882812 21.765625 27.507812 20.714844 27.238281 L 20.714844 24.058594 C 20.769531 24.058594 20.792969 24.058594 20.847656 24.085938 C 21.65625 24.21875 22.410156 24.839844 22.628906 25.484375 C 22.707031 25.78125 23.03125 25.917969 23.300781 25.835938 C 23.597656 25.753906 23.734375 25.457031 23.652344 25.164062 C 23.328125 24.136719 22.222656 23.222656 21.039062 23.03125 Z M 18.316406 26.132812 C 18.019531 25.703125 18.019531 25.164062 18.289062 24.757812 C 18.585938 24.355469 19.070312 24.136719 19.636719 24.058594 L 19.636719 26.941406 C 19.070312 26.78125 18.585938 26.535156 18.316406 26.132812 Z M 22.304688 29.449219 C 22.519531 30.09375 21.980469 30.632812 21.386719 30.847656 C 21.171875 30.929688 20.957031 30.984375 20.742188 31.011719 L 20.742188 28.371094 C 21.550781 28.613281 22.089844 28.855469 22.304688 29.449219 Z M 22.304688 29.449219 " fill-opacity="0.4" fill-rule="nonzero"/><g clip-path="url(#c53c72a60d)"><path fill="#2d4356" d="M 36.886719 31.308594 C 36.589844 31.308594 36.347656 31.550781 36.347656 31.847656 L 36.347656 35.082031 L 27.53125 35.082031 C 26.96875 35.511719 26.375 35.863281 25.726562 36.160156 L 36.347656 36.160156 L 36.347656 36.699219 C 36.347656 36.996094 36.105469 37.238281 35.808594 37.238281 L 4.542969 37.238281 C 4.246094 37.238281 4.003906 36.996094 4.003906 36.699219 L 4.003906 36.160156 L 14.621094 36.160156 C 13.976562 35.863281 13.382812 35.511719 12.816406 35.082031 L 4.003906 35.082031 L 4.003906 15.675781 C 4.003906 15.378906 4.246094 15.136719 4.542969 15.136719 L 16.050781 15.136719 C 16.132812 15.027344 16.1875 14.921875 16.265625 14.8125 C 15.996094 14.625 15.808594 14.355469 15.699219 14.058594 L 4.542969 14.058594 C 3.652344 14.058594 2.925781 14.785156 2.925781 15.675781 L 2.925781 36.699219 C 2.925781 37.585938 3.652344 38.316406 4.542969 38.316406 L 18.019531 38.316406 L 18.019531 40.472656 L 16.132812 40.472656 C 15.835938 40.472656 15.59375 40.714844 15.59375 41.011719 C 15.59375 41.308594 15.835938 41.550781 16.132812 41.550781 L 24.21875 41.550781 C 24.515625 41.550781 24.757812 41.308594 24.757812 41.011719 C 24.757812 40.714844 24.515625 40.472656 24.21875 40.472656 L 22.332031 40.472656 L 22.332031 38.316406 L 35.808594 38.316406 C 36.695312 38.316406 37.425781 37.585938 37.425781 36.699219 L 37.425781 31.847656 C 37.425781 31.550781 37.183594 31.308594 36.886719 31.308594 Z M 19.097656 40.472656 L 19.097656 38.316406 L 21.253906 38.316406 L 21.253906 40.472656 Z M 19.097656 40.472656 " fill-opacity="1" fill-rule="nonzero"/></g><g clip-path="url(#30bd1e22cd)"><path fill="#2d4356" d="M 35.808594 14.058594 L 24.675781 14.058594 C 24.566406 14.355469 24.378906 14.625 24.109375 14.8125 C 24.191406 14.921875 24.246094 15.027344 24.324219 15.136719 L 35.808594 15.136719 C 36.105469 15.136719 36.347656 15.378906 36.347656 15.675781 L 36.347656 27.535156 C 36.347656 27.832031 36.589844 28.074219 36.886719 28.074219 C 37.183594 28.074219 37.425781 27.832031 37.425781 27.535156 L 37.425781 15.675781 C 37.425781 14.785156 36.695312 14.058594 35.808594 14.058594 Z M 35.808594 14.058594 " fill-opacity="1" fill-rule="nonzero"/></g><path fill="#937d4a" d="M 28.503906 29.125 C 28.261719 32.953125 24.8125 35.109375 21.496094 35.296875 C 21.386719 35.296875 18.933594 35.296875 18.828125 35.296875 C 15.511719 35.109375 12.0625 32.925781 11.820312 29.125 C 11.792969 28.71875 11.792969 28.34375 11.820312 27.964844 C 11.820312 27.992188 11.820312 28.019531 11.820312 28.046875 C 12.0625 31.875 15.511719 33.761719 18.828125 33.949219 C 19.230469 33.976562 19.582031 34.003906 19.960938 34.003906 L 20.066406 34.003906 C 20.066406 34.003906 21.0625 33.976562 21.496094 33.949219 C 24.8125 33.761719 28.261719 31.847656 28.503906 28.046875 C 28.503906 28.019531 28.503906 27.992188 28.503906 27.964844 C 28.53125 28.34375 28.53125 28.71875 28.503906 29.125 Z M 28.503906 29.125 " fill-opacity="0.4" fill-rule="nonzero"/><path fill="#f4dcbd" d="M 28.503906 29.042969 C 28.339844 26.050781 26.832031 23.519531 25.1875 21.253906 C 25 21.011719 24.835938 20.769531 24.648438 20.527344 C 23.894531 19.476562 23.140625 18.398438 22.386719 17.320312 L 17.910156 17.320312 C 17.183594 18.425781 16.402344 19.503906 15.648438 20.554688 C 15.457031 20.796875 15.296875 21.039062 15.132812 21.28125 C 13.492188 23.570312 11.980469 26.078125 11.820312 29.097656 C 11.628906 25.621094 13.300781 22.761719 15.132812 20.203125 C 15.324219 19.960938 15.484375 19.71875 15.648438 19.476562 C 16.402344 18.425781 17.183594 17.347656 17.910156 16.242188 L 22.410156 16.242188 C 23.140625 17.347656 23.921875 18.425781 24.675781 19.449219 C 24.863281 19.691406 25.027344 19.933594 25.214844 20.175781 C 27.046875 22.710938 28.71875 25.566406 28.503906 29.042969 Z M 28.503906 29.042969 " fill-opacity="0.6" fill-rule="nonzero"/><path fill="#2d4356" d="M 26.078125 19.527344 C 25.027344 18.074219 23.976562 16.644531 23.003906 15.136719 L 17.34375 15.136719 C 16.375 16.644531 15.324219 18.074219 14.273438 19.527344 C 12.222656 22.386719 10.550781 25.433594 10.769531 29.179688 C 11.039062 33.679688 15.109375 35.890625 18.800781 36.105469 C 19.203125 36.132812 19.582031 36.160156 19.984375 36.160156 C 20.039062 36.160156 20.066406 36.160156 20.09375 36.160156 C 20.175781 36.160156 20.230469 36.160156 20.308594 36.160156 C 20.742188 36.160156 21.144531 36.132812 21.578125 36.105469 C 25.269531 35.890625 29.3125 33.679688 29.609375 29.179688 C 29.824219 25.433594 28.125 22.386719 26.078125 19.527344 Z M 28.503906 29.125 C 28.261719 32.953125 24.8125 34.839844 21.496094 35.027344 C 21.0625 35.054688 20.6875 35.082031 20.28125 35.082031 C 20.230469 35.082031 20.148438 35.082031 20.09375 35.082031 L 19.960938 35.082031 C 19.609375 35.082031 19.230469 35.054688 18.828125 35.027344 C 15.511719 34.839844 12.0625 32.925781 11.820312 29.125 C 11.605469 25.59375 13.273438 22.738281 15.109375 20.175781 C 15.296875 19.933594 15.457031 19.691406 15.621094 19.449219 C 16.375 18.398438 17.15625 17.320312 17.882812 16.214844 L 22.386719 16.214844 C 23.113281 17.320312 23.894531 18.398438 24.648438 19.421875 C 24.835938 19.664062 25 19.90625 25.1875 20.148438 C 27.046875 22.738281 28.746094 25.59375 28.503906 29.125 Z M 28.503906 29.125 " fill-opacity="1" fill-rule="nonzero"/><path fill="#f4dcbd" d="M 22.925781 8.910156 C 22.65625 9.367188 22.410156 9.824219 22.222656 10.339844 C 21.953125 10.445312 21.683594 10.5 21.359375 10.5 C 21.171875 10.5 21.011719 10.472656 20.820312 10.445312 C 20.28125 10.339844 19.933594 10.015625 19.714844 9.773438 C 19.714844 9.773438 19.691406 9.800781 19.691406 9.800781 C 19.582031 9.878906 19.472656 9.988281 19.339844 10.09375 C 18.960938 10.363281 18.585938 10.554688 18.179688 10.609375 C 17.992188 10.203125 17.804688 9.851562 17.613281 9.554688 C 17.640625 9.554688 17.667969 9.554688 17.695312 9.554688 C 17.722656 9.554688 17.777344 9.554688 17.804688 9.554688 C 17.828125 9.554688 17.882812 9.554688 17.910156 9.554688 C 18.394531 9.53125 18.882812 9.339844 19.3125 9.015625 C 19.449219 8.9375 19.554688 8.828125 19.664062 8.722656 C 19.664062 8.722656 19.691406 8.695312 19.691406 8.695312 C 19.90625 8.9375 20.230469 9.261719 20.796875 9.367188 C 20.984375 9.394531 21.144531 9.421875 21.335938 9.421875 C 21.359375 9.421875 21.386719 9.421875 21.441406 9.421875 C 22.035156 9.394531 22.519531 9.152344 22.925781 8.910156 Z M 22.925781 8.910156 " fill-opacity="0.6" fill-rule="nonzero"/><path fill="#2d4356" d="M 21.039062 22.492188 C 20.929688 22.46875 20.820312 22.46875 20.714844 22.441406 L 20.714844 21.605469 C 20.714844 21.308594 20.472656 21.066406 20.175781 21.066406 C 19.878906 21.066406 19.636719 21.308594 19.636719 21.605469 L 19.636719 22.441406 C 18.800781 22.546875 17.9375 22.871094 17.425781 23.597656 C 16.886719 24.355469 16.886719 25.378906 17.425781 26.214844 C 17.9375 26.996094 18.800781 27.320312 19.636719 27.5625 L 19.636719 30.445312 C 19.421875 30.390625 19.203125 30.335938 19.015625 30.230469 C 18.367188 29.933594 17.910156 29.5 17.722656 28.960938 C 17.613281 28.691406 17.316406 28.53125 17.019531 28.640625 C 16.75 28.746094 16.589844 29.042969 16.699219 29.339844 C 16.996094 30.148438 17.667969 30.796875 18.558594 31.199219 C 18.90625 31.363281 19.257812 31.441406 19.636719 31.523438 L 19.636719 32.386719 C 19.636719 32.683594 19.878906 32.925781 20.175781 32.925781 C 20.472656 32.925781 20.714844 32.683594 20.714844 32.386719 L 20.714844 31.550781 C 21.0625 31.523438 21.441406 31.441406 21.765625 31.308594 C 23.058594 30.824219 23.707031 29.636719 23.300781 28.53125 C 22.898438 27.34375 21.765625 26.96875 20.714844 26.699219 L 20.714844 23.519531 C 20.769531 23.519531 20.792969 23.519531 20.847656 23.546875 C 21.65625 23.679688 22.410156 24.300781 22.628906 24.945312 C 22.707031 25.242188 23.03125 25.378906 23.300781 25.296875 C 23.597656 25.214844 23.734375 24.917969 23.652344 24.625 C 23.328125 23.597656 22.222656 22.683594 21.039062 22.492188 Z M 18.316406 25.59375 C 18.019531 25.164062 18.019531 24.625 18.289062 24.21875 C 18.585938 23.816406 19.070312 23.597656 19.636719 23.519531 L 19.636719 26.402344 C 19.070312 26.242188 18.585938 25.996094 18.316406 25.59375 Z M 22.304688 28.910156 C 22.519531 29.554688 21.980469 30.09375 21.386719 30.308594 C 21.171875 30.390625 20.957031 30.445312 20.742188 30.472656 L 20.742188 27.832031 C 21.550781 28.074219 22.089844 28.316406 22.304688 28.910156 Z M 22.304688 28.910156 " fill-opacity="1" fill-rule="nonzero"/></svg>