<svg xmlns="http://www.w3.org/2000/svg" xmlns:xlink="http://www.w3.org/1999/xlink" width="50" zoomAndPan="magnify" viewBox="0 0 37.5 37.499999" height="50" preserveAspectRatio="xMidYMid meet" version="1.0"><defs><clipPath id="f3c5809dd3"><path d="M 8.207031 22.746094 L 36.007812 22.746094 L 36.007812 37.007812 L 8.207031 37.007812 Z M 8.207031 22.746094 " clip-rule="nonzero"/></clipPath><clipPath id="b550e5bf22"><path d="M 1.523438 14 L 8 14 L 8 20 L 1.523438 20 Z M 1.523438 14 " clip-rule="nonzero"/></clipPath><clipPath id="043d0dc40c"><path d="M 4 24 L 10 24 L 10 37.007812 L 4 37.007812 Z M 4 24 " clip-rule="nonzero"/></clipPath></defs><g clip-path="url(#f3c5809dd3)"><path fill="#c9b7af" d="M 27.828125 22.753906 L 27.828125 25.183594 L 23.929688 25.183594 L 23.929688 27.613281 L 20.027344 27.613281 L 20.027344 30.046875 L 16.128906 30.046875 L 16.128906 32.476562 L 12.226562 32.476562 L 12.226562 34.90625 L 8.324219 34.90625 L 8.242188 37.503906 L 36.007812 37.472656 L 36.007812 22.753906 L 27.828125 22.753906 " fill-opacity="1" fill-rule="nonzero"/></g><g clip-path="url(#b550e5bf22)"><path fill="#366f88" d="M 6.644531 14.050781 C 6.644531 14.050781 4.332031 14.433594 3.496094 15.554688 C 2.664062 16.679688 2.40625 17.273438 2.140625 17.710938 C 1.875 18.152344 1.539062 18.472656 1.539062 18.472656 C 1.539062 18.472656 1.617188 18.746094 2.136719 18.730469 C 2.65625 18.714844 2.65625 18.714844 2.65625 18.714844 C 2.65625 18.714844 2.421875 18.957031 2.703125 19.0625 C 2.984375 19.171875 3.367188 19.160156 3.367188 19.160156 C 3.367188 19.160156 3.710938 16.878906 4.210938 16.160156 C 4.707031 15.441406 6.308594 14.414062 6.515625 14.40625 C 6.726562 14.398438 6.96875 14.429688 6.96875 14.429688 C 6.96875 14.429688 7.269531 14.03125 6.644531 14.050781 " fill-opacity="1" fill-rule="nonzero"/></g><path fill="#397e91" d="M 5.351562 14.464844 C 5.351562 14.464844 4.046875 14.960938 3.570312 16.058594 C 3.09375 17.15625 2.742188 18.582031 2.742188 18.582031 L 2.183594 18.601562 C 2.183594 18.601562 3.074219 16.574219 3.507812 15.894531 C 3.941406 15.210938 5.351562 14.464844 5.351562 14.464844 " fill-opacity="1" fill-rule="nonzero"/><path fill="#3f1e1c" d="M 6.828125 23.429688 L 6.851562 23.585938 L 6.746094 23.566406 L 6.71875 23.421875 L 6.828125 23.429688 " fill-opacity="1" fill-rule="nonzero"/><path fill="#3f1e1c" d="M 5.132812 23.046875 L 5.046875 23.179688 L 5.148438 23.207031 L 5.238281 23.089844 L 5.132812 23.046875 " fill-opacity="1" fill-rule="nonzero"/><path fill="#4b4e57" d="M 8.027344 27.609375 C 7.988281 27.785156 7.800781 27.890625 7.617188 27.847656 L 2.644531 26.703125 C 2.457031 26.660156 2.339844 26.484375 2.378906 26.308594 L 3.125 23.082031 C 3.167969 22.90625 3.351562 22.800781 3.535156 22.84375 L 8.507812 23.992188 C 8.695312 24.035156 8.8125 24.210938 8.773438 24.386719 L 8.027344 27.609375 " fill-opacity="1" fill-rule="nonzero"/><path fill="#050301" d="M 7.929688 27.519531 C 7.890625 27.6875 7.714844 27.792969 7.535156 27.75 L 2.761719 26.648438 C 2.582031 26.609375 2.46875 26.4375 2.507812 26.269531 L 3.222656 23.171875 C 3.261719 23.003906 3.4375 22.902344 3.617188 22.945312 L 8.390625 24.042969 C 8.570312 24.085938 8.683594 24.253906 8.644531 24.421875 L 7.929688 27.519531 " fill-opacity="1" fill-rule="nonzero"/><path fill="#050301" d="M 6.886719 22.769531 C 6.886719 22.769531 6.46875 22.605469 6.144531 22.53125 C 5.824219 22.457031 5.375 22.421875 5.375 22.421875 L 5.089844 23.0625 L 5.261719 23.15625 C 5.261719 23.15625 5.527344 22.765625 5.636719 22.714844 C 5.675781 22.699219 6.042969 22.828125 6.074219 22.832031 C 6.101562 22.839844 6.492188 22.886719 6.523438 22.921875 C 6.597656 23.011719 6.664062 23.480469 6.664062 23.480469 L 6.859375 23.472656 L 6.886719 22.769531 " fill-opacity="1" fill-rule="nonzero"/><path fill="#e89643" d="M 5.238281 23.238281 L 4.832031 23.144531 L 4.839844 23.101562 L 5.246094 23.195312 L 5.238281 23.238281 " fill-opacity="1" fill-rule="nonzero"/><path fill="#e89643" d="M 7.058594 23.65625 L 6.652344 23.5625 L 6.660156 23.523438 L 7.066406 23.617188 L 7.058594 23.65625 " fill-opacity="1" fill-rule="nonzero"/><path fill="#a26749" d="M 6.476562 12.554688 C 6.476562 12.554688 6.800781 13.46875 6.800781 13.878906 C 6.800781 14.289062 6.566406 14.613281 6.566406 14.613281 L 7.566406 16.316406 L 8.566406 16.316406 C 8.566406 16.316406 7.769531 14.9375 7.769531 14.40625 C 7.769531 13.878906 8.183594 12.910156 8.183594 12.910156 L 6.476562 12.554688 " fill-opacity="1" fill-rule="nonzero"/><path fill="#824932" d="M 8.183594 12.910156 L 6.90625 12.644531 C 6.757812 12.6875 6.644531 12.773438 6.597656 12.925781 C 6.632812 13.039062 6.667969 13.167969 6.703125 13.296875 C 6.859375 13.464844 7.15625 13.71875 7.546875 13.785156 C 7.664062 13.804688 7.769531 13.824219 7.863281 13.839844 C 7.984375 13.375 8.183594 12.910156 8.183594 12.910156 " fill-opacity="1" fill-rule="nonzero"/><g clip-path="url(#043d0dc40c)"><path fill="#050301" d="M 6.9375 24.988281 L 7.027344 29.625 C 7.027344 29.625 6.175781 30.445312 6.003906 31.5625 C 5.820312 32.761719 5.453125 34.851562 5.082031 35.164062 C 4.707031 35.476562 4.503906 35.515625 4.550781 35.890625 C 4.597656 36.265625 4.425781 36.984375 4.425781 36.984375 L 4.578125 37.019531 C 4.578125 37.019531 4.675781 36.300781 4.789062 36.335938 C 4.90625 36.371094 5.222656 36.816406 5.304688 37 C 5.386719 37.1875 7.066406 37.257812 7.066406 37.257812 L 7.0625 37.109375 C 7.0625 37.109375 6.058594 36.605469 5.941406 36.535156 C 5.824219 36.460938 5.648438 35.449219 6.371094 33.960938 C 7.097656 32.472656 8.925781 29.683594 8.953125 29.265625 C 8.980469 28.851562 9.546875 24.199219 9.546875 24.199219 L 6.9375 24.988281 " fill-opacity="1" fill-rule="nonzero"/></g><path fill="#050301" d="M 8.398438 24.289062 L 10.988281 27.671875 C 10.988281 27.671875 10.441406 28.597656 10.277344 29.839844 C 10.121094 31.042969 9.84375 32.847656 9.496094 33.195312 C 9.152344 33.542969 8.855469 33.515625 8.9375 33.886719 C 9.015625 34.253906 8.90625 34.988281 8.90625 34.988281 L 9.0625 35.007812 C 9.0625 35.007812 9.097656 34.28125 9.214844 34.304688 C 9.332031 34.328125 9.6875 34.738281 9.785156 34.917969 C 9.882812 35.09375 11.570312 34.996094 11.570312 34.996094 L 11.554688 34.847656 C 11.554688 34.847656 10.503906 34.449219 10.382812 34.386719 C 10.261719 34.328125 9.984375 33.296875 10.726562 31.800781 C 11.484375 30.269531 12.917969 27.058594 12.90625 26.640625 C 12.898438 26.226562 9.59375 22.582031 9.59375 22.582031 L 8.398438 24.289062 " fill-opacity="1" fill-rule="nonzero"/><path fill="#181c3b" d="M 6.046875 20.394531 C 6.046875 20.394531 5.171875 22.53125 5.351562 23.128906 C 5.53125 23.730469 6.695312 26.132812 6.695312 26.132812 L 6.675781 27.863281 L 7.203125 27.890625 L 7.207031 26.457031 L 7.898438 28.039062 C 7.898438 28.039062 9.675781 27.761719 10.96875 26.6875 C 12.257812 25.617188 12.308594 25.03125 12.308594 25.03125 L 9.378906 21.34375 L 8.746094 19.984375 L 6.046875 20.394531 " fill-opacity="1" fill-rule="nonzero"/><path fill="#121329" d="M 9.078125 20.917969 L 6.28125 20.464844 C 6.28125 20.464844 6.128906 20.535156 5.945312 20.652344 C 5.847656 20.902344 5.703125 21.300781 5.574219 21.71875 C 5.796875 21.753906 6.269531 21.792969 7.132812 21.726562 C 8.4375 21.621094 9.242188 21.1875 9.242188 21.1875 L 9.078125 20.917969 " fill-opacity="1" fill-rule="nonzero"/><path fill="#181c3b" d="M 7.816406 14.136719 C 7.816406 14.136719 8.042969 14.21875 8.230469 14.527344 C 8.414062 14.839844 8.789062 15.230469 8.789062 15.230469 L 8.4375 15.3125 L 8.765625 15.605469 L 8.476562 16.742188 C 8.476562 16.742188 8.25 14.40625 7.816406 14.136719 " fill-opacity="1" fill-rule="nonzero"/><path fill="#181c3b" d="M 5.785156 14.609375 L 6.675781 14.113281 L 6.820312 13.910156 L 8.023438 14.496094 C 8.023438 14.496094 9.472656 16.863281 9.449219 17.300781 C 9.4375 17.582031 8.933594 18.066406 8.933594 18.066406 L 8.601562 19.699219 L 9.367188 21.0625 C 9.367188 21.0625 8.613281 21.507812 7.277344 21.539062 C 5.941406 21.570312 5.414062 21.433594 5.414062 21.433594 L 6.160156 19.988281 L 5.101562 16.78125 C 5.101562 16.78125 4.855469 15.664062 5.785156 14.609375 " fill-opacity="1" fill-rule="nonzero"/><path fill="#fab639" d="M 6.996094 14.363281 C 6.996094 14.363281 7.492188 14.828125 7.898438 15.695312 C 8.300781 16.566406 8.332031 17.0625 8.332031 17.0625 C 8.332031 17.0625 8.300781 16.347656 8.238281 15.636719 C 8.175781 14.921875 8.054688 14.550781 8.054688 14.550781 L 6.996094 14.363281 " fill-opacity="1" fill-rule="nonzero"/><path fill="#3f1e1c" d="M 6.285156 11.789062 C 6.285156 11.789062 6.054688 12.210938 6.289062 12.371094 C 6.523438 12.527344 6.578125 12.453125 6.578125 12.453125 C 6.578125 12.453125 6.292969 12.949219 6.699219 13.066406 C 7.105469 13.183594 7.296875 12.804688 7.296875 12.804688 C 7.296875 12.804688 7.492188 13.035156 7.664062 12.871094 C 7.835938 12.710938 7.785156 12.640625 7.785156 12.640625 C 7.785156 12.640625 8.222656 13.328125 8.789062 12.953125 C 9.351562 12.578125 8.878906 11.964844 8.878906 11.964844 C 8.878906 11.964844 9.210938 12.105469 9.246094 11.816406 C 9.28125 11.527344 9.140625 11.5625 9.140625 11.5625 C 9.140625 11.5625 9.648438 11.445312 9.609375 11.15625 C 9.566406 10.863281 9.222656 10.777344 9.222656 10.777344 C 9.222656 10.777344 9.359375 10.808594 9.375 10.6875 C 9.394531 10.566406 9.210938 10.476562 9.210938 10.476562 C 9.210938 10.476562 9.375 10.351562 9.222656 10.179688 C 9.070312 10.003906 8.796875 10.109375 8.796875 10.109375 C 8.796875 10.109375 8.9375 9.859375 8.714844 9.742188 C 8.492188 9.621094 8.082031 9.785156 8.082031 9.785156 L 7.191406 10.105469 L 5.015625 10.773438 C 5.015625 10.773438 5.441406 12.117188 6.285156 11.789062 " fill-opacity="1" fill-rule="nonzero"/><path fill="#3f1e1c" d="M 6.054688 10.257812 C 6.054688 10.257812 5.820312 9.816406 5.496094 9.90625 C 5.171875 9.992188 5.203125 10.082031 5.203125 10.082031 C 5.203125 10.082031 4.9375 9.550781 4.523438 9.800781 C 4.113281 10.050781 4.332031 10.433594 4.332031 10.433594 C 4.332031 10.433594 3.964844 10.449219 3.996094 10.683594 C 4.023438 10.917969 4.128906 10.917969 4.128906 10.917969 C 4.128906 10.917969 3.140625 10.84375 3.082031 11.519531 C 3.023438 12.195312 3.964844 12.195312 3.964844 12.195312 C 3.964844 12.195312 3.582031 12.375 3.832031 12.578125 C 4.082031 12.785156 4.15625 12.652344 4.15625 12.652344 C 4.15625 12.652344 3.890625 13.121094 4.203125 13.269531 C 4.511719 13.417969 4.847656 13.195312 4.847656 13.195312 C 4.847656 13.195312 4.714844 13.285156 4.820312 13.371094 C 4.921875 13.460938 5.144531 13.371094 5.144531 13.371094 C 5.144531 13.371094 5.144531 13.578125 5.421875 13.5625 C 5.703125 13.546875 5.804688 13.269531 5.804688 13.269531 C 5.804688 13.269531 5.9375 13.535156 6.21875 13.429688 C 6.496094 13.328125 6.644531 12.902344 6.644531 12.902344 L 6.996094 12.007812 L 7.96875 9.875 C 7.96875 9.875 6.363281 9.390625 6.054688 10.257812 " fill-opacity="1" fill-rule="nonzero"/><path fill="#a26749" d="M 6.183594 11.820312 C 6.183594 11.820312 5.769531 11.585938 5.886719 12.175781 C 6.007812 12.761719 6.183594 12.792969 6.300781 12.792969 C 6.417969 12.792969 6.417969 12.792969 6.417969 12.792969 C 6.417969 12.792969 6.859375 13.496094 7.507812 13.554688 C 8.152344 13.613281 9.035156 13.289062 9.09375 12.703125 C 9.15625 12.117188 8.949219 10.441406 8.359375 9.851562 C 7.769531 9.265625 5.917969 10 6.183594 11.820312 " fill-opacity="1" fill-rule="nonzero"/><path fill="#ffffff" d="M 6.964844 11.1875 C 6.964844 11.1875 7.273438 11.40625 7.417969 11.320312 C 7.566406 11.230469 7.640625 11.039062 7.640625 11.039062 C 7.640625 11.039062 7.566406 10.453125 7.242188 10.480469 C 6.917969 10.511719 6.949219 11.097656 6.964844 11.1875 " fill-opacity="1" fill-rule="nonzero"/><path fill="#050301" d="M 7.613281 10.972656 C 7.613281 11.039062 7.574219 11.09375 7.53125 11.09375 C 7.484375 11.09375 7.445312 11.039062 7.445312 10.972656 C 7.445312 10.90625 7.484375 10.855469 7.53125 10.855469 C 7.574219 10.855469 7.613281 10.90625 7.613281 10.972656 " fill-opacity="1" fill-rule="nonzero"/><path fill="#ffffff" d="M 8.109375 10.746094 C 8.109375 10.746094 8.390625 10.933594 8.519531 10.855469 C 8.648438 10.773438 8.710938 10.601562 8.710938 10.601562 C 8.710938 10.601562 8.632812 10.078125 8.34375 10.109375 C 8.054688 10.140625 8.09375 10.667969 8.109375 10.746094 " fill-opacity="1" fill-rule="nonzero"/><path fill="#050301" d="M 8.636719 10.480469 C 8.640625 10.539062 8.605469 10.585938 8.566406 10.585938 C 8.523438 10.589844 8.492188 10.542969 8.488281 10.484375 C 8.488281 10.421875 8.519531 10.375 8.5625 10.375 C 8.601562 10.375 8.636719 10.421875 8.636719 10.480469 " fill-opacity="1" fill-rule="nonzero"/><path fill="#3f1e1c" d="M 7.320312 12.175781 C 7.425781 12.46875 7.835938 12.5625 8.191406 12.527344 C 8.347656 12.511719 8.5 12.46875 8.628906 12.394531 C 8.796875 12.292969 8.859375 12.121094 8.898438 11.964844 C 8.902344 11.949219 8.8125 11.960938 8.808594 11.980469 C 8.734375 12.265625 8.5625 12.484375 8.144531 12.503906 C 7.828125 12.519531 7.5 12.40625 7.414062 12.15625 C 7.40625 12.140625 7.316406 12.160156 7.320312 12.175781 " fill-opacity="1" fill-rule="nonzero"/><path fill="#824932" d="M 7.710938 10.027344 L 8.066406 11.085938 C 8.066406 11.085938 8.449219 10.703125 8.566406 11.117188 C 8.683594 11.527344 8.273438 11.675781 8.273438 11.675781 C 8.273438 11.675781 8.566406 11.425781 8.476562 11.175781 C 8.390625 10.925781 8.050781 11.21875 8.050781 11.21875 L 7.710938 10.027344 " fill-opacity="1" fill-rule="nonzero"/><path fill="#824932" d="M 6.257812 11.996094 C 6.257812 11.996094 6.09375 11.867188 6.050781 12.027344 C 6.007812 12.1875 6.125 12.496094 6.125 12.496094 C 6.125 12.496094 6.078125 12.160156 6.136719 12.085938 C 6.199219 12.011719 6.316406 12.117188 6.316406 12.117188 C 6.316406 12.117188 6.386719 12.042969 6.257812 11.996094 " fill-opacity="1" fill-rule="nonzero"/><path fill="#824932" d="M 6.328125 12.277344 C 6.328125 12.277344 6.199219 12.335938 6.269531 12.378906 C 6.34375 12.425781 6.300781 12.496094 6.300781 12.496094 C 6.300781 12.496094 6.285156 12.554688 6.328125 12.554688 C 6.375 12.554688 6.433594 12.363281 6.328125 12.277344 " fill-opacity="1" fill-rule="nonzero"/><path fill="#3f1e1c" d="M 6.058594 9.542969 C 6.058594 9.542969 5.898438 9.722656 6.074219 9.882812 C 6.253906 10.042969 6.367188 9.957031 6.367188 9.957031 C 6.367188 9.957031 6.285156 10.160156 6.609375 10.292969 C 6.9375 10.425781 7.277344 10.160156 7.277344 10.160156 C 7.277344 10.160156 7.421875 10.265625 7.617188 10.148438 C 7.8125 10.027344 7.8125 9.957031 7.8125 9.957031 C 7.8125 9.957031 8.085938 9.957031 8.105469 9.867188 C 8.121094 9.78125 8.121094 9.78125 8.121094 9.78125 C 8.121094 9.78125 8.558594 9.691406 8.476562 9.382812 C 8.394531 9.074219 7.910156 8.914062 7.910156 8.914062 C 7.910156 8.914062 7.988281 8.691406 7.796875 8.632812 C 7.601562 8.574219 7.519531 8.707031 7.519531 8.707031 C 7.519531 8.707031 7.4375 8.5 7.226562 8.515625 C 7.015625 8.53125 6.9375 8.78125 6.9375 8.78125 C 6.9375 8.78125 6.675781 8.324219 6.269531 8.589844 C 5.863281 8.855469 6.125 9.148438 6.125 9.148438 C 6.125 9.148438 5.800781 9.191406 6.058594 9.542969 " fill-opacity="1" fill-rule="nonzero"/><path fill="#fab639" d="M 6.292969 12.636719 L 6.351562 12.757812 L 6.484375 12.777344 L 6.390625 12.871094 L 6.410156 13 L 6.292969 12.9375 L 6.171875 13 L 6.195312 12.871094 L 6.101562 12.777344 L 6.234375 12.757812 L 6.292969 12.636719 " fill-opacity="1" fill-rule="nonzero"/><path fill="#050301" d="M 6.957031 10.972656 C 6.957031 10.972656 6.957031 10.570312 7.109375 10.515625 C 7.265625 10.464844 7.378906 10.464844 7.378906 10.464844 L 7.535156 10.382812 L 7.433594 10.507812 L 7.617188 10.464844 L 7.484375 10.546875 C 7.484375 10.546875 7.078125 10.464844 6.957031 10.972656 " fill-opacity="1" fill-rule="nonzero"/><path fill="#050301" d="M 8.085938 10.570312 C 8.085938 10.570312 8.085938 10.171875 8.222656 10.121094 C 8.359375 10.070312 8.460938 10.070312 8.460938 10.070312 L 8.601562 9.988281 L 8.507812 10.113281 L 8.675781 10.070312 L 8.554688 10.152344 C 8.554688 10.152344 8.195312 10.070312 8.085938 10.570312 " fill-opacity="1" fill-rule="nonzero"/><path fill="#a26749" d="M 13.246094 15.550781 C 13.3125 15.445312 13.269531 15.332031 13.28125 15.21875 C 13.289062 15.132812 13.367188 15.039062 13.386719 14.953125 C 13.421875 14.8125 13.421875 14.78125 13.410156 14.589844 C 13.402344 14.441406 13.371094 14.277344 13.488281 14.285156 C 13.722656 14.300781 13.703125 14.425781 13.683594 14.65625 C 13.671875 14.765625 13.703125 14.90625 13.769531 14.929688 C 13.875 14.96875 14.066406 14.816406 14.171875 14.734375 C 14.355469 14.601562 14.503906 14.449219 14.667969 14.300781 C 14.871094 14.121094 15.011719 14.292969 14.894531 14.445312 C 14.726562 14.671875 14.558594 14.835938 14.320312 15 C 14.320312 15 14.28125 15.0625 14.328125 15.0625 C 14.375 15.0625 14.910156 14.652344 15.207031 14.433594 C 15.363281 14.320312 15.554688 14.550781 15.394531 14.667969 C 15.085938 14.894531 14.8125 15.117188 14.496094 15.339844 C 14.511719 15.363281 14.488281 15.355469 14.496094 15.378906 C 14.773438 15.273438 15.054688 15.152344 15.257812 14.9375 C 15.390625 14.800781 15.546875 14.976562 15.414062 15.117188 C 15.152344 15.386719 14.910156 15.511719 14.574219 15.648438 C 14.574219 15.65625 14.582031 15.683594 14.582031 15.6875 C 14.761719 15.714844 14.988281 15.523438 15.171875 15.472656 C 15.347656 15.421875 15.351562 15.621094 15.195312 15.703125 C 14.917969 15.859375 14.886719 15.898438 14.414062 15.980469 C 14.070312 16.109375 13.824219 16.085938 13.539062 16.132812 C 13.210938 16.1875 12.082031 17.207031 12.082031 17.207031 L 11.304688 16.230469 C 11.441406 16.285156 12.773438 15.804688 12.914062 15.742188 C 13.011719 15.703125 13.179688 15.65625 13.246094 15.550781 " fill-opacity="1" fill-rule="nonzero"/><path fill="#121329" d="M 9.449219 17.300781 C 9.457031 17.167969 9.375 16.941406 9.261719 16.695312 C 8.328125 16.027344 7.09375 15.257812 6.542969 15.40625 C 6.542969 15.40625 5.804688 16.0625 5.953125 16.832031 C 6.042969 17.277344 7.574219 17.992188 8.839844 18.515625 L 8.933594 18.066406 C 8.933594 18.066406 9.4375 17.582031 9.449219 17.300781 " fill-opacity="1" fill-rule="nonzero"/><path fill="#fab639" d="M 8.1875 17.507812 L 8.539062 19.058594 L 8.519531 17.566406 Z M 8.1875 17.507812 " fill-opacity="1" fill-rule="nonzero"/><path fill="#181c3b" d="M 5.609375 14.941406 C 5.609375 14.941406 4.957031 15.6875 5.207031 16.429688 C 5.453125 17.175781 10.050781 18.167969 10.050781 18.167969 L 13.15625 17.113281 L 12.597656 15.75 L 10.050781 16.617188 L 9.742188 16.617188 C 9.742188 16.617188 6.511719 14.570312 5.609375 14.941406 " fill-opacity="1" fill-rule="nonzero"/><path fill="#366f88" d="M 6.765625 13.742188 C 6.765625 13.742188 6.941406 14.023438 7.40625 14.023438 C 7.871094 14.023438 8.074219 13.898438 8.074219 13.898438 C 8.074219 13.898438 8.074219 14.300781 8.105469 14.425781 C 8.132812 14.550781 8.019531 14.703125 7.929688 14.703125 C 7.84375 14.703125 7.640625 14.796875 7.144531 14.609375 C 6.648438 14.425781 6.5625 14.207031 6.5625 14.207031 C 6.5625 14.207031 6.5625 13.648438 6.765625 13.742188 " fill-opacity="1" fill-rule="nonzero"/><path fill="#397e91" d="M 6.675781 13.929688 C 6.675781 13.929688 6.59375 14.03125 7.007812 14.15625 C 7.421875 14.28125 7.792969 14.09375 7.792969 14.09375 C 7.792969 14.09375 6.78125 14.09375 6.675781 13.929688 " fill-opacity="1" fill-rule="nonzero"/><path fill="#a26749" d="M 26.519531 14.316406 C 26.519531 14.316406 25.695312 16.566406 25.570312 17.605469 C 25.449219 18.640625 25.800781 22.6875 25.621094 23.144531 C 25.445312 23.605469 24.839844 24.382812 24.839844 24.382812 C 24.839844 24.382812 25.238281 24.664062 25.523438 24.492188 C 25.8125 24.320312 26.050781 23.882812 26.214844 23.859375 C 26.382812 23.832031 26.542969 23.664062 26.578125 23.417969 C 26.617188 23.167969 26.097656 23.03125 26.234375 22.78125 C 26.375 22.53125 27.59375 20.449219 27.714844 19.265625 C 27.835938 18.085938 27.4375 17.792969 27.4375 17.792969 L 29.449219 14.796875 L 26.519531 14.316406 " fill-opacity="1" fill-rule="nonzero"/><path fill="#050301" d="M 24.949219 24.253906 C 24.949219 24.253906 24.246094 24.699219 24.4375 24.804688 C 24.628906 24.910156 25.359375 25.054688 25.601562 24.777344 C 25.84375 24.503906 25.953125 23.839844 26.171875 23.910156 C 26.386719 23.980469 26.328125 24.546875 26.328125 24.546875 L 26.496094 24.46875 C 26.496094 24.46875 26.40625 24.167969 26.476562 23.972656 C 26.546875 23.777344 26.765625 23.570312 26.65625 23.390625 C 26.550781 23.214844 26.386719 23.109375 26.386719 23.109375 C 26.386719 23.109375 25.890625 24.09375 25.671875 24.304688 C 25.453125 24.511719 25 24.433594 24.949219 24.253906 " fill-opacity="1" fill-rule="nonzero"/><path fill="#a26749" d="M 28.5 14.203125 C 28.5 14.203125 28.023438 18.050781 28.390625 18.449219 C 28.761719 18.847656 29.425781 19.378906 30.078125 20.09375 C 30.730469 20.8125 31.207031 21.226562 31.203125 21.660156 C 31.203125 22.097656 31.226562 22.632812 31.226562 22.632812 L 32.117188 22.636719 C 32.117188 22.636719 32.1875 21.886719 32.113281 21.621094 C 32.039062 21.355469 31.6875 21.308594 31.609375 20.484375 C 31.53125 19.660156 31.421875 18.050781 31.015625 17.738281 C 30.609375 17.421875 30.242188 17.085938 30.242188 17.085938 L 31.628906 14.128906 L 28.5 14.203125 " fill-opacity="1" fill-rule="nonzero"/><path fill="#050301" d="M 31.082031 22.453125 C 31.082031 22.453125 31.386719 22.316406 31.824219 22.390625 C 32.265625 22.464844 32.089844 22.75 32.089844 22.75 C 32.089844 22.75 30.765625 23.085938 31.082031 22.453125 " fill-opacity="1" fill-rule="nonzero"/><path fill="#a26749" d="M 20.511719 11.4375 C 20.394531 11.433594 20.320312 11.335938 20.21875 11.285156 C 20.140625 11.246094 20.027344 11.257812 19.949219 11.230469 C 19.8125 11.183594 19.785156 11.167969 19.621094 11.054688 C 19.496094 10.972656 19.367188 10.859375 19.328125 10.957031 C 19.25 11.15625 19.367188 11.207031 19.574219 11.3125 C 19.667969 11.363281 19.777344 11.460938 19.769531 11.527344 C 19.757812 11.632812 19.554688 11.707031 19.445312 11.75 C 19.261719 11.820312 19.078125 11.859375 18.894531 11.910156 C 18.671875 11.976562 18.765625 12.179688 18.9375 12.171875 C 19.1875 12.15625 19.382812 12.109375 19.613281 12.007812 C 19.613281 12.007812 19.679688 12.007812 19.660156 12.046875 C 19.640625 12.082031 19.105469 12.289062 18.816406 12.410156 C 18.667969 12.472656 18.796875 12.746094 18.945312 12.683594 C 19.238281 12.5625 19.523438 12.464844 19.824219 12.335938 C 19.839844 12.355469 19.839844 12.332031 19.855469 12.355469 C 19.664062 12.519531 19.460938 12.675781 19.214844 12.722656 C 19.054688 12.75 19.144531 12.972656 19.304688 12.941406 C 19.617188 12.882812 19.804688 12.757812 20.046875 12.566406 C 20.050781 12.570312 20.070312 12.589844 20.074219 12.59375 C 20.027344 12.75 19.789062 12.828125 19.675781 12.945312 C 19.574219 13.058594 19.726562 13.167969 19.851562 13.09375 C 20.078125 12.953125 20.121094 12.949219 20.375 12.617188 C 20.617188 12.410156 20.703125 12.195312 20.863281 11.992188 C 21.054688 11.75 22.421875 11.371094 22.421875 11.371094 L 22.011719 10.195312 C 21.988281 10.335938 20.933594 11.183594 20.820312 11.265625 C 20.742188 11.324219 20.628906 11.4375 20.511719 11.4375 " fill-opacity="1" fill-rule="nonzero"/><path fill="#824932" d="M 19.609375 11.929688 C 19.609375 11.929688 19.824219 12.328125 19.960938 12.460938 C 20.097656 12.59375 20.097656 12.59375 20.097656 12.59375 C 20.097656 12.59375 19.765625 12.023438 19.609375 11.929688 " fill-opacity="1" fill-rule="nonzero"/><path fill="#824932" d="M 19.878906 11.65625 C 19.878906 11.65625 19.941406 11.78125 20.097656 11.832031 C 20.253906 11.886719 20.425781 11.941406 20.425781 11.941406 L 20.265625 12.207031 L 20.238281 12.027344 C 20.238281 12.027344 19.910156 11.917969 19.878906 11.65625 " fill-opacity="1" fill-rule="nonzero"/><path fill="#050301" d="M 25.476562 5.925781 L 24.546875 6.671875 L 23.304688 9.152344 L 22.992188 9.089844 L 23.085938 9.308594 L 21.316406 10.640625 L 21.96875 11.757812 L 23.925781 10.796875 L 25.820312 9.058594 L 25.476562 5.925781 " fill-opacity="1" fill-rule="nonzero"/><path fill="#050301" d="M 27.339844 12.269531 C 27.339844 12.269531 26.316406 14.609375 25.957031 15.558594 C 25.601562 16.503906 25.554688 16.660156 25.554688 16.660156 L 25.351562 17.742188 C 25.351562 17.742188 27.320312 18.230469 28.507812 18.101562 C 29.8125 17.964844 30.714844 17.484375 30.882812 17.453125 C 30.945312 17.441406 30.355469 16.941406 30.355469 16.941406 C 30.355469 16.941406 32.617188 14.1875 32.839844 13.359375 C 33.167969 12.148438 32.1875 11.152344 32.1875 11.152344 L 27.339844 12.269531 " fill-opacity="1" fill-rule="nonzero"/><path fill="#a26749" d="M 25.398438 6.3125 C 25.398438 6.3125 25.648438 6.113281 25.601562 5.832031 C 25.554688 5.554688 25.492188 5.398438 25.492188 5.398438 L 27.109375 3.972656 C 27.109375 3.972656 27 4.5 27.386719 4.625 C 27.777344 4.746094 28.320312 4.824219 28.320312 4.824219 L 27.929688 6.625 L 25.367188 6.964844 L 25.398438 6.3125 " fill-opacity="1" fill-rule="nonzero"/><path fill="#824932" d="M 27.386719 4.625 C 27.101562 4.53125 27.085938 4.222656 27.097656 4.066406 L 26.992188 4.078125 L 25.492188 5.398438 C 25.492188 5.398438 25.535156 5.503906 25.574219 5.699219 C 25.710938 5.707031 26.089844 5.707031 26.550781 5.484375 C 26.976562 5.277344 27.285156 4.839844 27.414062 4.632812 C 27.40625 4.628906 27.394531 4.625 27.386719 4.625 " fill-opacity="1" fill-rule="nonzero"/><path fill="#b14620" d="M 25.398438 6.3125 C 25.398438 6.3125 25.507812 6.640625 26.160156 6.421875 C 26.8125 6.207031 27.214844 5.617188 27.214844 5.617188 L 27.527344 9.214844 L 26.96875 9.988281 C 26.96875 9.988281 24.667969 8.8125 25.398438 6.3125 " fill-opacity="1" fill-rule="nonzero"/><path fill="#ffffff" d="M 25.445312 6.273438 C 25.40625 6.273438 25.375 6.238281 25.378906 6.199219 C 25.382812 6.15625 25.417969 6.125 25.457031 6.132812 C 25.496094 6.140625 25.519531 6.171875 25.519531 6.207031 C 25.515625 6.242188 25.484375 6.273438 25.445312 6.273438 " fill-opacity="1" fill-rule="nonzero"/><path fill="#ffffff" d="M 25.457031 6.410156 C 25.417969 6.417969 25.378906 6.390625 25.378906 6.347656 C 25.375 6.304688 25.40625 6.273438 25.445312 6.273438 C 25.484375 6.273438 25.515625 6.300781 25.519531 6.335938 C 25.519531 6.371094 25.496094 6.40625 25.457031 6.410156 " fill-opacity="1" fill-rule="nonzero"/><path fill="#ffffff" d="M 25.488281 6.546875 C 25.453125 6.5625 25.410156 6.539062 25.402344 6.496094 C 25.390625 6.457031 25.417969 6.417969 25.457031 6.410156 C 25.492188 6.40625 25.53125 6.429688 25.539062 6.464844 C 25.546875 6.496094 25.527344 6.535156 25.488281 6.546875 " fill-opacity="1" fill-rule="nonzero"/><path fill="#ffffff" d="M 25.550781 6.671875 C 25.519531 6.695312 25.476562 6.683594 25.453125 6.644531 C 25.4375 6.601562 25.453125 6.558594 25.488281 6.546875 C 25.523438 6.535156 25.566406 6.550781 25.578125 6.582031 C 25.59375 6.609375 25.582031 6.648438 25.550781 6.671875 " fill-opacity="1" fill-rule="nonzero"/><path fill="#ffffff" d="M 25.644531 6.777344 C 25.621094 6.804688 25.574219 6.804688 25.542969 6.773438 C 25.515625 6.738281 25.519531 6.695312 25.550781 6.671875 C 25.582031 6.652344 25.628906 6.65625 25.648438 6.679688 C 25.667969 6.703125 25.667969 6.746094 25.644531 6.777344 " fill-opacity="1" fill-rule="nonzero"/><path fill="#ffffff" d="M 25.765625 6.847656 C 25.75 6.882812 25.707031 6.898438 25.667969 6.875 C 25.628906 6.851562 25.621094 6.804688 25.644531 6.777344 C 25.671875 6.746094 25.714844 6.738281 25.738281 6.753906 C 25.765625 6.773438 25.78125 6.808594 25.765625 6.847656 " fill-opacity="1" fill-rule="nonzero"/><path fill="#ffffff" d="M 25.898438 6.890625 C 25.890625 6.929688 25.847656 6.953125 25.808594 6.9375 C 25.769531 6.925781 25.75 6.882812 25.765625 6.847656 C 25.78125 6.8125 25.816406 6.796875 25.851562 6.804688 C 25.886719 6.816406 25.90625 6.851562 25.898438 6.890625 " fill-opacity="1" fill-rule="nonzero"/><path fill="#ffffff" d="M 26.035156 6.914062 C 26.03125 6.953125 25.996094 6.980469 25.953125 6.972656 C 25.914062 6.96875 25.886719 6.925781 25.898438 6.890625 C 25.90625 6.851562 25.945312 6.832031 25.980469 6.835938 C 26.011719 6.839844 26.039062 6.878906 26.035156 6.914062 " fill-opacity="1" fill-rule="nonzero"/><path fill="#ffffff" d="M 26.175781 6.917969 C 26.179688 6.953125 26.148438 6.988281 26.105469 6.988281 C 26.0625 6.984375 26.03125 6.953125 26.035156 6.914062 C 26.039062 6.875 26.070312 6.847656 26.105469 6.847656 C 26.140625 6.847656 26.171875 6.878906 26.175781 6.917969 " fill-opacity="1" fill-rule="nonzero"/><path fill="#ffffff" d="M 26.3125 6.894531 C 26.324219 6.933594 26.296875 6.972656 26.257812 6.976562 C 26.214844 6.984375 26.179688 6.957031 26.175781 6.917969 C 26.175781 6.878906 26.199219 6.84375 26.234375 6.839844 C 26.269531 6.835938 26.304688 6.855469 26.3125 6.894531 " fill-opacity="1" fill-rule="nonzero"/><path fill="#ffffff" d="M 26.449219 6.851562 C 26.460938 6.886719 26.445312 6.929688 26.402344 6.941406 C 26.363281 6.957031 26.324219 6.933594 26.3125 6.894531 C 26.304688 6.859375 26.328125 6.820312 26.359375 6.808594 C 26.394531 6.800781 26.433594 6.816406 26.449219 6.851562 " fill-opacity="1" fill-rule="nonzero"/><path fill="#ffffff" d="M 26.574219 6.789062 C 26.59375 6.824219 26.582031 6.867188 26.542969 6.886719 C 26.503906 6.90625 26.460938 6.890625 26.449219 6.851562 C 26.433594 6.816406 26.449219 6.777344 26.480469 6.761719 C 26.511719 6.746094 26.550781 6.757812 26.574219 6.789062 " fill-opacity="1" fill-rule="nonzero"/><path fill="#ffffff" d="M 26.6875 6.710938 C 26.710938 6.742188 26.707031 6.785156 26.671875 6.808594 C 26.636719 6.835938 26.589844 6.824219 26.574219 6.789062 C 26.554688 6.757812 26.5625 6.714844 26.589844 6.695312 C 26.621094 6.675781 26.664062 6.679688 26.6875 6.710938 " fill-opacity="1" fill-rule="nonzero"/><path fill="#ffffff" d="M 26.789062 6.617188 C 26.816406 6.640625 26.820312 6.6875 26.789062 6.714844 C 26.757812 6.746094 26.710938 6.742188 26.6875 6.710938 C 26.664062 6.679688 26.667969 6.640625 26.691406 6.613281 C 26.71875 6.589844 26.761719 6.589844 26.789062 6.617188 " fill-opacity="1" fill-rule="nonzero"/><path fill="#ffffff" d="M 26.878906 6.507812 C 26.910156 6.53125 26.917969 6.574219 26.890625 6.605469 C 26.863281 6.640625 26.816406 6.640625 26.789062 6.617188 C 26.761719 6.589844 26.761719 6.546875 26.78125 6.519531 C 26.804688 6.492188 26.847656 6.484375 26.878906 6.507812 " fill-opacity="1" fill-rule="nonzero"/><path fill="#ffffff" d="M 26.957031 6.390625 C 26.988281 6.410156 26.996094 6.453125 26.976562 6.488281 C 26.953125 6.523438 26.910156 6.53125 26.878906 6.507812 C 26.847656 6.484375 26.839844 6.441406 26.859375 6.410156 C 26.878906 6.378906 26.921875 6.371094 26.957031 6.390625 " fill-opacity="1" fill-rule="nonzero"/><path fill="#ffffff" d="M 27.027344 6.269531 C 27.058594 6.289062 27.070312 6.332031 27.050781 6.367188 C 27.03125 6.398438 26.988281 6.410156 26.957031 6.390625 C 26.921875 6.371094 26.910156 6.328125 26.929688 6.296875 C 26.949219 6.261719 26.992188 6.25 27.027344 6.269531 " fill-opacity="1" fill-rule="nonzero"/><path fill="#ffffff" d="M 27.089844 6.144531 C 27.125 6.164062 27.136719 6.203125 27.121094 6.238281 C 27.101562 6.273438 27.058594 6.289062 27.027344 6.269531 C 26.992188 6.25 26.980469 6.207031 26.996094 6.175781 C 27.015625 6.140625 27.054688 6.128906 27.089844 6.144531 " fill-opacity="1" fill-rule="nonzero"/><path fill="#ffffff" d="M 27.152344 6.019531 C 27.1875 6.035156 27.199219 6.078125 27.183594 6.113281 C 27.167969 6.148438 27.125 6.164062 27.089844 6.144531 C 27.054688 6.128906 27.042969 6.085938 27.058594 6.050781 C 27.074219 6.019531 27.117188 6.003906 27.152344 6.019531 " fill-opacity="1" fill-rule="nonzero"/><path fill="#ffffff" d="M 27.207031 5.890625 C 27.242188 5.90625 27.257812 5.945312 27.242188 5.984375 C 27.226562 6.019531 27.183594 6.035156 27.152344 6.019531 C 27.117188 6.003906 27.097656 5.960938 27.113281 5.925781 C 27.128906 5.894531 27.171875 5.875 27.207031 5.890625 " fill-opacity="1" fill-rule="nonzero"/><path fill="#ffffff" d="M 27.257812 5.761719 C 27.292969 5.773438 27.3125 5.816406 27.296875 5.851562 C 27.28125 5.890625 27.242188 5.90625 27.207031 5.890625 C 27.171875 5.875 27.152344 5.835938 27.167969 5.800781 C 27.183594 5.765625 27.222656 5.746094 27.257812 5.761719 " fill-opacity="1" fill-rule="nonzero"/><path fill="#050301" d="M 25.1875 6.484375 C 25.1875 6.484375 24.640625 8.5625 25.042969 9.089844 C 25.445312 9.617188 26.253906 9.742188 26.253906 9.742188 L 27.496094 10.796875 L 26.6875 12.410156 C 26.6875 12.410156 27.714844 12.78125 27.960938 12.78125 C 28.210938 12.78125 28.210938 12.59375 28.210938 12.59375 C 28.210938 12.59375 28.335938 12.78125 28.457031 12.84375 C 28.582031 12.90625 30.382812 12.875 31.253906 12.503906 C 32.125 12.128906 32.652344 11.507812 32.652344 11.507812 C 32.652344 11.507812 30.882812 9.371094 30.820312 9.152344 C 30.757812 8.933594 30.445312 6.175781 30.445312 6.175781 C 30.445312 6.175781 29.949219 4.714844 29.515625 4.65625 C 29.429688 4.644531 29.300781 4.632812 29.144531 4.628906 C 28.492188 4.605469 27.386719 4.625 27.386719 4.625 C 27.386719 4.625 26.90625 6.050781 26.875 7.042969 C 26.84375 8.035156 27.03125 9.429688 27.03125 9.429688 C 27.03125 9.429688 26.222656 9.121094 25.695312 8.097656 C 25.167969 7.074219 25.476562 5.925781 25.476562 5.925781 L 25.1875 6.484375 " fill-opacity="1" fill-rule="nonzero"/><path fill="#c9b7af" d="M 29.203125 8.71875 L 33.351562 6.054688 L 35.105469 10.019531 L 31.660156 12.78125 L 29.203125 8.71875 " fill-opacity="1" fill-rule="nonzero"/><path fill="#b09e97" d="M 31.582031 8.378906 L 32.527344 9.898438 L 32.839844 10.148438 L 32.933594 10.660156 L 33.445312 11.078125 L 33.632812 10.660156 L 32.980469 7.820312 L 32.46875 7.21875 C 32.46875 7.21875 32.195312 7.082031 31.867188 7.007812 L 30.832031 7.671875 L 31.582031 8.378906 " fill-opacity="1" fill-rule="nonzero"/><path fill="#ffffff" d="M 29.203125 8.71875 L 31.535156 12.84375 L 31.566406 12.75 L 31.660156 12.78125 C 31.660156 12.78125 29.359375 8.796875 29.203125 8.71875 " fill-opacity="1" fill-rule="nonzero"/><path fill="#a26749" d="M 32.621094 9.316406 C 32.621094 9.316406 33.167969 10.195312 32.992188 10.332031 C 32.820312 10.464844 32.648438 10.566406 32.667969 10.652344 C 32.6875 10.738281 32.808594 11.191406 32.757812 11.300781 C 32.703125 11.410156 32.726562 11.445312 32.808594 11.4375 C 32.890625 11.429688 33.035156 11.355469 33.035156 11.289062 C 33.03125 11.222656 33.042969 11.039062 33.042969 11.039062 C 33.042969 11.039062 33.175781 11.222656 33.238281 11.28125 C 33.300781 11.335938 33.484375 11.507812 33.558594 11.585938 C 33.632812 11.667969 33.710938 11.695312 33.773438 11.601562 C 33.832031 11.507812 33.769531 11.351562 33.769531 11.351562 C 33.769531 11.351562 33.890625 11.324219 33.933594 11.238281 C 33.980469 11.148438 33.984375 11.101562 33.984375 11.101562 C 33.984375 11.101562 34.148438 11.019531 34.144531 10.933594 C 34.144531 10.847656 34.101562 10.652344 34.035156 10.503906 C 33.96875 10.355469 33.78125 10.195312 33.71875 10.082031 C 33.660156 9.96875 33.457031 9.503906 33.457031 9.503906 L 32.621094 9.316406 " fill-opacity="1" fill-rule="nonzero"/><path fill="#a26749" d="M 33.667969 11.246094 C 33.667969 11.246094 33.722656 11.34375 33.757812 11.417969 C 33.792969 11.492188 33.796875 11.492188 33.792969 11.492188 C 33.785156 11.488281 33.769531 11.351562 33.769531 11.351562 L 33.804688 11.335938 L 33.667969 11.246094 " fill-opacity="1" fill-rule="nonzero"/><path fill="#050301" d="M 29.109375 4.964844 C 29.109375 4.964844 28.832031 5.648438 29.234375 6.359375 C 29.640625 7.074219 29.917969 7.167969 30.601562 7.414062 C 31.285156 7.664062 31.410156 7.664062 31.410156 7.664062 L 31.410156 7.878906 L 31.6875 7.910156 L 32.527344 9.898438 C 32.527344 9.898438 32.621094 9.957031 33.085938 9.835938 C 33.554688 9.710938 33.738281 9.460938 33.738281 9.460938 C 33.738281 9.460938 33.398438 8.003906 33.273438 7.539062 C 33.148438 7.074219 33.117188 6.886719 33.117188 6.886719 L 29.792969 4.53125 C 29.792969 4.53125 29.421875 4.3125 29.109375 4.964844 " fill-opacity="1" fill-rule="nonzero"/><path fill="#050301" d="M 27.214844 3.878906 C 27.214844 3.878906 27.777344 4.839844 28.273438 4.3125 C 28.769531 3.785156 28.550781 3.664062 28.550781 3.664062 C 28.550781 3.664062 29.265625 3.941406 29.234375 3.476562 C 29.203125 3.011719 28.988281 2.855469 28.988281 2.855469 C 28.988281 2.855469 29.359375 2.453125 29.078125 2.359375 C 28.800781 2.265625 28.210938 2.515625 28.210938 2.515625 C 28.210938 2.515625 28.457031 1.894531 28.054688 1.957031 C 27.652344 2.019531 26.9375 2.390625 26.9375 2.390625 C 26.9375 2.390625 26.625 3.164062 27.214844 3.878906 " fill-opacity="1" fill-rule="nonzero"/><path fill="#a26749" d="M 23.457031 2.964844 C 23.457031 2.964844 23.644531 3.707031 23.691406 4.035156 C 23.738281 4.359375 24.3125 5.289062 25.105469 5.539062 C 25.898438 5.785156 26.261719 5.417969 26.703125 5.019531 C 27.246094 4.53125 27.355469 3.707031 27.355469 3.707031 C 27.355469 3.707031 27.621094 3.847656 27.699219 3.492188 C 27.777344 3.136719 27.898438 2.730469 27.699219 2.640625 C 27.496094 2.546875 27.386719 2.609375 27.386719 2.609375 C 27.386719 2.609375 26.640625 1.40625 26.019531 1.1875 C 25.398438 0.972656 23.015625 1.148438 23.457031 2.964844 " fill-opacity="1" fill-rule="nonzero"/><path fill="#824932" d="M 24.464844 2.832031 C 24.464844 2.832031 24.683594 3.140625 24.734375 3.492188 C 24.785156 3.84375 24.785156 3.84375 24.785156 3.84375 C 24.785156 3.84375 24.433594 4.066406 24.597656 4.300781 C 24.757812 4.535156 25.070312 4.378906 25.070312 4.378906 C 25.070312 4.378906 24.75 4.441406 24.679688 4.214844 C 24.613281 3.988281 24.878906 3.851562 24.878906 3.851562 C 24.878906 3.851562 24.839844 3.15625 24.464844 2.832031 " fill-opacity="1" fill-rule="nonzero"/><path fill="#824932" d="M 27.324219 2.933594 C 27.324219 2.933594 27.667969 2.609375 27.699219 2.808594 C 27.730469 3.011719 27.667969 3.257812 27.667969 3.257812 C 27.667969 3.257812 27.667969 2.855469 27.589844 2.871094 C 27.511719 2.886719 27.339844 3.042969 27.324219 2.933594 " fill-opacity="1" fill-rule="nonzero"/><path fill="#824932" d="M 27.449219 3.148438 C 27.449219 3.148438 27.308594 3.226562 27.386719 3.273438 C 27.464844 3.320312 27.324219 3.382812 27.402344 3.382812 C 27.449219 3.382812 27.246094 3.429688 27.417969 3.460938 C 27.589844 3.492188 27.542969 3.195312 27.449219 3.148438 " fill-opacity="1" fill-rule="nonzero"/><path fill="#824932" d="M 23.910156 3.875 L 23.800781 3.921875 L 23.894531 3.917969 C 23.894531 3.917969 23.996094 4.039062 24.117188 4.039062 C 24.242188 4.039062 24.433594 3.890625 24.445312 3.824219 C 24.457031 3.757812 23.910156 3.875 23.910156 3.875 " fill-opacity="1" fill-rule="nonzero"/><path fill="#824932" d="M 25.746094 3.09375 L 25.859375 3.261719 L 25.984375 3.21875 L 25.902344 3.277344 L 26.027344 3.285156 L 25.855469 3.339844 C 25.855469 3.339844 25.792969 3.488281 25.6875 3.558594 C 25.582031 3.628906 25.464844 3.632812 25.355469 3.597656 C 25.25 3.5625 25.746094 3.09375 25.746094 3.09375 " fill-opacity="1" fill-rule="nonzero"/><path fill="#824932" d="M 24.546875 3.523438 C 24.546875 3.523438 24.515625 3.503906 24.40625 3.519531 C 24.464844 3.605469 24.503906 3.683594 24.515625 3.710938 C 24.515625 3.710938 24.394531 3.988281 24.179688 4.015625 C 24.027344 4.035156 23.921875 3.902344 23.921875 3.902344 C 23.921875 3.902344 23.886719 3.8125 23.863281 3.699219 C 23.738281 3.75 23.640625 3.792969 23.640625 3.792969 L 23.753906 4.25 C 23.753906 4.25 24.042969 4.339844 24.222656 4.28125 C 24.40625 4.226562 24.570312 3.953125 24.597656 3.75 C 24.625 3.546875 24.546875 3.523438 24.546875 3.523438 " fill-opacity="1" fill-rule="nonzero"/><path fill="#824932" d="M 26.058594 3.109375 C 25.992188 3.066406 25.785156 3.082031 25.71875 3.085938 C 25.785156 3.179688 25.828125 3.265625 25.835938 3.292969 C 25.835938 3.292969 25.722656 3.554688 25.492188 3.617188 C 25.335938 3.65625 25.214844 3.496094 25.214844 3.496094 C 25.214844 3.496094 25.171875 3.402344 25.148438 3.285156 C 25.003906 3.34375 24.882812 3.398438 24.875 3.425781 C 24.875 3.425781 24.890625 3.601562 25 3.6875 C 25.109375 3.777344 25.410156 3.945312 25.621094 3.890625 C 25.835938 3.832031 25.964844 3.75 26.027344 3.574219 C 26.089844 3.398438 26.136719 3.160156 26.058594 3.109375 " fill-opacity="1" fill-rule="nonzero"/><path fill="#ffffff" d="M 24.40625 3.519531 C 24.304688 3.371094 24.148438 3.210938 23.980469 3.289062 C 23.828125 3.359375 23.832031 3.550781 23.863281 3.699219 C 24.023438 3.632812 24.230469 3.554688 24.328125 3.53125 C 24.359375 3.527344 24.386719 3.523438 24.40625 3.519531 " fill-opacity="1" fill-rule="nonzero"/><path fill="#ffffff" d="M 25.71875 3.085938 C 25.613281 2.933594 25.445312 2.769531 25.273438 2.851562 C 25.113281 2.925781 25.117188 3.128906 25.148438 3.285156 C 25.390625 3.191406 25.699219 3.089844 25.699219 3.089844 C 25.699219 3.089844 25.707031 3.085938 25.71875 3.085938 " fill-opacity="1" fill-rule="nonzero"/><path fill="#c9b7af" d="M 24.179688 4.015625 C 24.394531 3.988281 24.515625 3.710938 24.515625 3.710938 C 24.503906 3.683594 24.464844 3.605469 24.40625 3.519531 C 24.386719 3.523438 24.359375 3.527344 24.328125 3.53125 C 24.230469 3.554688 24.023438 3.632812 23.863281 3.699219 C 23.886719 3.8125 23.921875 3.902344 23.921875 3.902344 C 23.921875 3.902344 24.027344 4.035156 24.179688 4.015625 " fill-opacity="1" fill-rule="nonzero"/><path fill="#c9b7af" d="M 25.492188 3.617188 C 25.722656 3.554688 25.835938 3.292969 25.835938 3.292969 C 25.828125 3.265625 25.785156 3.179688 25.71875 3.085938 C 25.707031 3.085938 25.699219 3.089844 25.699219 3.089844 C 25.699219 3.089844 25.390625 3.191406 25.148438 3.285156 C 25.171875 3.402344 25.214844 3.496094 25.214844 3.496094 C 25.214844 3.496094 25.335938 3.65625 25.492188 3.617188 " fill-opacity="1" fill-rule="nonzero"/><path fill="#050301" d="M 25.269531 3.476562 C 25.300781 3.53125 25.359375 3.558594 25.394531 3.535156 C 25.433594 3.515625 25.4375 3.453125 25.40625 3.398438 C 25.375 3.34375 25.320312 3.320312 25.28125 3.339844 C 25.246094 3.363281 25.238281 3.425781 25.269531 3.476562 " fill-opacity="1" fill-rule="nonzero"/><path fill="#3f1e1c" d="M 24.421875 4.757812 C 24.566406 5.09375 24.949219 5.15625 25.265625 5.054688 C 25.601562 4.949219 25.742188 4.675781 25.769531 4.339844 C 25.777344 4.292969 25.683594 4.304688 25.679688 4.347656 C 25.65625 4.601562 25.582031 4.828125 25.34375 4.953125 C 25.058594 5.101562 24.621094 5.082031 24.484375 4.757812 C 24.464844 4.71875 24.40625 4.71875 24.421875 4.757812 " fill-opacity="1" fill-rule="nonzero"/><path fill="#050301" d="M 23.519531 1.925781 C 23.519531 1.925781 24.140625 2.546875 24.949219 2.667969 C 25.757812 2.792969 25.757812 2.792969 25.757812 2.792969 L 25.230469 2.546875 C 25.230469 2.546875 25.632812 2.761719 26.316406 2.886719 C 27 3.011719 27.496094 2.578125 27.496094 2.578125 C 27.496094 2.578125 27.433594 1.988281 27.03125 1.429688 C 26.625 0.871094 24.730469 0.00390625 23.519531 1.925781 " fill-opacity="1" fill-rule="nonzero"/><path fill="#050301" d="M 23.519531 1.972656 L 23.691406 2.097656 C 23.691406 2.097656 23.582031 2.507812 23.558594 2.878906 C 23.535156 3.25 23.535156 3.296875 23.535156 3.296875 C 23.535156 3.296875 23.039062 2.476562 23.519531 1.972656 " fill-opacity="1" fill-rule="nonzero"/><path fill="#050301" d="M 27.175781 2.558594 L 27.148438 2.503906 L 26.058594 3.074219 C 26.023438 3.042969 25.972656 3.035156 25.910156 3.03125 C 25.753906 3.035156 25.515625 3.101562 25.300781 3.175781 C 25.195312 3.210938 25.097656 3.253906 25.023438 3.289062 C 24.945312 3.324219 24.894531 3.351562 24.867188 3.382812 C 24.855469 3.402344 24.851562 3.414062 24.835938 3.433594 C 24.800781 3.433594 24.769531 3.429688 24.75 3.4375 C 24.675781 3.460938 24.648438 3.472656 24.617188 3.511719 C 24.609375 3.519531 24.5625 3.492188 24.535156 3.488281 C 24.527344 3.484375 24.515625 3.484375 24.507812 3.484375 C 24.414062 3.484375 24.175781 3.542969 23.949219 3.625 C 23.835938 3.664062 23.730469 3.710938 23.648438 3.757812 C 23.566406 3.804688 23.503906 3.851562 23.496094 3.917969 C 23.496094 3.921875 23.496094 3.925781 23.496094 3.929688 C 23.496094 4.035156 23.578125 4.132812 23.683594 4.210938 C 23.785156 4.289062 23.910156 4.347656 24.019531 4.347656 C 24.027344 4.347656 24.039062 4.347656 24.046875 4.347656 C 24.261719 4.324219 24.402344 4.222656 24.488281 4.113281 C 24.578125 4.003906 24.613281 3.890625 24.621094 3.835938 C 24.625 3.796875 24.632812 3.738281 24.632812 3.679688 C 24.632812 3.652344 24.628906 3.628906 24.625 3.605469 C 24.628906 3.601562 24.628906 3.597656 24.632812 3.589844 C 24.652344 3.558594 24.699219 3.496094 24.78125 3.496094 C 24.800781 3.496094 24.828125 3.5 24.855469 3.511719 C 24.867188 3.550781 24.890625 3.585938 24.917969 3.617188 C 24.957031 3.667969 25 3.714844 25.03125 3.746094 C 25.085938 3.800781 25.265625 3.925781 25.503906 3.929688 C 25.617188 3.929688 25.742188 3.898438 25.871094 3.820312 C 26.019531 3.730469 26.121094 3.480469 26.125 3.28125 C 26.125 3.222656 26.125 3.226562 26.109375 3.167969 Z M 24.558594 3.828125 C 24.554688 3.867188 24.519531 3.976562 24.441406 4.074219 C 24.363281 4.171875 24.238281 4.265625 24.039062 4.285156 C 24.035156 4.285156 24.027344 4.285156 24.019531 4.285156 C 23.933594 4.285156 23.8125 4.234375 23.71875 4.164062 C 23.625 4.09375 23.554688 4 23.558594 3.929688 C 23.558594 3.929688 23.558594 3.925781 23.558594 3.921875 L 23.527344 3.917969 L 23.558594 3.921875 C 23.554688 3.902344 23.601562 3.855469 23.679688 3.8125 C 23.910156 3.675781 24.394531 3.542969 24.507812 3.546875 C 24.511719 3.546875 24.519531 3.546875 24.519531 3.546875 C 24.535156 3.550781 24.546875 3.5625 24.558594 3.585938 C 24.566406 3.609375 24.570312 3.644531 24.570312 3.679688 C 24.570312 3.730469 24.5625 3.789062 24.558594 3.828125 Z M 26.058594 3.085938 L 26.039062 3.101562 Z M 25.839844 3.769531 C 25.71875 3.839844 25.605469 3.867188 25.503906 3.867188 C 25.289062 3.867188 25.117188 3.746094 25.074219 3.703125 C 25.042969 3.671875 25 3.625 24.964844 3.582031 C 24.929688 3.535156 24.90625 3.488281 24.90625 3.457031 C 24.90625 3.441406 24.910156 3.429688 24.917969 3.421875 C 24.921875 3.414062 24.976562 3.378906 25.046875 3.34375 C 25.269531 3.242188 25.699219 3.09375 25.910156 3.09375 C 25.96875 3.09375 26.003906 3.105469 26.015625 3.121094 C 26.046875 3.152344 26.0625 3.210938 26.0625 3.28125 C 26.0625 3.457031 25.957031 3.699219 25.839844 3.769531 " fill-opacity="1" fill-rule="nonzero"/><path fill="#050301" d="M 23.648438 3.109375 C 23.683594 3.046875 23.71875 2.980469 23.792969 2.945312 C 23.890625 2.898438 24.039062 2.917969 24.117188 2.984375 C 24.132812 2.996094 24.195312 2.976562 24.179688 2.964844 C 24.09375 2.890625 23.949219 2.882812 23.832031 2.90625 C 23.699219 2.933594 23.632812 3.023438 23.582031 3.117188 C 23.574219 3.128906 23.636719 3.125 23.648438 3.109375 " fill-opacity="1" fill-rule="nonzero"/><path fill="#050301" d="M 23.976562 3.886719 C 24.007812 3.9375 24.0625 3.960938 24.097656 3.941406 C 24.132812 3.917969 24.136719 3.863281 24.109375 3.808594 C 24.078125 3.757812 24.023438 3.734375 23.988281 3.753906 C 23.953125 3.777344 23.949219 3.835938 23.976562 3.886719 " fill-opacity="1" fill-rule="nonzero"/><path fill="#824932" d="M 25.332031 5.285156 C 25.332031 5.285156 25.394531 5.328125 25.496094 5.265625 C 25.601562 5.203125 25.632812 5.152344 25.632812 5.152344 C 25.632812 5.152344 25.613281 5.390625 25.332031 5.285156 " fill-opacity="1" fill-rule="nonzero"/><path fill="#824932" d="M 23.769531 3.609375 C 23.769531 3.609375 23.882812 3.394531 24.046875 3.371094 C 24.214844 3.351562 24.308594 3.363281 24.308594 3.363281 C 24.308594 3.363281 24.121094 3.1875 23.914062 3.289062 C 23.707031 3.394531 23.769531 3.609375 23.769531 3.609375 " fill-opacity="1" fill-rule="nonzero"/><path fill="#824932" d="M 25.09375 3.15625 C 25.09375 3.15625 25.210938 2.9375 25.382812 2.917969 C 25.558594 2.898438 25.652344 2.90625 25.652344 2.90625 C 25.652344 2.90625 25.460938 2.730469 25.246094 2.835938 C 25.03125 2.9375 25.09375 3.15625 25.09375 3.15625 " fill-opacity="1" fill-rule="nonzero"/></svg>