<svg xmlns="http://www.w3.org/2000/svg" xmlns:xlink="http://www.w3.org/1999/xlink" width="50" zoomAndPan="magnify" viewBox="0 0 37.5 37.499999" height="50" preserveAspectRatio="xMidYMid meet" version="1.0"><defs><clipPath id="226ca5639d"><path d="M 0.0117188 7 L 37.007812 7 L 37.007812 37.007812 L 0.0117188 37.007812 Z M 0.0117188 7 " clip-rule="nonzero"/></clipPath><clipPath id="87420046d2"><path d="M 4 9 L 36 9 L 36 37.007812 L 4 37.007812 Z M 4 9 " clip-rule="nonzero"/></clipPath><clipPath id="38c3842cdf"><path d="M 3 0 L 30 0 L 30 37.007812 L 3 37.007812 Z M 3 0 " clip-rule="nonzero"/></clipPath><clipPath id="0366061ce1"><path d="M 5 14 L 24 14 L 24 37.007812 L 5 37.007812 Z M 5 14 " clip-rule="nonzero"/></clipPath><clipPath id="5bb5cb7873"><path d="M 7.308594 6.070312 L 7.417969 6.070312 L 7.417969 6.183594 L 7.308594 6.183594 Z M 7.308594 6.070312 " clip-rule="nonzero"/></clipPath><clipPath id="f73b0dd59f"><path d="M 7.375 6.15625 C 7.351562 6.148438 7.332031 6.140625 7.308594 6.128906 L 7.3125 6.121094 L 7.375 6.15625 " clip-rule="nonzero"/></clipPath><clipPath id="152f0b3a74"><path d="M 5.734375 16.414062 L 5.847656 16.414062 L 5.847656 16.640625 L 5.734375 16.640625 Z M 5.734375 16.414062 " clip-rule="nonzero"/></clipPath><clipPath id="0a72f2faeb"><path d="M 5.769531 16.539062 L 5.839844 16.433594 L 5.769531 16.546875 Z M 5.769531 16.539062 " clip-rule="nonzero"/></clipPath><clipPath id="d9b16fab08"><path d="M 5.738281 16.535156 L 5.832031 16.566406 L 5.871094 16.441406 L 5.777344 16.410156 Z M 5.738281 16.535156 " clip-rule="nonzero"/></clipPath><linearGradient x1="0.505592" gradientTransform="matrix(1.652768, -5.377324, 5.313057, 1.834362, 4.949582, 19.269092)" y1="0" x2="0.528568" gradientUnits="userSpaceOnUse" y2="0" id="2f4cfb818e"><stop stop-opacity="1" stop-color="rgb(65.499878%, 18.798828%, 12.5%)" offset="0"/><stop stop-opacity="1" stop-color="rgb(65.499878%, 18.798828%, 12.5%)" offset="0.5"/><stop stop-opacity="1" stop-color="rgb(65.499878%, 18.606567%, 12.5%)" offset="1"/></linearGradient><clipPath id="3666ea2a96"><path d="M 19.292969 5.503906 L 25.625 5.503906 L 25.625 18.007812 L 19.292969 18.007812 Z M 19.292969 5.503906 " clip-rule="nonzero"/></clipPath><clipPath id="11cb54854d"><path d="M 22.035156 18.007812 L 21.328125 17.601562 L 20.855469 17.113281 L 20.855469 14.464844 L 20.859375 14.460938 L 20.859375 14.453125 C 20.859375 14.441406 20.859375 14.433594 20.855469 14.425781 C 20.855469 14.417969 20.855469 14.414062 20.855469 14.410156 C 20.84375 14.351562 20.785156 14.292969 20.679688 14.234375 L 19.914062 13.785156 L 19.917969 13.785156 L 19.292969 13.425781 L 19.292969 5.503906 C 19.296875 5.554688 19.351562 5.609375 19.464844 5.675781 L 20.519531 6.28125 L 20.511719 6.285156 L 20.75 6.425781 L 20.753906 6.425781 L 22.125 7.21875 C 22.351562 7.34375 22.582031 7.34375 22.808594 7.210938 L 25.453125 5.683594 C 25.453125 5.679688 25.457031 5.679688 25.460938 5.675781 Z M 25.625 15.875 L 25.625 15.894531 C 25.625 15.902344 25.621094 15.90625 25.621094 15.914062 L 25.625 15.910156 L 25.625 16.011719 L 25.621094 16.3125 C 25.621094 16.324219 25.625 16.332031 25.625 16.339844 L 25.625 16.367188 C 25.617188 16.425781 25.5625 16.484375 25.457031 16.546875 L 25.195312 16.695312 L 25.621094 15.171875 L 25.621094 15.851562 C 25.621094 15.859375 25.625 15.867188 25.625 15.875 " clip-rule="nonzero"/></clipPath><linearGradient x1="0.00436282" gradientTransform="matrix(6.397812, 0, 0, 6.408938, 19.266987, 11.755005)" y1="0" x2="0.993877" gradientUnits="userSpaceOnUse" y2="0" id="aa19cdc505"><stop stop-opacity="1" stop-color="rgb(38.398743%, 55.299377%, 81.599426%)" offset="0"/><stop stop-opacity="1" stop-color="rgb(38.398743%, 55.299377%, 81.599426%)" offset="0.25"/><stop stop-opacity="1" stop-color="rgb(38.398743%, 55.299377%, 81.599426%)" offset="0.3125"/><stop stop-opacity="1" stop-color="rgb(38.398743%, 55.299377%, 81.599426%)" offset="0.34375"/><stop stop-opacity="1" stop-color="rgb(38.786316%, 55.487061%, 81.799316%)" offset="0.347656"/><stop stop-opacity="1" stop-color="rgb(39.175415%, 55.674744%, 81.999207%)" offset="0.351562"/><stop stop-opacity="1" stop-color="rgb(39.414978%, 56.114197%, 82.199097%)" offset="0.355469"/><stop stop-opacity="1" stop-color="rgb(39.656067%, 56.555176%, 82.398987%)" offset="0.359375"/><stop stop-opacity="1" stop-color="rgb(39.845276%, 56.745911%, 82.548523%)" offset="0.367187"/><stop stop-opacity="1" stop-color="rgb(40.426636%, 57.276917%, 82.899475%)" offset="0.371094"/><stop stop-opacity="1" stop-color="rgb(40.817261%, 57.617188%, 83.099365%)" offset="0.375"/><stop stop-opacity="1" stop-color="rgb(41.207886%, 57.807922%, 83.099365%)" offset="0.378906"/><stop stop-opacity="1" stop-color="rgb(41.598511%, 57.998657%, 83.099365%)" offset="0.382812"/><stop stop-opacity="1" stop-color="rgb(42.131042%, 58.389282%, 83.299255%)" offset="0.386719"/><stop stop-opacity="1" stop-color="rgb(42.663574%, 58.779907%, 83.499146%)" offset="0.390625"/><stop stop-opacity="1" stop-color="rgb(43.081665%, 59.21936%, 83.729553%)" offset="0.394531"/><stop stop-opacity="1" stop-color="rgb(43.499756%, 59.660339%, 83.959961%)" offset="0.398437"/><stop stop-opacity="1" stop-color="rgb(43.719482%, 60.050964%, 84.150696%)" offset="0.402344"/><stop stop-opacity="1" stop-color="rgb(43.940735%, 60.441589%, 84.341431%)" offset="0.40625"/><stop stop-opacity="1" stop-color="rgb(44.13147%, 60.643005%, 84.53064%)" offset="0.410156"/><stop stop-opacity="1" stop-color="rgb(44.322205%, 60.844421%, 84.721375%)" offset="0.414062"/><stop stop-opacity="1" stop-color="rgb(44.71283%, 61.422729%, 84.912109%)" offset="0.417969"/><stop stop-opacity="1" stop-color="rgb(45.103455%, 62.002563%, 85.102844%)" offset="0.421875"/><stop stop-opacity="1" stop-color="rgb(45.492554%, 62.200928%, 85.301208%)" offset="0.425781"/><stop stop-opacity="1" stop-color="rgb(45.883179%, 62.399292%, 85.499573%)" offset="0.429687"/><stop stop-opacity="1" stop-color="rgb(46.273804%, 62.731934%, 85.681152%)" offset="0.433594"/><stop stop-opacity="1" stop-color="rgb(46.664429%, 63.064575%, 85.864258%)" offset="0.4375"/><stop stop-opacity="1" stop-color="rgb(46.903992%, 63.504028%, 86.080933%)" offset="0.441406"/><stop stop-opacity="1" stop-color="rgb(47.145081%, 63.945007%, 86.299133%)" offset="0.445312"/><stop stop-opacity="1" stop-color="rgb(47.499084%, 64.535522%, 86.512756%)" offset="0.449219"/><stop stop-opacity="1" stop-color="rgb(47.853088%, 65.126038%, 86.726379%)" offset="0.453125"/><stop stop-opacity="1" stop-color="rgb(48.429871%, 65.516663%, 86.915588%)" offset="0.457031"/><stop stop-opacity="1" stop-color="rgb(49.006653%, 65.907288%, 87.106323%)" offset="0.460937"/><stop stop-opacity="1" stop-color="rgb(49.397278%, 66.297913%, 87.303162%)" offset="0.464844"/><stop stop-opacity="1" stop-color="rgb(49.787903%, 66.688538%, 87.5%)" offset="0.46875"/><stop stop-opacity="1" stop-color="rgb(50.363159%, 67.077637%, 87.637329%)" offset="0.472656"/><stop stop-opacity="1" stop-color="rgb(50.938416%, 67.468262%, 87.776184%)" offset="0.476562"/><stop stop-opacity="1" stop-color="rgb(51.393127%, 67.658997%, 87.986755%)" offset="0.480469"/><stop stop-opacity="1" stop-color="rgb(51.849365%, 67.849731%, 88.198853%)" offset="0.484375"/><stop stop-opacity="1" stop-color="rgb(52.050781%, 68.240356%, 88.214111%)" offset="0.488281"/><stop stop-opacity="1" stop-color="rgb(52.253723%, 68.630981%, 88.230896%)" offset="0.492187"/><stop stop-opacity="1" stop-color="rgb(52.781677%, 69.020081%, 88.420105%)" offset="0.496094"/><stop stop-opacity="1" stop-color="rgb(53.311157%, 69.410706%, 88.61084%)" offset="0.5"/><stop stop-opacity="1" stop-color="rgb(53.701782%, 69.801331%, 88.804626%)" offset="0.503906"/><stop stop-opacity="1" stop-color="rgb(54.092407%, 70.191956%, 88.999939%)" offset="0.507812"/><stop stop-opacity="1" stop-color="rgb(54.483032%, 70.38269%, 89.186096%)" offset="0.511719"/><stop stop-opacity="1" stop-color="rgb(54.873657%, 70.573425%, 89.373779%)" offset="0.515625"/><stop stop-opacity="1" stop-color="rgb(55.31311%, 71.012878%, 89.413452%)" offset="0.519531"/><stop stop-opacity="1" stop-color="rgb(55.754089%, 71.453857%, 89.454651%)" offset="0.523437"/><stop stop-opacity="1" stop-color="rgb(56.144714%, 71.644592%, 89.627075%)" offset="0.527344"/><stop stop-opacity="1" stop-color="rgb(56.535339%, 71.835327%, 89.7995%)" offset="0.53125"/><stop stop-opacity="1" stop-color="rgb(56.922913%, 72.175598%, 89.99939%)" offset="0.535156"/><stop stop-opacity="1" stop-color="rgb(57.312012%, 72.515869%, 90.19928%)" offset="0.539062"/><stop stop-opacity="1" stop-color="rgb(57.653809%, 72.906494%, 90.19928%)" offset="0.542969"/><stop stop-opacity="1" stop-color="rgb(57.997131%, 73.297119%, 90.19928%)" offset="0.546875"/><stop stop-opacity="1" stop-color="rgb(58.38623%, 73.486328%, 90.39917%)" offset="0.550781"/><stop stop-opacity="1" stop-color="rgb(58.776855%, 73.677063%, 90.59906%)" offset="0.554688"/><stop stop-opacity="1" stop-color="rgb(59.16748%, 74.067688%, 90.777588%)" offset="0.558594"/><stop stop-opacity="1" stop-color="rgb(59.558105%, 74.458313%, 90.957642%)" offset="0.5625"/><stop stop-opacity="1" stop-color="rgb(59.997559%, 74.697876%, 90.997314%)" offset="0.566406"/><stop stop-opacity="1" stop-color="rgb(60.438538%, 74.938965%, 91.038513%)" offset="0.570312"/><stop stop-opacity="1" stop-color="rgb(60.818481%, 75.318909%, 91.218567%)" offset="0.574219"/><stop stop-opacity="1" stop-color="rgb(61.199951%, 75.698853%, 91.398621%)" offset="0.578125"/><stop stop-opacity="1" stop-color="rgb(61.199951%, 75.698853%, 91.398621%)" offset="0.59375"/><stop stop-opacity="1" stop-color="rgb(61.199951%, 75.698853%, 91.398621%)" offset="0.625"/><stop stop-opacity="1" stop-color="rgb(61.199951%, 75.698853%, 91.398621%)" offset="0.75"/><stop stop-opacity="1" stop-color="rgb(61.199951%, 75.698853%, 91.398621%)" offset="1"/></linearGradient><clipPath id="cc09dd4405"><path d="M 20.855469 15.152344 L 25.644531 15.152344 L 25.644531 27.199219 L 20.855469 27.199219 Z M 20.855469 15.152344 " clip-rule="nonzero"/></clipPath><clipPath id="80c080be05"><path d="M 21.328125 17.601562 L 22.035156 18.007812 L 21.960938 18.265625 Z M 25.621094 24.796875 L 25.621094 24.847656 C 25.628906 24.867188 25.628906 24.886719 25.621094 24.910156 L 25.625 24.90625 L 25.621094 25.308594 C 25.644531 25.382812 25.59375 25.460938 25.457031 25.539062 L 22.8125 27.0625 C 22.585938 27.199219 22.359375 27.195312 22.128906 27.058594 L 20.855469 26.328125 L 20.855469 22.066406 C 20.863281 22.039062 20.863281 22.015625 20.855469 21.992188 L 20.859375 21.585938 L 20.855469 21.59375 C 20.863281 21.570312 20.863281 21.550781 20.855469 21.53125 L 20.855469 21.199219 L 22.359375 22.75 L 23.339844 23.351562 L 25.195312 16.695312 L 25.457031 16.546875 C 25.5625 16.484375 25.617188 16.425781 25.625 16.367188 Z M 25.625 16.339844 C 25.625 16.332031 25.621094 16.324219 25.621094 16.3125 L 25.625 16.011719 Z M 25.625 15.894531 L 25.625 15.910156 L 25.621094 15.914062 C 25.621094 15.90625 25.625 15.902344 25.625 15.894531 Z M 25.621094 15.171875 L 25.625 15.152344 L 25.625 15.875 C 25.625 15.867188 25.621094 15.859375 25.621094 15.851562 L 25.621094 15.171875 " clip-rule="nonzero"/></clipPath><linearGradient x1="0.248264" gradientTransform="matrix(6.397812, 0, 0, 6.408938, 19.266987, 21.158265)" y1="0" x2="0.997099" gradientUnits="userSpaceOnUse" y2="0" id="e8bdd00a6d"><stop stop-opacity="1" stop-color="rgb(38.398743%, 55.299377%, 81.599426%)" offset="0"/><stop stop-opacity="1" stop-color="rgb(38.406372%, 55.299377%, 81.599426%)" offset="0.125"/><stop stop-opacity="1" stop-color="rgb(38.613892%, 55.305481%, 81.60553%)" offset="0.128906"/><stop stop-opacity="1" stop-color="rgb(38.812256%, 55.31311%, 81.613159%)" offset="0.132812"/><stop stop-opacity="1" stop-color="rgb(39.006042%, 55.505371%, 81.80542%)" offset="0.140625"/><stop stop-opacity="1" stop-color="rgb(39.399719%, 56.098938%, 82.199097%)" offset="0.144531"/><stop stop-opacity="1" stop-color="rgb(39.599609%, 56.498718%, 82.398987%)" offset="0.148437"/><stop stop-opacity="1" stop-color="rgb(39.826965%, 56.7276%, 82.548523%)" offset="0.152344"/><stop stop-opacity="1" stop-color="rgb(40.055847%, 56.956482%, 82.699585%)" offset="0.15625"/><stop stop-opacity="1" stop-color="rgb(40.246582%, 57.141113%, 82.717896%)" offset="0.164062"/><stop stop-opacity="1" stop-color="rgb(40.817261%, 57.472229%, 82.917786%)" offset="0.167969"/><stop stop-opacity="1" stop-color="rgb(41.19873%, 57.618713%, 83.099365%)" offset="0.171875"/><stop stop-opacity="1" stop-color="rgb(41.398621%, 57.807922%, 83.099365%)" offset="0.175781"/><stop stop-opacity="1" stop-color="rgb(41.598511%, 57.998657%, 83.099365%)" offset="0.179688"/><stop stop-opacity="1" stop-color="rgb(41.989136%, 58.389282%, 83.299255%)" offset="0.183594"/><stop stop-opacity="1" stop-color="rgb(42.379761%, 58.779907%, 83.499146%)" offset="0.1875"/><stop stop-opacity="1" stop-color="rgb(42.739868%, 59.020996%, 83.699036%)" offset="0.191406"/><stop stop-opacity="1" stop-color="rgb(43.099976%, 59.262085%, 83.898926%)" offset="0.195312"/><stop stop-opacity="1" stop-color="rgb(43.321228%, 59.451294%, 83.920288%)" offset="0.199219"/><stop stop-opacity="1" stop-color="rgb(43.54248%, 59.642029%, 83.943176%)" offset="0.203125"/><stop stop-opacity="1" stop-color="rgb(43.733215%, 60.020447%, 84.120178%)" offset="0.207031"/><stop stop-opacity="1" stop-color="rgb(43.92395%, 60.398865%, 84.298706%)" offset="0.210937"/><stop stop-opacity="1" stop-color="rgb(44.113159%, 60.601807%, 84.498596%)" offset="0.214844"/><stop stop-opacity="1" stop-color="rgb(44.303894%, 60.804749%, 84.698486%)" offset="0.21875"/><stop stop-opacity="1" stop-color="rgb(44.500732%, 61.001587%, 84.698486%)" offset="0.222656"/><stop stop-opacity="1" stop-color="rgb(44.699097%, 61.199951%, 84.698486%)" offset="0.226562"/><stop stop-opacity="1" stop-color="rgb(44.932556%, 61.633301%, 85.098267%)" offset="0.230469"/><stop stop-opacity="1" stop-color="rgb(45.166016%, 62.06665%, 85.499573%)" offset="0.234375"/><stop stop-opacity="1" stop-color="rgb(45.532227%, 62.251282%, 85.499573%)" offset="0.238281"/><stop stop-opacity="1" stop-color="rgb(45.899963%, 62.435913%, 85.499573%)" offset="0.242187"/><stop stop-opacity="1" stop-color="rgb(46.113586%, 62.767029%, 85.699463%)" offset="0.246094"/><stop stop-opacity="1" stop-color="rgb(46.328735%, 63.09967%, 85.899353%)" offset="0.25"/><stop stop-opacity="1" stop-color="rgb(46.713257%, 63.304138%, 85.903931%)" offset="0.253906"/><stop stop-opacity="1" stop-color="rgb(47.099304%, 63.510132%, 85.910034%)" offset="0.257812"/><stop stop-opacity="1" stop-color="rgb(47.294617%, 63.900757%, 86.103821%)" offset="0.261719"/><stop stop-opacity="1" stop-color="rgb(47.491455%, 64.291382%, 86.299133%)" offset="0.265625"/><stop stop-opacity="1" stop-color="rgb(47.680664%, 64.730835%, 86.499023%)" offset="0.269531"/><stop stop-opacity="1" stop-color="rgb(47.871399%, 65.171814%, 86.698914%)" offset="0.273438"/><stop stop-opacity="1" stop-color="rgb(48.434448%, 65.362549%, 86.898804%)" offset="0.277344"/><stop stop-opacity="1" stop-color="rgb(48.999023%, 65.553284%, 87.098694%)" offset="0.28125"/><stop stop-opacity="1" stop-color="rgb(49.215698%, 65.943909%, 87.298584%)" offset="0.285156"/><stop stop-opacity="1" stop-color="rgb(49.433899%, 66.334534%, 87.5%)" offset="0.289062"/><stop stop-opacity="1" stop-color="rgb(49.824524%, 66.525269%, 87.504578%)" offset="0.292969"/><stop stop-opacity="1" stop-color="rgb(50.215149%, 66.716003%, 87.510681%)" offset="0.296875"/><stop stop-opacity="1" stop-color="rgb(50.605774%, 67.105103%, 87.654114%)" offset="0.300781"/><stop stop-opacity="1" stop-color="rgb(50.996399%, 67.495728%, 87.799072%)" offset="0.304687"/><stop stop-opacity="1" stop-color="rgb(51.187134%, 67.64679%, 87.988281%)" offset="0.3125"/><stop stop-opacity="1" stop-color="rgb(51.78833%, 68.028259%, 88.188171%)" offset="0.316406"/><stop stop-opacity="1" stop-color="rgb(52.198792%, 68.258667%, 88.198853%)" offset="0.320312"/><stop stop-opacity="1" stop-color="rgb(52.368164%, 68.649292%, 88.398743%)" offset="0.324219"/><stop stop-opacity="1" stop-color="rgb(52.539062%, 69.039917%, 88.598633%)" offset="0.328125"/><stop stop-opacity="1" stop-color="rgb(52.929688%, 69.419861%, 88.798523%)" offset="0.332031"/><stop stop-opacity="1" stop-color="rgb(53.320312%, 69.799805%, 88.999939%)" offset="0.335938"/><stop stop-opacity="1" stop-color="rgb(53.710938%, 69.799805%, 88.999939%)" offset="0.339844"/><stop stop-opacity="1" stop-color="rgb(54.101562%, 69.801331%, 88.999939%)" offset="0.34375"/><stop stop-opacity="1" stop-color="rgb(54.299927%, 70.191956%, 88.999939%)" offset="0.347656"/><stop stop-opacity="1" stop-color="rgb(54.499817%, 70.582581%, 88.999939%)" offset="0.351562"/><stop stop-opacity="1" stop-color="rgb(54.931641%, 70.7901%, 89.199829%)" offset="0.355469"/><stop stop-opacity="1" stop-color="rgb(55.363464%, 70.999146%, 89.399719%)" offset="0.359375"/><stop stop-opacity="1" stop-color="rgb(55.554199%, 71.221924%, 89.422607%)" offset="0.363281"/><stop stop-opacity="1" stop-color="rgb(55.744934%, 71.444702%, 89.445496%)" offset="0.367188"/><stop stop-opacity="1" stop-color="rgb(56.135559%, 71.635437%, 89.622498%)" offset="0.371094"/><stop stop-opacity="1" stop-color="rgb(56.526184%, 71.826172%, 89.7995%)" offset="0.375"/><stop stop-opacity="1" stop-color="rgb(56.716919%, 72.015381%, 89.802551%)" offset="0.382812"/><stop stop-opacity="1" stop-color="rgb(57.249451%, 72.546387%, 90.002441%)" offset="0.386719"/><stop stop-opacity="1" stop-color="rgb(57.591248%, 72.888184%, 90.19928%)" offset="0.390625"/><stop stop-opacity="1" stop-color="rgb(57.829285%, 73.092651%, 90.234375%)" offset="0.394531"/><stop stop-opacity="1" stop-color="rgb(58.068848%, 73.298645%, 90.26947%)" offset="0.398437"/><stop stop-opacity="1" stop-color="rgb(58.459473%, 73.524475%, 90.434265%)" offset="0.402344"/><stop stop-opacity="1" stop-color="rgb(58.850098%, 73.750305%, 90.59906%)" offset="0.40625"/><stop stop-opacity="1" stop-color="rgb(59.040833%, 73.94104%, 90.614319%)" offset="0.414062"/><stop stop-opacity="1" stop-color="rgb(59.622192%, 74.32251%, 90.814209%)" offset="0.417969"/><stop stop-opacity="1" stop-color="rgb(60.012817%, 74.513245%, 90.99884%)" offset="0.421875"/><stop stop-opacity="1" stop-color="rgb(60.205078%, 74.705505%, 90.99884%)" offset="0.429688"/><stop stop-opacity="1" stop-color="rgb(60.786438%, 75.286865%, 91.19873%)" offset="0.433594"/><stop stop-opacity="1" stop-color="rgb(61.175537%, 75.674438%, 91.398621%)" offset="0.4375"/><stop stop-opacity="1" stop-color="rgb(61.187744%, 75.686646%, 91.398621%)" offset="0.5"/><stop stop-opacity="1" stop-color="rgb(61.199951%, 75.698853%, 91.398621%)" offset="1"/></linearGradient><clipPath id="f11b7c7b2c"><path d="M 14.523438 22.011719 L 20.855469 22.011719 L 20.855469 29.96875 L 14.523438 29.96875 Z M 14.523438 22.011719 " clip-rule="nonzero"/></clipPath><clipPath id="9d629e6b7c"><path d="M 16.261719 23.113281 L 15.390625 26.230469 L 15.285156 26.167969 C 15.257812 26.140625 15.21875 26.109375 15.164062 26.078125 L 14.523438 25.707031 L 14.523438 22.011719 C 14.527344 22.078125 14.582031 22.148438 14.695312 22.21875 Z M 20.855469 26.800781 L 20.855469 27.742188 L 19.058594 28.804688 L 19.058594 29.457031 L 18.175781 29.96875 L 20.261719 22.46875 L 20.6875 22.222656 C 20.78125 22.167969 20.835938 22.117188 20.855469 22.066406 L 20.855469 26.800781 " clip-rule="nonzero"/></clipPath><linearGradient x1="0.00355417" gradientTransform="matrix(6.397812, 0, 0, 6.408938, 14.502301, 25.991057)" y1="0" x2="0.993" gradientUnits="userSpaceOnUse" y2="0" id="24ec57c743"><stop stop-opacity="1" stop-color="rgb(59.999084%, 55.699158%, 81.199646%)" offset="0"/><stop stop-opacity="1" stop-color="rgb(59.999084%, 55.699158%, 81.199646%)" offset="0.25"/><stop stop-opacity="1" stop-color="rgb(59.999084%, 55.699158%, 81.199646%)" offset="0.3125"/><stop stop-opacity="1" stop-color="rgb(59.999084%, 55.793762%, 81.199646%)" offset="0.328125"/><stop stop-opacity="1" stop-color="rgb(59.999084%, 55.990601%, 81.199646%)" offset="0.34375"/><stop stop-opacity="1" stop-color="rgb(60.398865%, 56.295776%, 81.362915%)" offset="0.347656"/><stop stop-opacity="1" stop-color="rgb(60.798645%, 56.498718%, 81.526184%)" offset="0.351562"/><stop stop-opacity="1" stop-color="rgb(61.203003%, 56.90155%, 81.762695%)" offset="0.355469"/><stop stop-opacity="1" stop-color="rgb(61.607361%, 57.305908%, 81.999207%)" offset="0.359375"/><stop stop-opacity="1" stop-color="rgb(61.997986%, 57.647705%, 82.194519%)" offset="0.363281"/><stop stop-opacity="1" stop-color="rgb(62.390137%, 57.989502%, 82.389832%)" offset="0.367187"/><stop stop-opacity="1" stop-color="rgb(62.730408%, 58.19397%, 82.394409%)" offset="0.371094"/><stop stop-opacity="1" stop-color="rgb(63.070679%, 58.399963%, 82.398987%)" offset="0.375"/><stop stop-opacity="1" stop-color="rgb(63.461304%, 58.77533%, 82.548523%)" offset="0.378906"/><stop stop-opacity="1" stop-color="rgb(63.851929%, 59.152222%, 82.699585%)" offset="0.382812"/><stop stop-opacity="1" stop-color="rgb(64.4104%, 59.542847%, 82.899475%)" offset="0.386719"/><stop stop-opacity="1" stop-color="rgb(64.968872%, 59.934998%, 83.099365%)" offset="0.390625"/><stop stop-opacity="1" stop-color="rgb(65.441895%, 60.374451%, 83.299255%)" offset="0.394531"/><stop stop-opacity="1" stop-color="rgb(65.916443%, 60.81543%, 83.499146%)" offset="0.398437"/><stop stop-opacity="1" stop-color="rgb(66.307068%, 61.206055%, 83.69751%)" offset="0.402344"/><stop stop-opacity="1" stop-color="rgb(66.697693%, 61.598206%, 83.8974%)" offset="0.40625"/><stop stop-opacity="1" stop-color="rgb(66.888428%, 61.988831%, 84.088135%)" offset="0.410156"/><stop stop-opacity="1" stop-color="rgb(67.079163%, 62.379456%, 84.27887%)" offset="0.414062"/><stop stop-opacity="1" stop-color="rgb(67.269897%, 62.719727%, 84.288025%)" offset="0.417969"/><stop stop-opacity="1" stop-color="rgb(67.460632%, 63.059998%, 84.298706%)" offset="0.421875"/><stop stop-opacity="1" stop-color="rgb(67.800903%, 63.450623%, 84.498596%)" offset="0.425781"/><stop stop-opacity="1" stop-color="rgb(68.1427%, 63.842773%, 84.698486%)" offset="0.429687"/><stop stop-opacity="1" stop-color="rgb(68.333435%, 64.033508%, 84.898376%)" offset="0.433594"/><stop stop-opacity="1" stop-color="rgb(68.52417%, 64.224243%, 85.099792%)" offset="0.4375"/><stop stop-opacity="1" stop-color="rgb(68.965149%, 64.660645%, 85.299683%)" offset="0.441406"/><stop stop-opacity="1" stop-color="rgb(69.406128%, 65.098572%, 85.499573%)" offset="0.445312"/><stop stop-opacity="1" stop-color="rgb(69.602966%, 65.292358%, 85.499573%)" offset="0.449219"/><stop stop-opacity="1" stop-color="rgb(69.799805%, 65.487671%, 85.499573%)" offset="0.453125"/><stop stop-opacity="1" stop-color="rgb(70.184326%, 65.878296%, 85.699463%)" offset="0.457031"/><stop stop-opacity="1" stop-color="rgb(70.568848%, 66.268921%, 85.899353%)" offset="0.460937"/><stop stop-opacity="1" stop-color="rgb(70.959473%, 66.659546%, 86.099243%)" offset="0.464844"/><stop stop-opacity="1" stop-color="rgb(71.350098%, 67.050171%, 86.299133%)" offset="0.46875"/><stop stop-opacity="1" stop-color="rgb(71.740723%, 67.399597%, 86.499023%)" offset="0.472656"/><stop stop-opacity="1" stop-color="rgb(72.131348%, 67.749023%, 86.698914%)" offset="0.476562"/><stop stop-opacity="1" stop-color="rgb(72.514343%, 67.980957%, 86.706543%)" offset="0.480469"/><stop stop-opacity="1" stop-color="rgb(72.898865%, 68.212891%, 86.714172%)" offset="0.484375"/><stop stop-opacity="1" stop-color="rgb(73.097229%, 68.603516%, 86.906433%)" offset="0.488281"/><stop stop-opacity="1" stop-color="rgb(73.295593%, 68.995667%, 87.098694%)" offset="0.492187"/><stop stop-opacity="1" stop-color="rgb(73.497009%, 69.197083%, 87.298584%)" offset="0.496094"/><stop stop-opacity="1" stop-color="rgb(73.699951%, 69.398499%, 87.5%)" offset="0.5"/><stop stop-opacity="1" stop-color="rgb(74.078369%, 69.778442%, 87.634277%)" offset="0.503906"/><stop stop-opacity="1" stop-color="rgb(74.458313%, 70.158386%, 87.768555%)" offset="0.507812"/><stop stop-opacity="1" stop-color="rgb(74.848938%, 70.549011%, 87.783813%)" offset="0.511719"/><stop stop-opacity="1" stop-color="rgb(75.239563%, 70.939636%, 87.799072%)" offset="0.515625"/><stop stop-opacity="1" stop-color="rgb(75.480652%, 71.380615%, 88.009644%)" offset="0.519531"/><stop stop-opacity="1" stop-color="rgb(75.721741%, 71.821594%, 88.221741%)" offset="0.523438"/><stop stop-opacity="1" stop-color="rgb(76.112366%, 72.010803%, 88.409424%)" offset="0.527344"/><stop stop-opacity="1" stop-color="rgb(76.502991%, 72.201538%, 88.598633%)" offset="0.53125"/><stop stop-opacity="1" stop-color="rgb(76.893616%, 72.543335%, 88.790894%)" offset="0.535156"/><stop stop-opacity="1" stop-color="rgb(77.284241%, 72.885132%, 88.98468%)" offset="0.539062"/><stop stop-opacity="1" stop-color="rgb(77.441406%, 73.275757%, 88.99231%)" offset="0.542969"/><stop stop-opacity="1" stop-color="rgb(77.598572%, 73.666382%, 88.999939%)" offset="0.546875"/><stop stop-opacity="1" stop-color="rgb(77.972412%, 73.857117%, 89.199829%)" offset="0.550781"/><stop stop-opacity="1" stop-color="rgb(78.347778%, 74.047852%, 89.399719%)" offset="0.554687"/><stop stop-opacity="1" stop-color="rgb(78.738403%, 74.438477%, 89.599609%)" offset="0.558594"/><stop stop-opacity="1" stop-color="rgb(79.129028%, 74.829102%, 89.7995%)" offset="0.5625"/><stop stop-opacity="1" stop-color="rgb(79.370117%, 75.270081%, 89.99939%)" offset="0.566406"/><stop stop-opacity="1" stop-color="rgb(79.611206%, 75.71106%, 90.19928%)" offset="0.570312"/><stop stop-opacity="1" stop-color="rgb(80.001831%, 75.904846%, 90.19928%)" offset="0.574219"/><stop stop-opacity="1" stop-color="rgb(80.392456%, 76.098633%, 90.19928%)" offset="0.578125"/><stop stop-opacity="1" stop-color="rgb(80.395508%, 76.098633%, 90.19928%)" offset="0.59375"/><stop stop-opacity="1" stop-color="rgb(80.39856%, 76.098633%, 90.19928%)" offset="0.625"/><stop stop-opacity="1" stop-color="rgb(80.39856%, 76.098633%, 90.19928%)" offset="0.75"/><stop stop-opacity="1" stop-color="rgb(80.39856%, 76.098633%, 90.19928%)" offset="1"/></linearGradient><clipPath id="8012f35d03"><path d="M 9.007812 26.300781 L 14.464844 26.300781 L 14.464844 33.453125 L 9.007812 33.453125 Z M 9.007812 26.300781 " clip-rule="nonzero"/></clipPath><clipPath id="b8f980bf87"><path d="M 9.007812 30.425781 L 9.007812 26.300781 C 9.007812 26.34375 9.066406 26.402344 9.175781 26.472656 L 10.226562 27.070312 L 10.226562 27.074219 L 10.460938 27.214844 L 10.472656 27.214844 L 11.835938 28.007812 C 12.066406 28.136719 12.292969 28.132812 12.519531 28.003906 L 14.464844 26.878906 L 12.710938 33.214844 L 12.527344 33.320312 C 12.515625 33.328125 12.503906 33.335938 12.492188 33.339844 C 12.273438 33.453125 12.058594 33.445312 11.84375 33.316406 L 9.175781 31.792969 C 9.0625 31.722656 9.007812 31.65625 9.007812 31.582031 L 9.007812 30.425781 " clip-rule="nonzero"/></clipPath><linearGradient x1="0.00437279" gradientTransform="matrix(6.397812, 0, 0, 6.408938, 8.980091, 29.85947)" y1="0" x2="0.857032" gradientUnits="userSpaceOnUse" y2="0" id="6f7608941d"><stop stop-opacity="1" stop-color="rgb(97.299194%, 61.199951%, 5.899048%)" offset="0"/><stop stop-opacity="1" stop-color="rgb(97.299194%, 61.199951%, 5.899048%)" offset="0.25"/><stop stop-opacity="1" stop-color="rgb(97.299194%, 61.199951%, 5.899048%)" offset="0.375"/><stop stop-opacity="1" stop-color="rgb(97.299194%, 61.199951%, 5.899048%)" offset="0.390625"/><stop stop-opacity="1" stop-color="rgb(97.299194%, 61.235046%, 5.699158%)" offset="0.394531"/><stop stop-opacity="1" stop-color="rgb(97.299194%, 61.270142%, 5.499268%)" offset="0.398438"/><stop stop-opacity="1" stop-color="rgb(97.299194%, 61.660767%, 5.499268%)" offset="0.402344"/><stop stop-opacity="1" stop-color="rgb(97.299194%, 62.051392%, 5.499268%)" offset="0.40625"/><stop stop-opacity="1" stop-color="rgb(97.299194%, 62.231445%, 5.499268%)" offset="0.414062"/><stop stop-opacity="1" stop-color="rgb(97.299194%, 62.562561%, 5.499268%)" offset="0.421875"/><stop stop-opacity="1" stop-color="rgb(97.299194%, 62.905884%, 5.499268%)" offset="0.429688"/><stop stop-opacity="1" stop-color="rgb(97.299194%, 63.487244%, 5.299377%)" offset="0.433594"/><stop stop-opacity="1" stop-color="rgb(97.299194%, 63.874817%, 5.099487%)" offset="0.4375"/><stop stop-opacity="1" stop-color="rgb(97.299194%, 64.115906%, 5.099487%)" offset="0.441406"/><stop stop-opacity="1" stop-color="rgb(97.299194%, 64.356995%, 5.099487%)" offset="0.445312"/><stop stop-opacity="1" stop-color="rgb(97.44873%, 64.546204%, 5.099487%)" offset="0.453125"/><stop stop-opacity="1" stop-color="rgb(97.599792%, 65.118408%, 5.099487%)" offset="0.457031"/><stop stop-opacity="1" stop-color="rgb(97.599792%, 65.499878%, 5.099487%)" offset="0.460937"/><stop stop-opacity="1" stop-color="rgb(97.599792%, 65.699768%, 4.899597%)" offset="0.464844"/><stop stop-opacity="1" stop-color="rgb(97.599792%, 65.899658%, 4.699707%)" offset="0.46875"/><stop stop-opacity="1" stop-color="rgb(97.599792%, 66.094971%, 4.699707%)" offset="0.476563"/><stop stop-opacity="1" stop-color="rgb(97.599792%, 66.525269%, 4.699707%)" offset="0.480469"/><stop stop-opacity="1" stop-color="rgb(97.599792%, 66.76178%, 4.699707%)" offset="0.484375"/><stop stop-opacity="1" stop-color="rgb(97.599792%, 67.129517%, 4.699707%)" offset="0.488281"/><stop stop-opacity="1" stop-color="rgb(97.599792%, 67.498779%, 4.699707%)" offset="0.492188"/><stop stop-opacity="1" stop-color="rgb(97.599792%, 67.648315%, 4.699707%)" offset="0.5"/><stop stop-opacity="1" stop-color="rgb(97.599792%, 68.000793%, 4.499817%)" offset="0.503906"/><stop stop-opacity="1" stop-color="rgb(97.599792%, 68.202209%, 4.299927%)" offset="0.507813"/><stop stop-opacity="1" stop-color="rgb(97.599792%, 68.395996%, 4.299927%)" offset="0.515625"/><stop stop-opacity="1" stop-color="rgb(97.631836%, 68.82782%, 4.299927%)" offset="0.519531"/><stop stop-opacity="1" stop-color="rgb(97.665405%, 69.065857%, 4.299927%)" offset="0.523438"/><stop stop-opacity="1" stop-color="rgb(97.831726%, 69.432068%, 4.299927%)" offset="0.527344"/><stop stop-opacity="1" stop-color="rgb(97.999573%, 69.799805%, 4.299927%)" offset="0.53125"/><stop stop-opacity="1" stop-color="rgb(97.999573%, 69.813538%, 4.299927%)" offset="0.539063"/><stop stop-opacity="1" stop-color="rgb(97.999573%, 70.217896%, 4.098511%)" offset="0.542969"/><stop stop-opacity="1" stop-color="rgb(97.999573%, 70.608521%, 3.898621%)" offset="0.546875"/><stop stop-opacity="1" stop-color="rgb(97.999573%, 70.999146%, 3.898621%)" offset="0.550781"/><stop stop-opacity="1" stop-color="rgb(97.999573%, 71.389771%, 3.898621%)" offset="0.554688"/><stop stop-opacity="1" stop-color="rgb(97.999573%, 71.578979%, 3.898621%)" offset="0.5625"/><stop stop-opacity="1" stop-color="rgb(97.999573%, 72.134399%, 3.898621%)" offset="0.566406"/><stop stop-opacity="1" stop-color="rgb(97.999573%, 72.499084%, 3.898621%)" offset="0.570313"/><stop stop-opacity="1" stop-color="rgb(97.999573%, 72.715759%, 3.881836%)" offset="0.574219"/><stop stop-opacity="1" stop-color="rgb(97.999573%, 72.932434%, 3.866577%)" offset="0.578125"/><stop stop-opacity="1" stop-color="rgb(97.999573%, 73.31543%, 3.681946%)" offset="0.582031"/><stop stop-opacity="1" stop-color="rgb(97.999573%, 73.699951%, 3.49884%)" offset="0.585938"/><stop stop-opacity="1" stop-color="rgb(97.999573%, 73.89679%, 3.49884%)" offset="0.589844"/><stop stop-opacity="1" stop-color="rgb(97.999573%, 74.093628%, 3.49884%)" offset="0.59375"/><stop stop-opacity="1" stop-color="rgb(97.999573%, 74.484253%, 3.49884%)" offset="0.597656"/><stop stop-opacity="1" stop-color="rgb(97.999573%, 74.874878%, 3.49884%)" offset="0.601562"/><stop stop-opacity="1" stop-color="rgb(98.027039%, 74.914551%, 3.469849%)" offset="0.609375"/><stop stop-opacity="1" stop-color="rgb(98.226929%, 75.346375%, 3.269958%)" offset="0.613281"/><stop stop-opacity="1" stop-color="rgb(98.399353%, 75.737%, 3.09906%)" offset="0.617188"/><stop stop-opacity="1" stop-color="rgb(98.399353%, 75.927734%, 3.09906%)" offset="0.625"/><stop stop-opacity="1" stop-color="rgb(98.399353%, 76.507568%, 3.09906%)" offset="0.628906"/><stop stop-opacity="1" stop-color="rgb(98.399353%, 76.898193%, 3.09906%)" offset="0.632812"/><stop stop-opacity="1" stop-color="rgb(98.399353%, 77.241516%, 2.908325%)" offset="0.636719"/><stop stop-opacity="1" stop-color="rgb(98.399353%, 77.584839%, 2.719116%)" offset="0.640625"/><stop stop-opacity="1" stop-color="rgb(98.399353%, 77.622986%, 2.708435%)" offset="0.648438"/><stop stop-opacity="1" stop-color="rgb(98.220825%, 78.030396%, 2.69928%)" offset="0.652344"/><stop stop-opacity="1" stop-color="rgb(98.042297%, 78.399658%, 2.69928%)" offset="0.65625"/><stop stop-opacity="1" stop-color="rgb(98.220825%, 78.599548%, 2.69928%)" offset="0.660156"/><stop stop-opacity="1" stop-color="rgb(98.399353%, 78.799438%, 2.69928%)" offset="0.664062"/><stop stop-opacity="1" stop-color="rgb(98.399353%, 78.799438%, 2.69928%)" offset="0.671875"/><stop stop-opacity="1" stop-color="rgb(98.399353%, 78.799438%, 2.69928%)" offset="0.6875"/><stop stop-opacity="1" stop-color="rgb(98.399353%, 78.799438%, 2.69928%)" offset="0.75"/><stop stop-opacity="1" stop-color="rgb(98.399353%, 78.799438%, 2.69928%)" offset="1"/></linearGradient><clipPath id="08b370d7d0"><path d="M 14.523438 14.453125 L 20.863281 14.453125 L 20.863281 23.113281 L 14.523438 23.113281 Z M 14.523438 14.453125 " clip-rule="nonzero"/></clipPath><clipPath id="da61161e57"><path d="M 20.855469 14.464844 L 20.855469 17.113281 L 19.496094 15.695312 C 19.496094 15.691406 19.496094 15.691406 19.492188 15.691406 L 19.484375 15.691406 L 19.175781 15.5 L 20.679688 14.628906 C 20.777344 14.570312 20.835938 14.515625 20.855469 14.464844 Z M 14.523438 15.1875 L 14.523438 14.453125 C 14.527344 14.5 14.582031 14.554688 14.695312 14.621094 L 15.75 15.222656 L 15.742188 15.230469 L 15.984375 15.363281 L 15.988281 15.363281 L 17.351562 16.164062 C 17.585938 16.289062 17.816406 16.289062 18.042969 16.15625 L 18.238281 16.042969 L 16.261719 23.113281 L 14.695312 22.21875 C 14.582031 22.148438 14.527344 22.078125 14.523438 22.011719 L 14.523438 20.726562 C 14.523438 20.71875 14.523438 20.710938 14.523438 20.707031 Z M 20.855469 22.066406 C 20.835938 22.117188 20.78125 22.167969 20.6875 22.222656 L 20.261719 22.46875 L 20.667969 21.007812 L 20.855469 21.199219 L 20.855469 21.53125 C 20.863281 21.550781 20.863281 21.570312 20.855469 21.59375 L 20.859375 21.585938 L 20.855469 21.992188 C 20.863281 22.015625 20.863281 22.039062 20.855469 22.066406 " clip-rule="nonzero"/></clipPath><linearGradient x1="0.00355417" gradientTransform="matrix(6.397812, 0, 0, 6.408938, 14.502301, 18.783811)" y1="0" x2="0.994302" gradientUnits="userSpaceOnUse" y2="0" id="21f543208a"><stop stop-opacity="1" stop-color="rgb(59.999084%, 55.699158%, 81.199646%)" offset="0"/><stop stop-opacity="1" stop-color="rgb(59.999084%, 55.699158%, 81.199646%)" offset="0.25"/><stop stop-opacity="1" stop-color="rgb(59.999084%, 55.699158%, 81.199646%)" offset="0.3125"/><stop stop-opacity="1" stop-color="rgb(59.999084%, 55.795288%, 81.199646%)" offset="0.328125"/><stop stop-opacity="1" stop-color="rgb(59.999084%, 55.992126%, 81.199646%)" offset="0.34375"/><stop stop-opacity="1" stop-color="rgb(60.568237%, 56.295776%, 81.399536%)" offset="0.347656"/><stop stop-opacity="1" stop-color="rgb(61.13739%, 56.498718%, 81.599426%)" offset="0.351563"/><stop stop-opacity="1" stop-color="rgb(61.378479%, 56.906128%, 81.799316%)" offset="0.355469"/><stop stop-opacity="1" stop-color="rgb(61.619568%, 57.313538%, 81.999207%)" offset="0.359375"/><stop stop-opacity="1" stop-color="rgb(62.010193%, 57.65686%, 82.199097%)" offset="0.363281"/><stop stop-opacity="1" stop-color="rgb(62.400818%, 58.000183%, 82.398987%)" offset="0.367188"/><stop stop-opacity="1" stop-color="rgb(62.741089%, 58.200073%, 82.398987%)" offset="0.371094"/><stop stop-opacity="1" stop-color="rgb(63.082886%, 58.399963%, 82.398987%)" offset="0.375"/><stop stop-opacity="1" stop-color="rgb(63.473511%, 58.781433%, 82.548523%)" offset="0.378906"/><stop stop-opacity="1" stop-color="rgb(63.864136%, 59.164429%, 82.699585%)" offset="0.382812"/><stop stop-opacity="1" stop-color="rgb(64.454651%, 59.555054%, 82.899475%)" offset="0.386719"/><stop stop-opacity="1" stop-color="rgb(65.046692%, 59.945679%, 83.099365%)" offset="0.390625"/><stop stop-opacity="1" stop-color="rgb(65.487671%, 60.586548%, 83.312988%)" offset="0.394531"/><stop stop-opacity="1" stop-color="rgb(65.92865%, 61.227417%, 83.528137%)" offset="0.398438"/><stop stop-opacity="1" stop-color="rgb(66.313171%, 61.613464%, 83.712769%)" offset="0.402344"/><stop stop-opacity="1" stop-color="rgb(66.699219%, 61.999512%, 83.898926%)" offset="0.40625"/><stop stop-opacity="1" stop-color="rgb(66.894531%, 62.194824%, 84.094238%)" offset="0.410156"/><stop stop-opacity="1" stop-color="rgb(67.09137%, 62.391663%, 84.291077%)" offset="0.414062"/><stop stop-opacity="1" stop-color="rgb(67.434692%, 62.731934%, 84.294128%)" offset="0.417969"/><stop stop-opacity="1" stop-color="rgb(67.779541%, 63.07373%, 84.298706%)" offset="0.421875"/><stop stop-opacity="1" stop-color="rgb(67.967224%, 63.464355%, 84.498596%)" offset="0.425781"/><stop stop-opacity="1" stop-color="rgb(68.154907%, 63.85498%, 84.698486%)" offset="0.429688"/><stop stop-opacity="1" stop-color="rgb(68.545532%, 64.045715%, 84.898376%)" offset="0.433594"/><stop stop-opacity="1" stop-color="rgb(68.937683%, 64.237976%, 85.099792%)" offset="0.4375"/><stop stop-opacity="1" stop-color="rgb(69.178772%, 64.677429%, 85.299683%)" offset="0.441406"/><stop stop-opacity="1" stop-color="rgb(69.419861%, 65.118408%, 85.499573%)" offset="0.445312"/><stop stop-opacity="1" stop-color="rgb(69.610596%, 65.309143%, 85.499573%)" offset="0.453125"/><stop stop-opacity="1" stop-color="rgb(70.191956%, 65.892029%, 85.699463%)" offset="0.457031"/><stop stop-opacity="1" stop-color="rgb(70.582581%, 66.282654%, 85.899353%)" offset="0.460938"/><stop stop-opacity="1" stop-color="rgb(70.973206%, 66.673279%, 86.099243%)" offset="0.464844"/><stop stop-opacity="1" stop-color="rgb(71.365356%, 67.063904%, 86.299133%)" offset="0.46875"/><stop stop-opacity="1" stop-color="rgb(71.755981%, 67.411804%, 86.499023%)" offset="0.472656"/><stop stop-opacity="1" stop-color="rgb(72.146606%, 67.759705%, 86.698914%)" offset="0.476562"/><stop stop-opacity="1" stop-color="rgb(72.521973%, 67.993164%, 86.712646%)" offset="0.480469"/><stop stop-opacity="1" stop-color="rgb(72.898865%, 68.228149%, 86.727905%)" offset="0.484375"/><stop stop-opacity="1" stop-color="rgb(73.104858%, 68.618774%, 86.91864%)" offset="0.488281"/><stop stop-opacity="1" stop-color="rgb(73.310852%, 69.009399%, 87.110901%)" offset="0.492188"/><stop stop-opacity="1" stop-color="rgb(73.504639%, 69.203186%, 87.304688%)" offset="0.5"/><stop stop-opacity="1" stop-color="rgb(74.085999%, 69.973755%, 87.640381%)" offset="0.503906"/><stop stop-opacity="1" stop-color="rgb(74.473572%, 70.549011%, 87.780762%)" offset="0.507812"/><stop stop-opacity="1" stop-color="rgb(74.864197%, 70.751953%, 87.968445%)" offset="0.511719"/><stop stop-opacity="1" stop-color="rgb(75.256348%, 70.956421%, 88.156128%)" offset="0.515625"/><stop stop-opacity="1" stop-color="rgb(75.495911%, 71.395874%, 88.195801%)" offset="0.519531"/><stop stop-opacity="1" stop-color="rgb(75.737%, 71.836853%, 88.237%)" offset="0.523438"/><stop stop-opacity="1" stop-color="rgb(76.127625%, 72.024536%, 88.417053%)" offset="0.527344"/><stop stop-opacity="1" stop-color="rgb(76.519775%, 72.213745%, 88.598633%)" offset="0.53125"/><stop stop-opacity="1" stop-color="rgb(76.9104%, 72.557068%, 88.798523%)" offset="0.535156"/><stop stop-opacity="1" stop-color="rgb(77.301025%, 72.901917%, 88.999939%)" offset="0.539062"/><stop stop-opacity="1" stop-color="rgb(77.641296%, 73.292542%, 89.190674%)" offset="0.542969"/><stop stop-opacity="1" stop-color="rgb(77.983093%, 73.683167%, 89.382935%)" offset="0.546875"/><stop stop-opacity="1" stop-color="rgb(78.373718%, 73.890686%, 89.390564%)" offset="0.550781"/><stop stop-opacity="1" stop-color="rgb(78.764343%, 74.099731%, 89.399719%)" offset="0.554688"/><stop stop-opacity="1" stop-color="rgb(78.955078%, 74.645996%, 89.599609%)" offset="0.558594"/><stop stop-opacity="1" stop-color="rgb(79.147339%, 75.193787%, 89.7995%)" offset="0.5625"/><stop stop-opacity="1" stop-color="rgb(79.573059%, 75.460815%, 89.99939%)" offset="0.566406"/><stop stop-opacity="1" stop-color="rgb(79.998779%, 75.727844%, 90.19928%)" offset="0.570312"/><stop stop-opacity="1" stop-color="rgb(80.198669%, 75.912476%, 90.19928%)" offset="0.574219"/><stop stop-opacity="1" stop-color="rgb(80.39856%, 76.098633%, 90.19928%)" offset="0.578125"/><stop stop-opacity="1" stop-color="rgb(80.39856%, 76.098633%, 90.19928%)" offset="0.59375"/><stop stop-opacity="1" stop-color="rgb(80.39856%, 76.098633%, 90.19928%)" offset="0.625"/><stop stop-opacity="1" stop-color="rgb(80.39856%, 76.098633%, 90.19928%)" offset="0.75"/><stop stop-opacity="1" stop-color="rgb(80.39856%, 76.098633%, 90.19928%)" offset="1"/></linearGradient></defs><g clip-path="url(#226ca5639d)"><path fill="#f6fcfe" d="M 25.417969 37.003906 C 25.269531 36.886719 25.148438 36.789062 25.054688 36.710938 L 22.09375 38.417969 L 22.753906 38.800781 L 25.597656 37.148438 C 25.542969 37.105469 25.480469 37.054688 25.417969 37.003906 Z M 23.132812 34.957031 C 23.289062 35.046875 23.410156 35.128906 23.5 35.210938 L 25.773438 33.894531 L 25.109375 33.511719 L 22.871094 34.816406 C 22.953125 34.851562 23.039062 34.902344 23.132812 34.957031 Z M 27.835938 35.089844 L 25.367188 36.523438 C 25.683594 36.632812 25.921875 36.746094 26.082031 36.867188 L 28.492188 35.46875 Z M 26.472656 34.304688 L 22.335938 36.703125 C 22.414062 36.761719 22.503906 36.828125 22.605469 36.90625 C 22.714844 36.996094 22.808594 37.078125 22.886719 37.148438 L 24.261719 36.351562 L 24.257812 36.34375 L 27.136719 34.679688 Z M 27.4375 32.332031 L 26.179688 33.054688 L 26.832031 33.433594 L 28.0625 32.722656 C 27.808594 32.566406 27.597656 32.4375 27.4375 32.332031 Z M 25.558594 27.640625 L 27.554688 26.488281 L 26.894531 26.109375 L 25.007812 27.203125 C 25.210938 27.316406 25.394531 27.460938 25.558594 27.640625 Z M 25.597656 29.347656 C 25.621094 29.335938 25.636719 29.324219 25.648438 29.316406 C 25.65625 29.3125 25.664062 29.308594 25.671875 29.308594 C 25.835938 29.214844 26.03125 29.171875 26.257812 29.175781 C 26.480469 29.183594 26.671875 29.230469 26.832031 29.316406 C 26.847656 29.324219 26.859375 29.332031 26.871094 29.339844 C 26.875 29.339844 26.878906 29.34375 26.878906 29.347656 C 27.046875 29.445312 27.132812 29.566406 27.136719 29.707031 C 27.136719 29.847656 27.050781 29.96875 26.882812 30.066406 C 26.863281 30.074219 26.84375 30.082031 26.828125 30.089844 C 26.667969 30.167969 26.484375 30.203125 26.277344 30.195312 C 26.039062 30.191406 25.835938 30.140625 25.664062 30.046875 C 25.664062 30.042969 25.664062 30.042969 25.660156 30.039062 C 25.488281 29.9375 25.402344 29.8125 25.402344 29.671875 C 25.398438 29.542969 25.464844 29.4375 25.597656 29.347656 Z M 24.625 30.644531 L 24.621094 30.644531 C 25.070312 30.914062 25.609375 31.054688 26.242188 31.066406 C 26.871094 31.078125 27.40625 30.957031 27.847656 30.699219 C 28.285156 30.441406 28.503906 30.128906 28.5 29.761719 C 28.5 29.726562 28.496094 29.695312 28.488281 29.667969 C 28.449219 29.339844 28.226562 29.054688 27.8125 28.8125 L 27.820312 28.804688 C 27.53125 28.628906 27.203125 28.507812 26.832031 28.433594 C 26.632812 28.40625 26.425781 28.386719 26.203125 28.378906 C 26.015625 28.375 25.839844 28.382812 25.671875 28.40625 C 25.265625 28.453125 24.910156 28.5625 24.597656 28.746094 C 24.160156 29 23.945312 29.304688 23.949219 29.660156 C 23.945312 29.667969 23.945312 29.675781 23.949219 29.675781 C 23.953125 30.046875 24.175781 30.371094 24.625 30.644531 Z M 31.851562 30.527344 L 32.578125 30.105469 L 31.921875 29.722656 L 30.375 30.628906 C 30.394531 30.636719 30.417969 30.644531 30.4375 30.65625 C 30.105469 30.738281 29.800781 30.859375 29.519531 31.019531 C 29.308594 31.144531 29.132812 31.277344 29 31.417969 L 27.820312 32.101562 C 27.898438 32.132812 27.984375 32.171875 28.074219 32.21875 C 28.246094 32.304688 28.390625 32.386719 28.515625 32.460938 L 28.667969 32.375 C 28.699219 32.601562 28.800781 32.8125 28.976562 33.007812 L 27.539062 33.84375 L 28.203125 34.226562 L 29.542969 33.445312 C 29.796875 33.585938 30.078125 33.699219 30.378906 33.777344 L 28.910156 34.628906 L 29.558594 35.011719 L 31.429688 33.925781 L 31.421875 33.925781 C 31.488281 33.925781 31.554688 33.925781 31.621094 33.925781 C 32.4375 33.925781 33.136719 33.761719 33.710938 33.433594 C 34.292969 33.097656 34.582031 32.695312 34.582031 32.222656 C 34.582031 32.183594 34.582031 32.140625 34.578125 32.101562 L 35.300781 31.679688 L 34.648438 31.300781 L 34.308594 31.5 C 34.167969 31.328125 33.972656 31.167969 33.71875 31.023438 L 33.949219 30.890625 L 33.28125 30.515625 L 32.960938 30.699219 C 32.621094 30.601562 32.253906 30.542969 31.851562 30.527344 Z M 20.023438 37.222656 L 22.898438 35.5625 L 22.890625 35.558594 L 23.070312 35.453125 C 23 35.390625 22.921875 35.320312 22.832031 35.242188 C 22.71875 35.144531 22.625 35.066406 22.554688 35 L 19.367188 36.84375 Z M 21.386719 38.015625 L 22.359375 37.457031 C 22.265625 37.375 22.171875 37.277344 22.078125 37.160156 C 22.015625 37.085938 21.960938 37.015625 21.914062 36.945312 L 20.730469 37.632812 Z M 19.753906 35.511719 C 19.617188 35.394531 19.511719 35.296875 19.433594 35.226562 L 18.003906 36.058594 L 18.660156 36.433594 L 19.96875 35.683594 C 19.898438 35.632812 19.828125 35.578125 19.753906 35.511719 Z M 21.535156 34.769531 L 21.527344 34.765625 L 24.40625 33.105469 L 23.75 32.722656 L 19.753906 35.039062 C 19.839844 35.078125 19.9375 35.125 20.046875 35.175781 C 20.210938 35.253906 20.347656 35.328125 20.457031 35.394531 Z M 20.984375 33.359375 C 20.949219 33.332031 20.917969 33.304688 20.882812 33.273438 C 20.746094 33.144531 20.625 33.011719 20.519531 32.875 L 16.597656 35.152344 L 17.246094 35.53125 L 20.121094 33.867188 L 20.113281 33.859375 Z M 8.019531 26.359375 C 7.953125 26.226562 7.898438 26.097656 7.851562 25.972656 C 7.574219 26.132812 7.300781 26.296875 7.03125 26.457031 C 7.15625 26.570312 7.289062 26.753906 7.4375 26.996094 C 7.671875 26.855469 7.910156 26.71875 8.148438 26.578125 C 8.113281 26.519531 8.070312 26.445312 8.019531 26.359375 Z M 6.929688 27.007812 C 6.867188 26.886719 6.8125 26.757812 6.769531 26.621094 C 6.492188 26.789062 6.214844 26.953125 5.9375 27.113281 C 6.046875 27.296875 6.167969 27.484375 6.296875 27.675781 C 6.546875 27.53125 6.800781 27.378906 7.054688 27.226562 C 7.011719 27.160156 6.96875 27.085938 6.929688 27.007812 Z M 6.273438 24.171875 C 6.21875 24.019531 6.175781 23.898438 6.144531 23.800781 C 5.699219 24.058594 5.261719 24.3125 4.832031 24.574219 C 4.902344 24.773438 4.980469 24.988281 5.0625 25.207031 C 5.492188 24.949219 5.929688 24.691406 6.375 24.4375 C 6.339844 24.359375 6.304688 24.269531 6.273438 24.171875 Z M 4.589844 23.890625 C 4.832031 23.757812 5.066406 23.617188 5.304688 23.472656 C 5.273438 23.414062 5.246094 23.34375 5.226562 23.261719 C 5.15625 23.0625 5.113281 22.917969 5.097656 22.835938 C 4.859375 22.972656 4.625 23.117188 4.382812 23.261719 C 4.449219 23.46875 4.515625 23.679688 4.589844 23.890625 Z M 7.460938 21.453125 C 6.75 21.859375 6.050781 22.269531 5.355469 22.683594 C 5.390625 22.761719 5.433594 22.863281 5.476562 22.980469 C 5.53125 23.097656 5.578125 23.203125 5.617188 23.296875 C 6.285156 22.894531 6.953125 22.503906 7.621094 22.121094 C 7.589844 22.042969 7.554688 21.953125 7.527344 21.851562 C 7.496094 21.675781 7.472656 21.542969 7.460938 21.453125 Z M 10.40625 23.671875 C 10.886719 23.398438 11.371094 23.125 11.859375 22.847656 C 11.773438 22.628906 11.6875 22.425781 11.601562 22.234375 C 11.089844 22.527344 10.578125 22.820312 10.074219 23.109375 C 10.214844 23.289062 10.324219 23.476562 10.40625 23.671875 Z M 8.796875 22.246094 C 8.027344 22.691406 7.269531 23.132812 6.515625 23.574219 C 6.597656 23.664062 6.675781 23.785156 6.746094 23.933594 C 6.785156 24.007812 6.8125 24.082031 6.835938 24.164062 C 7.265625 23.90625 7.695312 23.652344 8.125 23.398438 C 8.410156 23.230469 8.699219 23.0625 8.992188 22.902344 C 8.953125 22.835938 8.921875 22.75 8.894531 22.648438 C 8.84375 22.480469 8.808594 22.347656 8.796875 22.246094 Z M 9.832031 23.691406 C 9.753906 23.535156 9.699219 23.417969 9.671875 23.332031 C 8.171875 24.191406 6.722656 25.039062 5.316406 25.867188 C 5.410156 26.082031 5.507812 26.289062 5.605469 26.480469 C 6.617188 25.878906 7.628906 25.277344 8.644531 24.679688 C 9.089844 24.433594 9.53125 24.183594 9.96875 23.933594 C 9.921875 23.859375 9.878906 23.78125 9.832031 23.691406 Z M 9.75 20.125 C 9.074219 20.507812 8.402344 20.894531 7.734375 21.289062 C 7.777344 21.363281 7.832031 21.46875 7.898438 21.597656 C 7.949219 21.707031 7.992188 21.800781 8.019531 21.875 C 8.652344 21.515625 9.289062 21.15625 9.933594 20.792969 C 9.898438 20.707031 9.863281 20.605469 9.832031 20.480469 C 9.792969 20.320312 9.765625 20.199219 9.75 20.125 Z M 10.589844 19.640625 C 10.40625 19.746094 10.222656 19.851562 10.035156 19.953125 C 10.113281 20.113281 10.199219 20.324219 10.292969 20.585938 C 10.46875 20.476562 10.648438 20.375 10.832031 20.273438 C 10.753906 20.058594 10.671875 19.847656 10.589844 19.640625 Z M 11.085938 20.953125 C 10.417969 21.324219 9.757812 21.699219 9.105469 22.082031 C 9.257812 22.285156 9.363281 22.476562 9.417969 22.660156 C 10.054688 22.300781 10.695312 21.941406 11.335938 21.578125 C 11.246094 21.363281 11.164062 21.15625 11.085938 20.953125 Z M 15.675781 12.1875 C 15.007812 12.558594 14.347656 12.9375 13.695312 13.316406 C 13.847656 13.519531 13.953125 13.714844 14.007812 13.898438 C 14.644531 13.539062 15.285156 13.175781 15.929688 12.8125 C 15.839844 12.597656 15.753906 12.390625 15.675781 12.1875 Z M 13.875 11.984375 C 14.355469 11.710938 14.839844 11.4375 15.328125 11.160156 C 15.242188 10.941406 15.15625 10.738281 15.070312 10.546875 C 14.554688 10.839844 14.046875 11.132812 13.542969 11.421875 C 13.679688 11.597656 13.792969 11.785156 13.875 11.984375 Z M 14.554688 9.265625 C 13.886719 9.636719 13.226562 10.011719 12.570312 10.394531 C 12.726562 10.597656 12.828125 10.789062 12.886719 10.972656 C 13.523438 10.613281 14.160156 10.253906 14.804688 9.886719 C 14.714844 9.675781 14.632812 9.464844 14.554688 9.265625 Z M 10.085938 18.359375 C 8.011719 19.539062 5.957031 20.738281 3.914062 21.957031 C 4 22.171875 4.074219 22.378906 4.140625 22.582031 C 5.164062 21.976562 6.191406 21.371094 7.230469 20.773438 L 7.230469 20.761719 C 8.25 20.167969 9.285156 19.574219 10.339844 18.972656 C 10.238281 18.761719 10.152344 18.558594 10.085938 18.359375 Z M 9.074219 14.789062 C 10.085938 14.191406 11.097656 13.589844 12.113281 12.992188 C 12.558594 12.746094 13 12.496094 13.4375 12.246094 C 13.390625 12.171875 13.347656 12.09375 13.300781 12.003906 C 13.222656 11.847656 13.167969 11.730469 13.136719 11.640625 C 11.640625 12.503906 10.191406 13.351562 8.785156 14.179688 C 8.878906 14.394531 8.972656 14.601562 9.074219 14.789062 Z M 10.867188 15.410156 C 10.808594 15.253906 10.765625 15.132812 10.738281 15.039062 C 10.292969 15.292969 9.855469 15.550781 9.421875 15.808594 C 9.496094 16.011719 9.570312 16.222656 9.652344 16.445312 C 10.082031 16.183594 10.523438 15.929688 10.964844 15.671875 C 10.929688 15.59375 10.894531 15.507812 10.867188 15.410156 Z M 11.335938 15.167969 C 11.375 15.242188 11.40625 15.320312 11.425781 15.398438 C 11.855469 15.144531 12.289062 14.886719 12.71875 14.632812 C 13 14.464844 13.289062 14.300781 13.582031 14.136719 C 13.542969 14.070312 13.511719 13.988281 13.488281 13.886719 C 13.433594 13.71875 13.402344 13.582031 13.386719 13.480469 C 12.617188 13.925781 11.859375 14.371094 11.105469 14.808594 C 11.1875 14.902344 11.265625 15.019531 11.335938 15.167969 Z M 4.757812 14.179688 C 4.410156 14.390625 4.117188 14.683594 3.878906 15.050781 C 3.632812 15.417969 3.46875 15.824219 3.390625 16.269531 L 3.355469 16.265625 C 3.238281 16.984375 3.339844 17.628906 3.664062 18.199219 C 3.800781 18.4375 3.957031 18.640625 4.144531 18.804688 L 4.242188 18.890625 L 4.53125 19.0625 C 4.648438 19.132812 4.78125 19.191406 4.921875 19.230469 C 4.945312 19.234375 4.96875 19.242188 4.988281 19.25 C 5.375 19.347656 5.765625 19.335938 6.164062 19.214844 L 6.15625 19.210938 C 6.378906 19.144531 6.597656 19.039062 6.820312 18.890625 C 7.363281 18.53125 7.75 18.023438 7.980469 17.375 L 7.992188 17.375 C 8.191406 16.78125 8.21875 16.195312 8.082031 15.621094 C 7.929688 15.058594 7.644531 14.609375 7.230469 14.285156 L 7.257812 14.257812 C 7.035156 14.085938 6.804688 13.964844 6.5625 13.902344 C 6.398438 13.851562 6.226562 13.820312 6.050781 13.8125 C 5.617188 13.800781 5.195312 13.914062 4.789062 14.15625 C 4.785156 14.160156 4.78125 14.164062 4.777344 14.167969 C 4.769531 14.171875 4.761719 14.171875 4.753906 14.171875 Z M 8.53125 13.519531 C 8.960938 13.261719 9.398438 13.003906 9.84375 12.75 C 9.808594 12.671875 9.773438 12.582031 9.742188 12.484375 C 9.6875 12.332031 9.644531 12.207031 9.613281 12.113281 C 9.167969 12.371094 8.730469 12.625 8.300781 12.886719 C 8.371094 13.085938 8.449219 13.300781 8.53125 13.519531 Z M 10.304688 12.472656 C 10.734375 12.21875 11.164062 11.964844 11.59375 11.710938 C 11.878906 11.542969 12.167969 11.375 12.460938 11.214844 C 12.421875 11.148438 12.390625 11.0625 12.363281 10.960938 C 12.3125 10.792969 12.277344 10.660156 12.261719 10.558594 C 11.496094 11.003906 10.738281 11.445312 9.984375 11.882812 C 10.066406 11.976562 10.144531 12.097656 10.214844 12.246094 C 10.25 12.320312 10.28125 12.394531 10.304688 12.472656 Z M 12.925781 23.140625 C 13.039062 23.324219 13.160156 23.511719 13.289062 23.703125 C 13.511719 23.570312 13.730469 23.441406 13.953125 23.3125 C 13.921875 23.265625 13.894531 23.207031 13.875 23.144531 C 13.789062 22.886719 13.730469 22.730469 13.699219 22.679688 C 13.4375 22.832031 13.179688 22.984375 12.925781 23.140625 Z M 21.117188 32.792969 C 21.234375 32.867188 21.359375 32.960938 21.488281 33.074219 L 22.992188 32.203125 L 22.566406 31.953125 L 24.070312 31.082031 L 23.023438 30.476562 L 23.023438 29.113281 L 24.683594 28.152344 L 24.675781 28.148438 L 25.074219 27.917969 C 24.980469 27.867188 24.875 27.804688 24.75 27.726562 C 24.621094 27.65625 24.519531 27.59375 24.4375 27.542969 L 22.640625 28.582031 L 21.046875 27.632812 L 20.855469 27.742188 L 20.855469 26.800781 L 22 27.457031 C 22.28125 27.617188 22.5625 27.617188 22.84375 27.457031 L 24.515625 26.480469 L 24.519531 26.480469 L 24.824219 26.308594 L 24.816406 26.304688 L 26.097656 25.5625 C 26.128906 25.542969 26.15625 25.523438 26.179688 25.507812 L 37.207031 31.886719 C 37.554688 32.078125 37.574219 32.261719 37.277344 32.445312 L 23.542969 40.386719 C 23.242188 40.554688 22.925781 40.539062 22.582031 40.34375 L 22.574219 40.34375 L 10.242188 33.214844 L 10.230469 33.214844 L 10.046875 33.097656 C 7.546875 31.5 5.730469 29.492188 4.589844 27.070312 L 0.0898438 15.894531 C -0.0625 15.5 0.0078125 15.214844 0.296875 15.039062 L 10.699219 9.027344 L 11.902344 9.726562 L 11.902344 8.332031 L 14.042969 7.09375 C 14.332031 6.925781 14.558594 7.035156 14.722656 7.425781 L 16.941406 12.925781 L 14.695312 14.21875 C 14.589844 14.28125 14.53125 14.34375 14.523438 14.410156 C 14.523438 14.417969 14.523438 14.421875 14.523438 14.429688 L 14.523438 15.113281 C 14.492188 15.054688 14.457031 14.992188 14.421875 14.925781 C 14.34375 14.773438 14.289062 14.652344 14.261719 14.566406 C 12.765625 15.429688 11.3125 16.273438 9.90625 17.101562 C 10 17.320312 10.097656 17.523438 10.199219 17.714844 C 11.207031 17.113281 12.21875 16.515625 13.234375 15.914062 C 13.667969 15.675781 14.097656 15.429688 14.523438 15.1875 L 14.523438 17.558594 L 14.402344 17.449219 C 14.441406 17.347656 14.445312 17.242188 14.414062 17.128906 C 14.378906 16.988281 14.292969 16.882812 14.160156 16.816406 C 14.023438 16.742188 13.878906 16.734375 13.726562 16.785156 C 13.574219 16.835938 13.457031 16.929688 13.375 17.066406 C 13.296875 17.203125 13.273438 17.34375 13.3125 17.488281 C 13.351562 17.632812 13.4375 17.738281 13.570312 17.808594 C 13.609375 17.820312 13.640625 17.835938 13.671875 17.847656 L 13.722656 20.070312 C 13.644531 20.101562 13.578125 20.144531 13.519531 20.199219 L 12.308594 19.542969 C 12.324219 19.46875 12.320312 19.398438 12.296875 19.328125 C 12.253906 19.179688 12.164062 19.074219 12.039062 19 C 11.898438 18.933594 11.753906 18.921875 11.601562 18.96875 C 11.449219 19.019531 11.332031 19.113281 11.253906 19.25 C 11.171875 19.390625 11.148438 19.535156 11.183594 19.675781 C 11.226562 19.824219 11.316406 19.929688 11.449219 19.996094 C 11.582031 20.066406 11.726562 20.078125 11.882812 20.03125 C 11.996094 19.988281 12.09375 19.921875 12.171875 19.832031 L 13.339844 20.472656 C 13.316406 20.566406 13.316406 20.664062 13.339844 20.765625 C 13.382812 20.914062 13.46875 21.019531 13.605469 21.085938 C 13.734375 21.160156 13.878906 21.167969 14.03125 21.117188 C 14.1875 21.070312 14.308594 20.976562 14.390625 20.839844 C 14.472656 20.703125 14.492188 20.558594 14.445312 20.40625 C 14.410156 20.265625 14.324219 20.160156 14.195312 20.09375 C 14.144531 20.066406 14.09375 20.050781 14.042969 20.042969 L 13.996094 17.832031 C 14.078125 17.808594 14.152344 17.773438 14.210938 17.726562 L 14.523438 18 L 14.523438 20.707031 C 14.523438 20.710938 14.523438 20.71875 14.523438 20.726562 L 14.523438 22.1875 C 14.347656 22.292969 14.167969 22.398438 13.992188 22.503906 C 14.070312 22.640625 14.175781 22.84375 14.3125 23.105469 C 14.382812 23.0625 14.453125 23.019531 14.523438 22.980469 L 14.523438 23.84375 C 14.261719 24 14 24.160156 13.738281 24.3125 C 13.890625 24.5 14.046875 24.6875 14.199219 24.875 C 14.308594 24.8125 14.417969 24.746094 14.523438 24.683594 L 14.523438 25.707031 L 14.390625 25.628906 L 14.394531 25.628906 L 13.265625 24.976562 L 13.265625 24.984375 L 12.941406 24.796875 C 12.917969 24.769531 12.898438 24.746094 12.878906 24.726562 C 12.871094 24.730469 12.859375 24.734375 12.851562 24.742188 L 12.511719 24.542969 C 12.273438 24.414062 12.042969 24.414062 11.8125 24.542969 L 9.175781 26.070312 C 9.070312 26.128906 9.015625 26.191406 9.007812 26.257812 C 9.007812 26.261719 9.007812 26.269531 9.007812 26.277344 L 9.007812 26.9375 C 8.230469 27.394531 7.476562 27.84375 6.746094 28.289062 C 6.898438 28.472656 7.054688 28.65625 7.207031 28.839844 C 7.808594 28.484375 8.410156 28.125 9.007812 27.769531 L 9.007812 28.667969 C 8.578125 28.925781 8.15625 29.179688 7.746094 29.429688 C 7.921875 29.613281 8.089844 29.800781 8.25 29.988281 C 8.503906 29.828125 8.757812 29.671875 9.007812 29.515625 L 9.007812 30.425781 C 8.945312 30.464844 8.878906 30.507812 8.816406 30.546875 C 8.882812 30.613281 8.945312 30.675781 9.007812 30.742188 L 9.007812 31.039062 L 8.441406 31.371094 C 8.308594 31.441406 8.242188 31.515625 8.234375 31.589844 C 8.226562 31.609375 8.222656 31.625 8.226562 31.644531 C 8.25 31.714844 8.320312 31.785156 8.441406 31.851562 L 11.683594 33.71875 C 11.964844 33.878906 12.246094 33.878906 12.527344 33.71875 L 12.835938 33.539062 L 14.804688 34.667969 L 18.546875 32.5 L 17.621094 31.964844 L 18.039062 30.464844 C 18.046875 30.457031 18.058594 30.453125 18.066406 30.449219 L 19.058594 29.867188 L 19.058594 30.429688 L 17.972656 31.058594 L 21.050781 32.832031 L 21.117188 32.792969 " fill-opacity="1" fill-rule="evenodd"/></g><g clip-path="url(#87420046d2)"><path fill="#d6dff3" d="M 33.71875 31.023438 L 33.710938 31.019531 C 33.480469 30.886719 33.230469 30.78125 32.960938 30.699219 L 33.28125 30.515625 L 33.949219 30.890625 Z M 23.132812 34.957031 C 23.039062 34.902344 22.953125 34.851562 22.871094 34.816406 L 25.109375 33.511719 L 25.773438 33.894531 L 23.5 35.210938 C 23.410156 35.128906 23.289062 35.046875 23.132812 34.957031 Z M 25.417969 37.003906 C 25.480469 37.054688 25.542969 37.105469 25.597656 37.148438 L 22.753906 38.800781 L 22.09375 38.417969 L 25.054688 36.710938 C 25.148438 36.789062 25.269531 36.886719 25.417969 37.003906 Z M 34.578125 32.101562 C 34.550781 31.882812 34.464844 31.683594 34.308594 31.5 L 34.648438 31.300781 L 35.300781 31.679688 Z M 30.378906 33.777344 C 30.699219 33.863281 31.046875 33.914062 31.421875 33.925781 L 31.429688 33.925781 L 29.558594 35.011719 L 28.910156 34.628906 Z M 27.835938 35.089844 L 28.492188 35.46875 L 26.082031 36.867188 C 25.921875 36.746094 25.683594 36.632812 25.367188 36.523438 Z M 28.976562 33.007812 C 29.113281 33.160156 29.292969 33.300781 29.519531 33.433594 C 29.527344 33.4375 29.535156 33.441406 29.542969 33.445312 L 28.203125 34.226562 L 27.539062 33.84375 Z M 27.4375 32.332031 C 27.597656 32.4375 27.808594 32.566406 28.0625 32.722656 L 26.832031 33.433594 L 26.179688 33.054688 Z M 29 31.417969 C 28.769531 31.65625 28.65625 31.925781 28.65625 32.222656 C 28.65625 32.273438 28.660156 32.324219 28.667969 32.375 L 28.515625 32.460938 C 28.390625 32.386719 28.246094 32.304688 28.074219 32.21875 C 27.984375 32.171875 27.898438 32.132812 27.820312 32.101562 Z M 25.558594 27.640625 C 25.394531 27.460938 25.210938 27.316406 25.007812 27.203125 L 26.894531 26.109375 L 27.554688 26.488281 Z M 31.851562 30.527344 C 31.777344 30.523438 31.699219 30.519531 31.621094 30.519531 C 31.195312 30.519531 30.800781 30.566406 30.4375 30.65625 C 30.417969 30.644531 30.394531 30.636719 30.375 30.628906 L 31.921875 29.722656 L 32.578125 30.105469 Z M 20.984375 33.359375 L 20.113281 33.859375 L 20.121094 33.867188 L 17.246094 35.53125 L 16.597656 35.152344 L 20.519531 32.875 C 20.625 33.011719 20.746094 33.144531 20.882812 33.273438 C 20.917969 33.304688 20.949219 33.332031 20.984375 33.359375 Z M 21.535156 34.769531 L 20.457031 35.394531 C 20.347656 35.328125 20.210938 35.253906 20.046875 35.175781 C 19.9375 35.125 19.839844 35.078125 19.753906 35.039062 L 23.75 32.722656 L 24.40625 33.105469 L 21.527344 34.765625 Z M 19.753906 35.511719 C 19.828125 35.578125 19.898438 35.632812 19.96875 35.683594 L 18.660156 36.433594 L 18.003906 36.058594 L 19.433594 35.226562 C 19.511719 35.296875 19.617188 35.394531 19.753906 35.511719 Z M 21.117188 32.792969 L 22.566406 31.953125 L 22.992188 32.203125 L 21.488281 33.074219 C 21.359375 32.960938 21.234375 32.867188 21.117188 32.792969 Z M 9.007812 30.742188 C 8.945312 30.675781 8.882812 30.613281 8.816406 30.546875 C 8.878906 30.507812 8.945312 30.464844 9.007812 30.425781 Z M 9.007812 29.515625 C 8.757812 29.671875 8.503906 29.828125 8.25 29.988281 C 8.089844 29.800781 7.921875 29.613281 7.746094 29.429688 C 8.15625 29.179688 8.578125 28.925781 9.007812 28.667969 Z M 6.273438 24.171875 C 6.304688 24.269531 6.339844 24.359375 6.375 24.4375 C 5.929688 24.691406 5.492188 24.949219 5.0625 25.207031 C 4.980469 24.988281 4.902344 24.773438 4.832031 24.574219 C 5.261719 24.3125 5.699219 24.058594 6.144531 23.800781 C 6.175781 23.898438 6.21875 24.019531 6.273438 24.171875 Z M 6.929688 27.007812 C 6.96875 27.085938 7.011719 27.160156 7.054688 27.226562 C 6.800781 27.378906 6.546875 27.53125 6.296875 27.675781 C 6.167969 27.484375 6.046875 27.296875 5.9375 27.113281 C 6.214844 26.953125 6.492188 26.789062 6.769531 26.621094 C 6.8125 26.757812 6.867188 26.886719 6.929688 27.007812 Z M 8.019531 26.359375 C 8.070312 26.445312 8.113281 26.519531 8.148438 26.578125 C 7.910156 26.71875 7.671875 26.855469 7.4375 26.996094 C 7.289062 26.753906 7.15625 26.570312 7.03125 26.457031 C 7.300781 26.296875 7.574219 26.132812 7.851562 25.972656 C 7.898438 26.097656 7.953125 26.226562 8.019531 26.359375 Z M 8.796875 22.246094 C 8.808594 22.347656 8.84375 22.480469 8.894531 22.648438 C 8.921875 22.75 8.953125 22.835938 8.992188 22.902344 C 8.699219 23.0625 8.410156 23.230469 8.125 23.398438 C 7.695312 23.652344 7.265625 23.90625 6.835938 24.164062 C 6.8125 24.082031 6.785156 24.007812 6.746094 23.933594 C 6.675781 23.785156 6.597656 23.664062 6.515625 23.574219 C 7.269531 23.132812 8.027344 22.691406 8.796875 22.246094 Z M 10.40625 23.671875 C 10.324219 23.476562 10.214844 23.289062 10.074219 23.109375 C 10.578125 22.820312 11.089844 22.527344 11.601562 22.234375 C 11.6875 22.425781 11.773438 22.628906 11.859375 22.847656 C 11.371094 23.125 10.886719 23.398438 10.40625 23.671875 Z M 11.085938 20.953125 C 11.164062 21.15625 11.246094 21.363281 11.335938 21.578125 C 10.695312 21.941406 10.054688 22.300781 9.417969 22.660156 C 9.363281 22.476562 9.257812 22.285156 9.105469 22.082031 C 9.757812 21.699219 10.417969 21.324219 11.085938 20.953125 Z M 12.851562 24.742188 C 12.859375 24.734375 12.871094 24.730469 12.878906 24.726562 C 12.898438 24.746094 12.917969 24.769531 12.941406 24.796875 Z M 14.523438 22.980469 C 14.453125 23.019531 14.382812 23.0625 14.3125 23.105469 C 14.175781 22.84375 14.070312 22.640625 13.992188 22.503906 C 14.167969 22.398438 14.347656 22.292969 14.523438 22.1875 Z M 12.925781 23.140625 C 13.179688 22.984375 13.4375 22.832031 13.699219 22.679688 C 13.730469 22.730469 13.789062 22.886719 13.875 23.144531 C 13.894531 23.207031 13.921875 23.265625 13.953125 23.3125 C 13.730469 23.441406 13.511719 23.570312 13.289062 23.703125 C 13.160156 23.511719 13.039062 23.324219 12.925781 23.140625 Z M 14.523438 23.84375 L 14.523438 24.683594 C 14.417969 24.746094 14.308594 24.8125 14.199219 24.875 C 14.046875 24.6875 13.890625 24.5 13.738281 24.3125 C 14 24.160156 14.261719 24 14.523438 23.84375 Z M 14.554688 9.265625 C 14.632812 9.464844 14.714844 9.675781 14.804688 9.886719 C 14.160156 10.253906 13.523438 10.613281 12.886719 10.972656 C 12.828125 10.789062 12.726562 10.597656 12.570312 10.394531 C 13.226562 10.011719 13.886719 9.636719 14.554688 9.265625 Z M 13.875 11.984375 C 13.792969 11.785156 13.679688 11.597656 13.542969 11.421875 C 14.046875 11.132812 14.554688 10.839844 15.070312 10.546875 C 15.15625 10.738281 15.242188 10.941406 15.328125 11.160156 C 14.839844 11.4375 14.355469 11.710938 13.875 11.984375 Z M 15.675781 12.1875 C 15.753906 12.390625 15.839844 12.597656 15.929688 12.8125 C 15.285156 13.175781 14.644531 13.539062 14.007812 13.898438 C 13.953125 13.714844 13.847656 13.519531 13.695312 13.316406 C 14.347656 12.9375 15.007812 12.558594 15.675781 12.1875 Z M 11.335938 15.167969 C 11.265625 15.019531 11.1875 14.902344 11.105469 14.808594 C 11.859375 14.371094 12.617188 13.925781 13.386719 13.480469 C 13.402344 13.582031 13.433594 13.71875 13.488281 13.886719 C 13.511719 13.988281 13.542969 14.070312 13.582031 14.136719 C 13.289062 14.300781 13 14.464844 12.71875 14.632812 C 12.289062 14.886719 11.855469 15.144531 11.425781 15.398438 C 11.40625 15.320312 11.375 15.242188 11.335938 15.167969 Z M 10.867188 15.410156 C 10.894531 15.507812 10.929688 15.59375 10.964844 15.671875 C 10.523438 15.929688 10.082031 16.183594 9.652344 16.445312 C 9.570312 16.222656 9.496094 16.011719 9.421875 15.808594 C 9.855469 15.550781 10.292969 15.292969 10.738281 15.039062 C 10.765625 15.132812 10.808594 15.253906 10.867188 15.410156 Z M 10.304688 12.472656 C 10.28125 12.394531 10.25 12.320312 10.214844 12.246094 C 10.144531 12.097656 10.066406 11.976562 9.984375 11.882812 C 10.738281 11.445312 11.496094 11.003906 12.261719 10.558594 C 12.277344 10.660156 12.3125 10.792969 12.363281 10.960938 C 12.390625 11.0625 12.421875 11.148438 12.460938 11.214844 C 12.167969 11.375 11.878906 11.542969 11.59375 11.710938 C 11.164062 11.964844 10.734375 12.21875 10.304688 12.472656 Z M 8.53125 13.519531 C 8.449219 13.300781 8.371094 13.085938 8.300781 12.886719 C 8.730469 12.625 9.167969 12.371094 9.613281 12.113281 C 9.644531 12.207031 9.6875 12.332031 9.742188 12.484375 C 9.773438 12.582031 9.808594 12.671875 9.84375 12.75 C 9.398438 13.003906 8.960938 13.261719 8.53125 13.519531 " fill-opacity="1" fill-rule="evenodd"/></g><g clip-path="url(#38c3842cdf)"><path fill="#f13ea7" d="M 26.472656 34.304688 L 27.136719 34.679688 L 24.257812 36.34375 L 24.261719 36.351562 L 22.886719 37.148438 C 22.808594 37.078125 22.714844 36.996094 22.605469 36.90625 C 22.503906 36.828125 22.414062 36.761719 22.335938 36.703125 Z M 27.8125 28.8125 L 26.878906 29.347656 C 26.878906 29.34375 26.875 29.339844 26.871094 29.339844 C 26.859375 29.332031 26.847656 29.324219 26.832031 29.316406 C 26.671875 29.230469 26.480469 29.183594 26.257812 29.175781 C 26.03125 29.171875 25.835938 29.214844 25.671875 29.308594 C 25.664062 29.308594 25.65625 29.3125 25.648438 29.316406 C 25.636719 29.324219 25.621094 29.335938 25.597656 29.347656 L 24.597656 28.746094 C 24.910156 28.5625 25.265625 28.453125 25.671875 28.40625 C 25.839844 28.382812 26.015625 28.375 26.203125 28.378906 C 26.425781 28.386719 26.632812 28.40625 26.832031 28.433594 C 27.203125 28.507812 27.53125 28.628906 27.820312 28.804688 Z M 21.386719 38.015625 L 20.730469 37.632812 L 21.914062 36.945312 C 21.960938 37.015625 22.015625 37.085938 22.078125 37.160156 C 22.171875 37.277344 22.265625 37.375 22.359375 37.457031 Z M 9.007812 26.9375 L 9.007812 27.769531 C 8.410156 28.125 7.808594 28.484375 7.207031 28.839844 C 7.054688 28.65625 6.898438 28.472656 6.746094 28.289062 C 7.476562 27.84375 8.230469 27.394531 9.007812 26.9375 Z M 23.023438 29.113281 L 23.023438 28.804688 L 21.039062 29.96875 L 19.058594 28.804688 L 20.855469 27.742188 L 21.046875 27.632812 L 22.640625 28.582031 L 24.4375 27.542969 C 24.519531 27.59375 24.621094 27.65625 24.75 27.726562 C 24.875 27.804688 24.980469 27.867188 25.074219 27.917969 L 24.675781 28.148438 L 24.683594 28.152344 Z M 9.074219 14.789062 C 8.972656 14.601562 8.878906 14.394531 8.785156 14.179688 C 10.191406 13.351562 11.640625 12.503906 13.136719 11.640625 C 13.167969 11.730469 13.222656 11.847656 13.300781 12.003906 C 13.347656 12.09375 13.390625 12.171875 13.4375 12.246094 C 13 12.496094 12.558594 12.746094 12.113281 12.992188 C 11.097656 13.589844 10.085938 14.191406 9.074219 14.789062 Z M 3.390625 16.269531 C 3.390625 16.28125 3.390625 16.289062 3.394531 16.296875 L 5.730469 16.566406 L 5.738281 16.574219 L 3.992188 18.640625 C 4.039062 18.699219 4.089844 18.753906 4.144531 18.804688 C 3.957031 18.640625 3.800781 18.4375 3.664062 18.199219 C 3.339844 17.628906 3.238281 16.984375 3.355469 16.265625 Z M 5.839844 16.433594 L 7.230469 14.285156 C 7.644531 14.609375 7.929688 15.058594 8.082031 15.621094 C 8.21875 16.195312 8.191406 16.78125 7.992188 17.375 L 7.980469 17.375 L 5.765625 16.644531 L 5.765625 16.566406 L 5.746094 16.5625 L 5.757812 16.5625 L 5.757812 16.546875 L 5.765625 16.5625 L 5.769531 16.546875 Z M 7.308594 6.128906 C 7.332031 6.140625 7.351562 6.148438 7.375 6.15625 L 7.398438 6.167969 C 7.617188 6.304688 7.730469 6.554688 7.730469 6.914062 C 7.730469 7.292969 7.609375 7.683594 7.375 8.085938 L 7.371094 8.085938 L 6.507812 7.601562 L 6.503906 7.601562 L 6.511719 7.59375 L 6.511719 6.261719 L 6.503906 6.246094 C 6.816406 6.070312 7.082031 6.03125 7.308594 6.128906 Z M 29.117188 0.476562 L 25.300781 3.609375 L 24.519531 3.136719 L 28.335938 0 Z M 22.035156 18.007812 L 25.460938 5.675781 L 25.550781 5.359375 L 25.832031 4.335938 L 26.484375 4.726562 L 26.496094 4.734375 L 26.535156 4.777344 L 24.941406 10.480469 L 24.953125 10.480469 L 22.589844 18.921875 L 21.960938 18.265625 L 22.035156 18.007812 " fill-opacity="1" fill-rule="evenodd"/></g><g clip-path="url(#0366061ce1)"><path fill="#9cc1e9" d="M 20.023438 37.222656 L 19.367188 36.84375 L 22.554688 35 C 22.625 35.066406 22.71875 35.144531 22.832031 35.242188 C 22.921875 35.320312 23 35.390625 23.070312 35.453125 L 22.890625 35.558594 L 22.898438 35.5625 Z M 9.832031 23.691406 C 9.878906 23.78125 9.921875 23.859375 9.96875 23.933594 C 9.53125 24.183594 9.089844 24.433594 8.644531 24.679688 C 7.628906 25.277344 6.617188 25.878906 5.605469 26.480469 C 5.507812 26.289062 5.410156 26.082031 5.316406 25.867188 C 6.722656 25.039062 8.171875 24.191406 9.671875 23.332031 C 9.699219 23.417969 9.753906 23.535156 9.832031 23.691406 Z M 14.523438 15.113281 L 14.523438 15.1875 C 14.097656 15.429688 13.667969 15.675781 13.234375 15.914062 C 12.21875 16.515625 11.207031 17.113281 10.199219 17.714844 C 10.097656 17.523438 10 17.320312 9.90625 17.101562 C 11.3125 16.273438 12.765625 15.429688 14.261719 14.566406 C 14.289062 14.652344 14.34375 14.773438 14.421875 14.925781 C 14.457031 14.992188 14.492188 15.054688 14.523438 15.113281 " fill-opacity="1" fill-rule="evenodd"/></g><path fill="#959595" d="M 10.085938 18.359375 C 10.152344 18.558594 10.238281 18.761719 10.339844 18.972656 C 9.285156 19.574219 8.25 20.167969 7.230469 20.761719 L 7.230469 20.773438 C 6.191406 21.371094 5.164062 21.976562 4.140625 22.582031 C 4.074219 22.378906 4 22.171875 3.914062 21.957031 C 5.957031 20.738281 8.011719 19.539062 10.085938 18.359375 " fill-opacity="1" fill-rule="evenodd"/><path fill="#cdccca" d="M 7.460938 21.453125 C 7.472656 21.542969 7.496094 21.675781 7.527344 21.851562 C 7.554688 21.953125 7.589844 22.042969 7.621094 22.121094 C 6.953125 22.503906 6.285156 22.894531 5.617188 23.296875 C 5.578125 23.203125 5.53125 23.097656 5.476562 22.980469 C 5.433594 22.863281 5.390625 22.761719 5.355469 22.683594 C 6.050781 22.269531 6.75 21.859375 7.460938 21.453125 Z M 4.589844 23.890625 C 4.515625 23.679688 4.449219 23.46875 4.382812 23.261719 C 4.625 23.117188 4.859375 22.972656 5.097656 22.835938 C 5.113281 22.917969 5.15625 23.0625 5.226562 23.261719 C 5.246094 23.34375 5.273438 23.414062 5.304688 23.472656 C 5.066406 23.617188 4.832031 23.757812 4.589844 23.890625 Z M 10.589844 19.640625 C 10.671875 19.847656 10.753906 20.058594 10.832031 20.273438 C 10.648438 20.375 10.46875 20.476562 10.292969 20.585938 C 10.199219 20.324219 10.113281 20.113281 10.035156 19.953125 C 10.222656 19.851562 10.40625 19.746094 10.589844 19.640625 Z M 9.75 20.125 C 9.765625 20.199219 9.792969 20.320312 9.832031 20.480469 C 9.863281 20.605469 9.898438 20.707031 9.933594 20.792969 C 9.289062 21.15625 8.652344 21.515625 8.019531 21.875 C 7.992188 21.800781 7.949219 21.707031 7.898438 21.597656 C 7.832031 21.46875 7.777344 21.363281 7.734375 21.289062 C 8.402344 20.894531 9.074219 20.507812 9.75 20.125 " fill-opacity="1" fill-rule="evenodd"/><path fill="#ef277b" d="M 14.523438 17.558594 L 14.523438 18 L 14.210938 17.726562 C 14.152344 17.773438 14.078125 17.808594 13.996094 17.832031 L 14.042969 20.042969 C 14.09375 20.050781 14.144531 20.066406 14.195312 20.09375 C 14.324219 20.160156 14.410156 20.265625 14.445312 20.40625 C 14.492188 20.558594 14.472656 20.703125 14.390625 20.839844 C 14.308594 20.976562 14.1875 21.070312 14.03125 21.117188 C 13.878906 21.167969 13.734375 21.160156 13.605469 21.085938 C 13.46875 21.019531 13.382812 20.914062 13.339844 20.765625 C 13.316406 20.664062 13.316406 20.566406 13.339844 20.472656 L 12.171875 19.832031 C 12.09375 19.921875 11.996094 19.988281 11.882812 20.03125 C 11.726562 20.078125 11.582031 20.066406 11.449219 19.996094 C 11.316406 19.929688 11.226562 19.824219 11.183594 19.675781 C 11.148438 19.535156 11.171875 19.390625 11.253906 19.25 C 11.332031 19.113281 11.449219 19.019531 11.601562 18.96875 C 11.753906 18.921875 11.898438 18.933594 12.039062 19 C 12.164062 19.074219 12.253906 19.179688 12.296875 19.328125 C 12.320312 19.398438 12.324219 19.46875 12.308594 19.542969 L 13.519531 20.199219 C 13.578125 20.144531 13.644531 20.101562 13.722656 20.070312 L 13.671875 17.847656 C 13.640625 17.835938 13.609375 17.820312 13.570312 17.808594 C 13.4375 17.738281 13.351562 17.632812 13.3125 17.488281 C 13.273438 17.34375 13.296875 17.203125 13.375 17.066406 C 13.457031 16.929688 13.574219 16.835938 13.726562 16.785156 C 13.878906 16.734375 14.023438 16.742188 14.160156 16.816406 C 14.292969 16.882812 14.378906 16.988281 14.414062 17.128906 C 14.445312 17.242188 14.441406 17.347656 14.402344 17.449219 L 14.523438 17.558594 " fill-opacity="1" fill-rule="evenodd"/><path fill="#fbd01c" d="M 8.347656 7.449219 L 10.816406 6.042969 L 10.816406 5.617188 L 8.347656 7.027344 Z M 12.359375 3.957031 L 8.363281 6.246094 L 8.363281 6.671875 L 12.359375 4.378906 Z M 12.359375 3.097656 L 8.363281 5.386719 L 8.363281 5.816406 L 12.359375 3.519531 Z M 7.375 6.15625 L 7.3125 6.121094 L 7.308594 6.128906 C 7.082031 6.03125 6.816406 6.070312 6.503906 6.246094 L 6.511719 6.261719 C 6.183594 6.449219 5.90625 6.738281 5.667969 7.128906 C 5.433594 7.527344 5.316406 7.910156 5.320312 8.285156 C 5.316406 8.648438 5.421875 8.898438 5.640625 9.035156 C 5.652344 9.039062 5.664062 9.042969 5.675781 9.050781 L 5.679688 9.046875 C 5.914062 9.160156 6.191406 9.128906 6.523438 8.949219 C 6.855469 8.761719 7.136719 8.472656 7.371094 8.085938 L 7.375 8.085938 C 7.609375 7.683594 7.730469 7.292969 7.730469 6.914062 C 7.730469 6.554688 7.617188 6.304688 7.398438 6.167969 Z M 11.902344 8.332031 L 11.902344 9.726562 L 10.699219 9.027344 L 9.679688 8.4375 L 5.136719 11.0625 C 4.980469 11.152344 4.859375 11.179688 4.78125 11.140625 C 4.773438 11.136719 4.769531 11.136719 4.765625 11.132812 C 4.6875 11.082031 4.648438 10.96875 4.648438 10.789062 L 4.648438 6.453125 C 4.648438 6.078125 4.808594 5.796875 5.136719 5.609375 L 12.8125 1.167969 C 12.972656 1.074219 13.09375 1.050781 13.175781 1.097656 L 13.183594 1.097656 C 13.261719 1.144531 13.300781 1.261719 13.300781 1.449219 L 13.300781 5.785156 C 13.300781 6.15625 13.136719 6.4375 12.8125 6.628906 L 11.902344 7.152344 L 11.902344 8.332031 " fill-opacity="1" fill-rule="evenodd"/><path fill="#f25c19" d="M 13.175781 1.097656 C 13.09375 1.050781 12.972656 1.074219 12.8125 1.167969 L 5.136719 5.609375 C 4.808594 5.796875 4.648438 6.078125 4.648438 6.453125 L 4.648438 10.789062 C 4.648438 10.96875 4.6875 11.082031 4.765625 11.132812 L 4.226562 10.828125 L 4.222656 10.828125 C 4.140625 10.777344 4.101562 10.660156 4.101562 10.472656 L 4.101562 6.140625 C 4.101562 5.769531 4.265625 5.488281 4.589844 5.296875 L 12.269531 0.859375 C 12.429688 0.765625 12.550781 0.742188 12.632812 0.785156 L 13.175781 1.097656 " fill-opacity="1" fill-rule="evenodd"/><g clip-path="url(#5bb5cb7873)"><g clip-path="url(#f73b0dd59f)"><path fill="#59812b" d="M 7.292969 6.148438 L 7.359375 6.183594 L 7.390625 6.128906 L 7.324219 6.09375 Z M 7.292969 6.148438 " fill-opacity="1" fill-rule="nonzero"/></g></g><path fill="#97bce7" d="M 27.847656 30.699219 L 26.828125 30.089844 C 26.84375 30.082031 26.863281 30.074219 26.882812 30.066406 C 27.050781 29.96875 27.136719 29.847656 27.136719 29.707031 C 27.132812 29.566406 27.046875 29.445312 26.878906 29.347656 L 27.8125 28.8125 C 28.226562 29.054688 28.449219 29.339844 28.488281 29.667969 C 28.496094 29.695312 28.5 29.726562 28.5 29.761719 C 28.503906 30.128906 28.285156 30.441406 27.847656 30.699219 Z M 4.757812 14.179688 L 5.730469 16.566406 L 3.394531 16.296875 C 3.390625 16.289062 3.390625 16.28125 3.390625 16.269531 C 3.46875 15.824219 3.632812 15.417969 3.878906 15.050781 C 4.117188 14.683594 4.410156 14.390625 4.757812 14.179688 Z M 6.15625 19.210938 L 5.765625 16.644531 L 7.980469 17.375 C 7.75 18.023438 7.363281 18.53125 6.820312 18.890625 C 6.597656 19.039062 6.378906 19.144531 6.15625 19.210938 Z M 6.507812 7.601562 L 5.65625 9.035156 C 5.664062 9.039062 5.671875 9.042969 5.679688 9.046875 L 5.675781 9.050781 C 5.664062 9.042969 5.652344 9.039062 5.640625 9.035156 C 5.421875 8.898438 5.316406 8.648438 5.320312 8.285156 C 5.316406 7.910156 5.433594 7.527344 5.667969 7.128906 C 5.90625 6.738281 6.183594 6.449219 6.511719 6.261719 L 6.511719 7.59375 L 6.503906 7.601562 L 6.507812 7.601562 " fill-opacity="1" fill-rule="evenodd"/><path fill="#ffffff" d="M 12.359375 3.097656 L 12.359375 3.519531 L 8.363281 5.816406 L 8.363281 5.386719 Z M 12.359375 3.957031 L 12.359375 4.378906 L 8.363281 6.671875 L 8.363281 6.246094 Z M 8.347656 7.449219 L 8.347656 7.027344 L 10.816406 5.617188 L 10.816406 6.042969 Z M 7.371094 8.085938 C 7.136719 8.472656 6.855469 8.761719 6.523438 8.949219 C 6.191406 9.128906 5.914062 9.160156 5.679688 9.046875 C 5.671875 9.042969 5.664062 9.039062 5.65625 9.035156 L 6.507812 7.601562 L 7.371094 8.085938 " fill-opacity="1" fill-rule="evenodd"/><path fill="#968bcd" d="M 25.664062 30.046875 L 24.625 30.644531 C 24.175781 30.371094 23.953125 30.046875 23.949219 29.675781 C 23.945312 29.675781 23.945312 29.667969 23.949219 29.660156 C 23.945312 29.304688 24.160156 29 24.597656 28.746094 L 25.597656 29.347656 C 25.464844 29.4375 25.398438 29.542969 25.402344 29.671875 C 25.402344 29.8125 25.488281 29.9375 25.660156 30.039062 C 25.664062 30.042969 25.664062 30.042969 25.664062 30.046875 Z M 5.765625 16.644531 L 6.15625 19.210938 L 6.164062 19.214844 C 5.765625 19.335938 5.375 19.347656 4.988281 19.25 C 4.96875 19.242188 4.945312 19.234375 4.921875 19.230469 C 4.78125 19.191406 4.648438 19.132812 4.53125 19.0625 L 4.242188 18.890625 L 4.144531 18.804688 C 4.089844 18.753906 4.039062 18.699219 3.992188 18.640625 L 5.738281 16.574219 L 5.753906 16.546875 L 5.757812 16.5625 L 5.746094 16.5625 L 5.765625 16.574219 L 5.765625 16.644531 " fill-opacity="1" fill-rule="evenodd"/><path fill="#fbc907" d="M 24.625 30.644531 L 25.664062 30.046875 C 25.835938 30.140625 26.039062 30.191406 26.277344 30.195312 C 26.484375 30.203125 26.667969 30.167969 26.828125 30.089844 L 27.847656 30.699219 C 27.40625 30.957031 26.871094 31.078125 26.242188 31.066406 C 25.609375 31.054688 25.070312 30.914062 24.621094 30.644531 Z M 7.230469 14.285156 L 5.839844 16.433594 L 5.769531 16.539062 L 5.757812 16.546875 L 5.757812 16.5625 L 5.753906 16.546875 L 5.738281 16.574219 L 5.730469 16.566406 L 4.757812 14.179688 L 4.753906 14.171875 C 4.761719 14.171875 4.769531 14.171875 4.777344 14.167969 C 4.78125 14.164062 4.785156 14.160156 4.789062 14.15625 C 5.195312 13.914062 5.617188 13.800781 6.050781 13.8125 C 6.226562 13.820312 6.398438 13.851562 6.5625 13.902344 C 6.804688 13.964844 7.035156 14.085938 7.257812 14.257812 L 7.230469 14.285156 " fill-opacity="1" fill-rule="evenodd"/><g clip-path="url(#152f0b3a74)"><g clip-path="url(#0a72f2faeb)"><g clip-path="url(#d9b16fab08)"><path fill="url(#2f4cfb818e)" d="M 5.738281 16.535156 L 5.832031 16.566406 L 5.871094 16.441406 L 5.777344 16.410156 Z M 5.738281 16.535156 " fill-rule="nonzero"/></g></g></g><path fill="#fac009" d="M 5.765625 16.574219 L 5.746094 16.5625 L 5.765625 16.566406 Z M 5.769531 16.546875 L 5.765625 16.5625 L 5.757812 16.546875 L 5.769531 16.539062 L 5.769531 16.546875 " fill-opacity="1" fill-rule="evenodd"/><path fill="#cee1f5" d="M 31.421875 33.925781 C 31.046875 33.914062 30.699219 33.863281 30.378906 33.777344 C 30.078125 33.699219 29.796875 33.585938 29.542969 33.445312 C 29.535156 33.441406 29.527344 33.4375 29.519531 33.433594 C 29.292969 33.300781 29.113281 33.160156 28.976562 33.007812 C 28.800781 32.8125 28.699219 32.601562 28.667969 32.375 C 28.660156 32.324219 28.65625 32.273438 28.65625 32.222656 C 28.65625 31.925781 28.769531 31.65625 29 31.417969 C 29.132812 31.277344 29.308594 31.144531 29.519531 31.019531 C 29.800781 30.859375 30.105469 30.738281 30.4375 30.65625 C 30.800781 30.566406 31.195312 30.519531 31.621094 30.519531 C 31.699219 30.519531 31.777344 30.523438 31.851562 30.527344 C 32.253906 30.542969 32.621094 30.601562 32.960938 30.699219 C 33.230469 30.78125 33.480469 30.886719 33.710938 31.019531 L 33.71875 31.023438 C 33.972656 31.167969 34.167969 31.328125 34.308594 31.5 C 34.464844 31.683594 34.550781 31.882812 34.578125 32.101562 C 34.582031 32.140625 34.582031 32.183594 34.582031 32.222656 C 34.582031 32.695312 34.292969 33.097656 33.710938 33.433594 C 33.136719 33.761719 32.4375 33.925781 31.621094 33.925781 C 31.554688 33.925781 31.488281 33.925781 31.421875 33.925781 Z M 9.007812 31.039062 L 9.007812 31.582031 C 9.007812 31.65625 9.0625 31.722656 9.175781 31.792969 L 11.84375 33.316406 C 12.058594 33.445312 12.273438 33.453125 12.492188 33.339844 L 12.835938 33.539062 L 12.527344 33.71875 C 12.246094 33.878906 11.964844 33.878906 11.683594 33.71875 L 8.441406 31.851562 C 8.320312 31.785156 8.25 31.714844 8.226562 31.644531 C 8.222656 31.625 8.226562 31.609375 8.234375 31.589844 C 8.242188 31.515625 8.308594 31.441406 8.441406 31.371094 Z M 19.058594 29.867188 L 18.066406 30.449219 C 18.058594 30.453125 18.046875 30.457031 18.039062 30.464844 L 18.175781 29.96875 L 19.058594 29.457031 Z M 25.550781 5.359375 L 25.460938 5.675781 C 25.457031 5.679688 25.453125 5.679688 25.453125 5.683594 L 22.808594 7.210938 C 22.582031 7.34375 22.351562 7.34375 22.125 7.21875 L 20.753906 6.425781 L 20.75 6.425781 L 20.511719 6.285156 L 20.519531 6.28125 L 19.464844 5.675781 C 19.351562 5.609375 19.296875 5.554688 19.292969 5.503906 L 19.292969 5.488281 C 19.292969 5.480469 19.292969 5.472656 19.292969 5.464844 C 19.304688 5.402344 19.359375 5.339844 19.464844 5.277344 L 22.101562 3.75 C 22.328125 3.621094 22.5625 3.621094 22.796875 3.75 L 23.554688 4.195312 L 23.554688 4.1875 L 24.6875 4.839844 L 24.683594 4.839844 L 25.453125 5.296875 C 25.492188 5.316406 25.523438 5.335938 25.550781 5.359375 Z M 26.179688 25.507812 C 26.15625 25.523438 26.128906 25.542969 26.097656 25.5625 L 24.816406 26.304688 L 24.824219 26.308594 L 24.519531 26.480469 L 24.515625 26.480469 L 22.84375 27.457031 C 22.5625 27.617188 22.28125 27.617188 22 27.457031 L 20.855469 26.800781 L 20.855469 26.328125 L 22.128906 27.058594 C 22.359375 27.195312 22.585938 27.199219 22.8125 27.0625 L 25.457031 25.539062 C 25.59375 25.460938 25.644531 25.382812 25.621094 25.308594 L 25.625 24.90625 L 25.621094 24.910156 C 25.628906 24.886719 25.628906 24.867188 25.621094 24.847656 L 25.621094 24.796875 L 26.097656 25.074219 C 26.242188 25.160156 26.3125 25.242188 26.308594 25.324219 C 26.308594 25.382812 26.265625 25.445312 26.179688 25.507812 " fill-opacity="1" fill-rule="evenodd"/><g clip-path="url(#3666ea2a96)"><g clip-path="url(#11cb54854d)"><path fill="url(#aa19cdc505)" d="M 19.292969 5.503906 L 19.292969 18.007812 L 25.625 18.007812 L 25.625 5.503906 Z M 19.292969 5.503906 " fill-rule="nonzero"/></g></g><g clip-path="url(#cc09dd4405)"><g clip-path="url(#80c080be05)"><path fill="url(#e8bdd00a6d)" d="M 20.855469 15.152344 L 20.855469 27.199219 L 25.644531 27.199219 L 25.644531 15.152344 Z M 20.855469 15.152344 " fill-rule="nonzero"/></g></g><path fill="#e2dcf1" d="M 14.523438 14.453125 L 14.523438 14.429688 C 14.523438 14.421875 14.523438 14.417969 14.523438 14.410156 C 14.53125 14.34375 14.589844 14.28125 14.695312 14.21875 L 16.941406 12.925781 L 17.332031 12.699219 C 17.5625 12.566406 17.796875 12.566406 18.027344 12.699219 L 18.789062 13.136719 L 18.789062 13.132812 L 19.292969 13.425781 L 19.917969 13.785156 L 19.914062 13.785156 L 20.679688 14.234375 C 20.785156 14.292969 20.84375 14.351562 20.855469 14.410156 C 20.855469 14.414062 20.855469 14.417969 20.855469 14.425781 C 20.859375 14.433594 20.859375 14.441406 20.859375 14.453125 L 20.859375 14.460938 L 20.855469 14.464844 C 20.835938 14.515625 20.777344 14.570312 20.679688 14.628906 L 19.175781 15.5 L 18.503906 15.09375 L 18.238281 16.042969 L 18.042969 16.15625 C 17.816406 16.289062 17.585938 16.289062 17.351562 16.164062 L 15.988281 15.363281 L 15.984375 15.363281 L 15.742188 15.230469 L 15.75 15.222656 L 14.695312 14.621094 C 14.582031 14.554688 14.527344 14.5 14.523438 14.453125 " fill-opacity="1" fill-rule="evenodd"/><g clip-path="url(#f11b7c7b2c)"><g clip-path="url(#9d629e6b7c)"><path fill="url(#24ec57c743)" d="M 14.523438 22.011719 L 14.523438 29.96875 L 20.855469 29.96875 L 20.855469 22.011719 Z M 14.523438 22.011719 " fill-rule="nonzero"/></g></g><g clip-path="url(#8012f35d03)"><g clip-path="url(#b8f980bf87)"><path fill="url(#6f7608941d)" d="M 9.007812 26.300781 L 9.007812 33.453125 L 14.464844 33.453125 L 14.464844 26.300781 Z M 9.007812 26.300781 " fill-rule="nonzero"/></g></g><path fill="#fae146" d="M 14.464844 26.878906 L 12.519531 28.003906 C 12.292969 28.132812 12.066406 28.136719 11.835938 28.007812 L 10.472656 27.214844 L 10.460938 27.214844 L 10.226562 27.074219 L 10.226562 27.070312 L 9.175781 26.472656 C 9.066406 26.402344 9.007812 26.34375 9.007812 26.300781 L 9.007812 26.277344 C 9.007812 26.269531 9.007812 26.261719 9.007812 26.257812 C 9.015625 26.191406 9.070312 26.128906 9.175781 26.070312 L 11.8125 24.542969 C 12.042969 24.414062 12.273438 24.414062 12.511719 24.542969 L 12.851562 24.742188 L 12.941406 24.796875 L 13.265625 24.984375 L 13.265625 24.976562 L 14.394531 25.628906 L 14.390625 25.628906 L 14.523438 25.707031 L 15.164062 26.078125 C 15.21875 26.109375 15.257812 26.140625 15.285156 26.167969 L 14.75 25.859375 L 14.484375 26.835938 L 14.472656 26.839844 L 14.464844 26.878906 " fill-opacity="1" fill-rule="evenodd"/><path fill="#d2e1f5" d="M 21.117188 32.792969 L 21.050781 32.832031 L 17.972656 31.058594 L 19.058594 30.429688 L 19.058594 31.042969 L 21.039062 32.214844 L 21.046875 32.214844 L 23.023438 31.042969 L 23.023438 30.476562 L 24.070312 31.082031 L 22.566406 31.953125 Z M 12.835938 33.539062 L 12.492188 33.339844 C 12.503906 33.335938 12.515625 33.328125 12.527344 33.320312 L 12.710938 33.214844 L 12.683594 33.316406 L 13.554688 32.816406 L 13.335938 33.597656 L 14.332031 34.1875 L 14.636719 34.1875 L 17.460938 32.539062 L 17.621094 31.964844 L 18.546875 32.5 L 14.804688 34.667969 L 12.835938 33.539062 " fill-opacity="1" fill-rule="evenodd"/><g clip-path="url(#08b370d7d0)"><g clip-path="url(#da61161e57)"><path fill="url(#21f543208a)" d="M 14.523438 14.453125 L 14.523438 23.113281 L 20.863281 23.113281 L 20.863281 14.453125 Z M 14.523438 14.453125 " fill-rule="nonzero"/></g></g><path fill="#fbc508" d="M 15.367188 26.324219 L 14.484375 26.835938 L 14.75 25.859375 L 15.285156 26.167969 L 15.390625 26.230469 L 15.367188 26.324219 " fill-opacity="1" fill-rule="evenodd"/><path fill="#de7c18" d="M 12.710938 33.214844 L 14.464844 26.878906 L 14.472656 26.839844 L 14.484375 26.835938 L 15.367188 26.324219 L 13.554688 32.816406 L 12.683594 33.316406 L 12.710938 33.214844 " fill-opacity="1" fill-rule="evenodd"/><path fill="#f79ad2" d="M 19.496094 15.695312 L 19.496094 15.703125 L 19.621094 16.28125 L 14.636719 34.1875 L 14.332031 34.1875 L 19.484375 15.691406 L 19.492188 15.691406 C 19.496094 15.691406 19.496094 15.691406 19.496094 15.695312 Z M 22.757812 19.390625 L 22.589844 18.921875 L 24.953125 10.480469 L 24.941406 10.480469 L 26.535156 4.777344 L 26.765625 4.996094 L 25.238281 10.480469 L 25.242188 10.480469 Z M 29.378906 0.6875 L 25.5625 3.824219 L 25.304688 3.613281 L 25.300781 3.609375 L 29.117188 0.476562 L 29.378906 0.6875 " fill-opacity="1" fill-rule="evenodd"/><path fill="#b2164d" d="M 19.058594 29.457031 L 19.058594 28.804688 L 21.039062 29.96875 L 21.046875 32.214844 L 21.039062 32.214844 L 19.058594 31.042969 Z M 23.339844 23.351562 L 22.359375 22.75 L 20.855469 21.199219 L 20.667969 21.007812 L 20.765625 20.664062 Z M 22.589844 18.921875 L 22.757812 19.390625 L 19.621094 16.28125 L 19.496094 15.703125 L 19.496094 15.695312 L 20.855469 17.113281 L 21.328125 17.601562 L 21.960938 18.265625 Z M 25.5625 3.824219 L 26.484375 4.726562 L 25.832031 4.335938 L 24.519531 3.136719 L 25.300781 3.609375 L 25.304688 3.613281 Z M 28.003906 6.609375 L 28.082031 6.320312 L 29.375 7.59375 L 28.515625 7.078125 L 28.003906 6.609375 " fill-opacity="1" fill-rule="evenodd"/><path fill="#e7137c" d="M 23.023438 29.113281 L 23.023438 31.042969 L 21.046875 32.214844 L 21.039062 29.96875 L 23.023438 28.804688 Z M 26.484375 4.726562 L 25.5625 3.824219 L 29.378906 0.6875 L 29.378906 7.601562 L 29.375 7.59375 L 28.082031 6.320312 L 28.003906 6.609375 L 25.625 15.152344 L 25.621094 15.171875 L 25.195312 16.695312 L 23.339844 23.351562 L 20.765625 20.664062 L 20.667969 21.007812 L 20.261719 22.46875 L 18.175781 29.96875 L 18.039062 30.464844 L 17.621094 31.964844 L 17.460938 32.539062 L 14.636719 34.1875 L 19.621094 16.28125 L 22.757812 19.390625 L 25.242188 10.480469 L 25.238281 10.480469 L 26.765625 4.996094 L 26.535156 4.777344 L 26.496094 4.734375 L 26.484375 4.726562 " fill-opacity="1" fill-rule="evenodd"/><path fill="#f35bb5" d="M 14.332031 34.1875 L 13.335938 33.597656 L 13.554688 32.816406 L 15.367188 26.324219 L 15.390625 26.230469 L 16.261719 23.113281 L 18.238281 16.042969 L 18.503906 15.09375 L 19.175781 15.5 L 19.484375 15.691406 L 14.332031 34.1875 " fill-opacity="1" fill-rule="evenodd"/></svg>