<svg xmlns="http://www.w3.org/2000/svg" xmlns:xlink="http://www.w3.org/1999/xlink" width="240" height="48" preserveAspectRatio="xMidYMid meet" version="1.0" viewBox="0 0 180 36" zoomAndPan="magnify"><defs><clipPath id="7581d7414f"><path d="M 7.90625 4.414062 L 30.609375 4.414062 L 30.609375 27.121094 L 7.90625 27.121094 Z M 7.90625 4.414062" clip-rule="nonzero"/></clipPath><clipPath id="a301a38989"><path d="M 21 15.769531 L 24 15.769531 L 24 18 L 21 18 Z M 21 15.769531" clip-rule="nonzero"/></clipPath><clipPath id="d6b9aceacb"><path d="M 8.390625 21 L 30.644531 21 L 30.644531 31.546875 L 8.390625 31.546875 Z M 8.390625 21" clip-rule="nonzero"/></clipPath></defs><path fill="#000" fill-opacity="1" fill-rule="nonzero" d="M 16.972656 15.785156 C 16.972656 15.445312 16.699219 15.171875 16.359375 15.171875 C 16.019531 15.171875 15.746094 15.445312 15.746094 15.785156 C 15.746094 16.125 16.019531 16.398438 16.359375 16.398438 C 16.699219 16.398438 16.972656 16.125 16.972656 15.785156"/><g clip-path="url(#7581d7414f)"><path fill="#000" fill-opacity="1" fill-rule="nonzero" d="M 30.582031 5.066406 C 30.582031 4.738281 30.304688 4.460938 29.976562 4.460938 C 29.265625 4.460938 28.554688 4.460938 27.84375 4.460938 C 26.136719 4.460938 24.425781 4.460938 22.71875 4.460938 C 20.660156 4.460938 18.605469 4.460938 16.546875 4.460938 C 14.757812 4.460938 12.972656 4.460938 11.1875 4.460938 C 10.320312 4.460938 9.445312 4.433594 8.578125 4.460938 C 8.566406 4.460938 8.554688 4.460938 8.542969 4.460938 C 8.214844 4.460938 7.9375 4.738281 7.9375 5.066406 C 7.9375 5.777344 7.9375 6.488281 7.9375 7.199219 C 7.9375 8.910156 7.9375 10.617188 7.9375 12.324219 C 7.9375 14.382812 7.9375 16.441406 7.9375 18.496094 C 7.9375 20.285156 7.9375 22.070312 7.9375 23.859375 C 7.9375 24.726562 7.90625 25.597656 7.9375 26.464844 C 7.9375 26.476562 7.9375 26.488281 7.9375 26.5 C 7.9375 26.828125 8.214844 27.109375 8.542969 27.109375 C 10.25 27.109375 11.953125 27.109375 13.660156 27.109375 C 13.90625 27.109375 14.148438 27.109375 14.390625 27.109375 C 14.578125 27.109375 14.71875 27.039062 14.816406 26.933594 C 14.925781 26.835938 15 26.691406 15 26.5 C 15 25.890625 15 25.28125 15 24.671875 C 15 23.21875 15 21.761719 15 20.304688 C 15 18.535156 15 16.765625 15 14.996094 C 15 13.46875 15 11.9375 15 10.40625 C 15 9.859375 15.011719 9.304688 15.011719 8.753906 C 16.714844 8.753906 18.417969 8.753906 20.125 8.753906 C 20.652344 8.753906 21.09375 8.804688 21.558594 9.003906 C 22.304688 9.324219 22.863281 9.890625 23.238281 10.644531 C 23.378906 10.933594 23.496094 11.421875 23.515625 11.761719 C 23.539062 12.222656 23.5 12.527344 23.367188 12.953125 C 23.132812 13.6875 22.597656 14.347656 21.917969 14.742188 C 21.675781 14.882812 21.558594 14.9375 21.328125 15.011719 C 21.203125 15.054688 21.074219 15.085938 20.949219 15.113281 C 20.808594 15.144531 20.785156 15.148438 20.683594 15.160156 C 20.433594 15.183594 20.183594 15.179688 19.9375 15.179688 C 19.382812 15.179688 18.828125 15.179688 18.273438 15.179688 C 17.492188 15.179688 17.488281 16.390625 18.273438 16.390625 C 18.792969 16.390625 19.316406 16.390625 19.835938 16.390625 C 20.539062 16.390625 21.230469 16.355469 21.894531 16.09375 C 23.875 15.300781 25.027344 13.238281 24.652344 11.136719 C 24.285156 9.070312 22.382812 7.558594 20.308594 7.542969 C 19.417969 7.535156 18.53125 7.542969 17.640625 7.542969 C 16.558594 7.542969 15.476562 7.542969 14.390625 7.542969 C 14.207031 7.542969 14.066406 7.613281 13.96875 7.71875 C 13.859375 7.8125 13.785156 7.957031 13.785156 8.148438 C 13.785156 8.757812 13.785156 9.367188 13.785156 9.976562 C 13.785156 11.433594 13.785156 12.890625 13.785156 14.34375 C 13.785156 16.113281 13.785156 17.882812 13.785156 19.652344 C 13.785156 21.183594 13.785156 22.714844 13.785156 24.242188 C 13.785156 24.792969 13.769531 25.34375 13.773438 25.894531 C 12.273438 25.894531 10.773438 25.894531 9.273438 25.894531 C 9.230469 25.894531 9.191406 25.894531 9.148438 25.894531 C 9.148438 25.386719 9.148438 24.878906 9.148438 24.367188 C 9.148438 22.660156 9.148438 20.953125 9.148438 19.246094 C 9.148438 17.1875 9.148438 15.128906 9.148438 13.070312 C 9.148438 11.285156 9.148438 9.496094 9.148438 7.710938 C 9.148438 7.125 9.148438 6.535156 9.148438 5.949219 C 9.148438 5.859375 9.152344 5.765625 9.152344 5.671875 C 9.660156 5.671875 10.167969 5.671875 10.675781 5.671875 C 12.382812 5.671875 14.09375 5.671875 15.800781 5.671875 C 17.859375 5.671875 19.914062 5.671875 21.972656 5.671875 C 23.761719 5.671875 25.546875 5.671875 27.332031 5.671875 C 27.921875 5.671875 28.507812 5.671875 29.09375 5.671875 C 29.1875 5.671875 29.277344 5.675781 29.371094 5.675781 C 29.371094 6.183594 29.371094 6.691406 29.371094 7.199219 C 29.371094 8.910156 29.371094 10.617188 29.371094 12.324219 C 29.371094 14.382812 29.371094 16.441406 29.371094 18.496094 C 29.371094 20.285156 29.371094 22.070312 29.371094 23.859375 C 29.371094 24.445312 29.371094 25.03125 29.371094 25.621094 C 29.371094 25.710938 29.367188 25.804688 29.367188 25.894531 C 27.746094 25.894531 26.125 25.894531 24.503906 25.894531 C 24.242188 25.894531 23.980469 25.894531 23.71875 25.894531 C 22.9375 25.894531 22.9375 27.109375 23.71875 27.109375 C 25.542969 27.109375 27.367188 27.109375 29.191406 27.109375 C 29.453125 27.109375 29.714844 27.109375 29.976562 27.109375 C 30.304688 27.109375 30.582031 26.832031 30.582031 26.5 C 30.582031 25.789062 30.582031 25.078125 30.582031 24.367188 C 30.582031 22.660156 30.582031 20.953125 30.582031 19.246094 C 30.582031 17.1875 30.582031 15.128906 30.582031 13.070312 C 30.582031 11.285156 30.582031 9.496094 30.582031 7.710938 C 30.582031 6.84375 30.613281 5.972656 30.582031 5.105469 C 30.582031 5.09375 30.582031 5.078125 30.582031 5.066406"/></g><path fill="#000" fill-opacity="1" fill-rule="nonzero" d="M 26.359375 18.589844 L 26.617188 16.8125 L 26.648438 16.8125 L 26.671875 16.960938 C 26.730469 17.355469 26.792969 17.753906 26.851562 18.148438 C 26.867188 18.253906 26.867188 18.359375 26.878906 18.464844 C 26.886719 18.570312 26.894531 18.589844 27.011719 18.605469 L 28.632812 18.828125 C 28.65625 18.835938 28.679688 18.84375 28.699219 18.851562 C 28.644531 18.863281 28.617188 18.871094 28.585938 18.875 C 28.1875 18.9375 27.789062 18.996094 27.386719 19.054688 C 27.257812 19.074219 27.128906 19.085938 27 19.101562 C 26.894531 19.113281 26.894531 19.117188 26.878906 19.226562 C 26.800781 19.761719 26.730469 20.296875 26.660156 20.828125 C 26.65625 20.847656 26.648438 20.859375 26.632812 20.871094 C 26.570312 20.582031 26.53125 20.292969 26.488281 20 C 26.441406 19.710938 26.40625 19.417969 26.363281 19.125 L 24.609375 18.867188 C 24.792969 18.785156 24.988281 18.789062 25.175781 18.753906 C 25.363281 18.722656 25.566406 18.691406 25.761719 18.664062 C 25.957031 18.636719 26.15625 18.613281 26.359375 18.589844 Z M 26.359375 18.589844"/><path fill="#000" fill-opacity="1" fill-rule="nonzero" d="M 14.449219 23.175781 L 14.546875 22.515625 L 14.558594 22.515625 C 14.558594 22.535156 14.558594 22.554688 14.566406 22.574219 C 14.589844 22.71875 14.609375 22.867188 14.632812 23.011719 C 14.636719 23.050781 14.640625 23.089844 14.644531 23.125 C 14.644531 23.160156 14.644531 23.171875 14.691406 23.179688 L 15.292969 23.261719 L 15.320312 23.269531 L 15.277344 23.277344 L 14.832031 23.34375 C 14.78125 23.351562 14.734375 23.355469 14.6875 23.363281 C 14.636719 23.367188 14.648438 23.363281 14.644531 23.40625 L 14.5625 24.003906 C 14.558594 24.007812 14.554688 24.011719 14.550781 24.015625 C 14.527344 23.910156 14.511719 23.800781 14.496094 23.695312 C 14.480469 23.585938 14.46875 23.484375 14.453125 23.371094 L 13.800781 23.273438 C 13.871094 23.25 13.941406 23.238281 14.011719 23.230469 C 14.085938 23.21875 14.15625 23.207031 14.230469 23.199219 C 14.300781 23.1875 14.375 23.183594 14.449219 23.175781 Z M 14.449219 23.175781"/><g clip-path="url(#a301a38989)"><path fill="#000" fill-opacity="1" fill-rule="nonzero" d="M 22.542969 16.441406 L 22.644531 15.785156 L 22.65625 15.785156 C 22.65625 15.800781 22.664062 15.820312 22.664062 15.839844 C 22.6875 15.988281 22.710938 16.132812 22.734375 16.28125 C 22.734375 16.320312 22.738281 16.359375 22.742188 16.394531 C 22.746094 16.429688 22.75 16.441406 22.792969 16.445312 L 23.390625 16.527344 L 23.417969 16.535156 C 23.40625 16.539062 23.390625 16.542969 23.375 16.546875 L 22.929688 16.613281 C 22.882812 16.617188 22.835938 16.625 22.785156 16.628906 C 22.738281 16.632812 22.75 16.636719 22.742188 16.675781 L 22.65625 17.273438 C 22.65625 17.28125 22.652344 17.285156 22.648438 17.289062 C 22.621094 17.183594 22.609375 17.074219 22.59375 16.96875 C 22.578125 16.859375 22.5625 16.75 22.546875 16.644531 L 21.898438 16.546875 C 21.964844 16.523438 22.035156 16.507812 22.109375 16.503906 C 22.179688 16.488281 22.253906 16.480469 22.324219 16.46875 C 22.398438 16.460938 22.472656 16.453125 22.542969 16.441406 Z M 22.542969 16.441406"/></g><path fill="#000" fill-opacity="1" fill-rule="nonzero" d="M 23.210938 18.550781 C 23.210938 18.589844 23.210938 18.628906 23.210938 18.667969 C 23.199219 18.886719 23.183594 19.105469 23.175781 19.320312 C 23.164062 19.707031 23.164062 20.089844 23.15625 20.472656 C 23.152344 20.546875 23.140625 20.621094 23.121094 20.691406 C 23.089844 20.796875 23.035156 20.835938 22.953125 20.832031 C 22.855469 20.816406 22.800781 20.761719 22.785156 20.664062 C 22.78125 20.640625 22.78125 20.617188 22.785156 20.597656 C 22.785156 20.171875 22.65625 19.792969 22.402344 19.453125 C 22.207031 19.160156 21.953125 18.929688 21.640625 18.761719 C 21.453125 18.664062 21.253906 18.59375 21.050781 18.550781 C 20.769531 18.488281 20.484375 18.46875 20.199219 18.484375 C 19.757812 18.5 19.351562 18.628906 18.988281 18.878906 C 18.597656 19.152344 18.367188 19.523438 18.296875 19.992188 C 18.246094 20.320312 18.273438 20.640625 18.382812 20.953125 C 18.445312 21.113281 18.527344 21.257812 18.628906 21.394531 C 18.847656 21.699219 19.097656 21.972656 19.386719 22.210938 L 19.46875 22.28125 C 19.460938 22.332031 19.421875 22.335938 19.386719 22.347656 C 19.101562 22.429688 17.375 23 17.296875 23.035156 C 17.238281 23.058594 17.183594 23.078125 17.109375 23.101562 C 17.074219 23.046875 17.039062 22.996094 17.011719 22.941406 C 16.878906 22.714844 16.769531 22.472656 16.6875 22.21875 C 16.621094 22 16.574219 21.773438 16.542969 21.542969 C 16.507812 21.269531 16.5 20.996094 16.519531 20.722656 C 16.546875 20.335938 16.648438 19.964844 16.820312 19.613281 C 17.015625 19.21875 17.285156 18.882812 17.625 18.601562 C 17.917969 18.359375 18.238281 18.167969 18.59375 18.027344 C 18.789062 17.953125 18.988281 17.886719 19.1875 17.828125 C 19.328125 17.789062 19.46875 17.757812 19.613281 17.738281 C 20.003906 17.671875 20.394531 17.644531 20.789062 17.652344 C 21.101562 17.667969 21.417969 17.695312 21.730469 17.722656 C 21.945312 17.746094 22.15625 17.777344 22.367188 17.8125 C 22.613281 17.847656 22.855469 17.90625 23.089844 17.980469 C 23.203125 18.019531 23.277344 18.09375 23.234375 18.277344"/><g clip-path="url(#d6b9aceacb)"><path fill="#000" fill-opacity="1" fill-rule="nonzero" d="M 30.566406 23.554688 C 30.484375 23.28125 30.335938 23.050781 30.121094 22.859375 C 29.996094 22.742188 29.859375 22.640625 29.710938 22.554688 C 29.523438 22.445312 29.332031 22.351562 29.128906 22.273438 C 28.9375 22.203125 28.746094 22.140625 28.550781 22.09375 C 28.414062 22.054688 28.277344 22.03125 28.140625 22.003906 C 28.027344 21.980469 27.914062 21.949219 27.792969 21.933594 C 27.605469 21.910156 27.417969 21.898438 27.226562 21.882812 C 27.207031 21.882812 27.191406 21.875 27.171875 21.875 C 27.007812 21.863281 26.84375 21.851562 26.675781 21.84375 C 26.660156 21.84375 26.640625 21.851562 26.621094 21.855469 C 26.578125 21.855469 26.535156 21.855469 26.488281 21.855469 C 26.429688 21.84375 26.367188 21.839844 26.304688 21.839844 C 26.179688 21.851562 26.058594 21.851562 25.9375 21.839844 C 25.484375 21.820312 25.039062 21.871094 24.589844 21.894531 C 24.558594 21.898438 24.523438 21.902344 24.492188 21.90625 L 24.304688 21.929688 C 24.136719 21.949219 23.964844 21.964844 23.796875 21.984375 C 23.683594 21.996094 23.578125 22.011719 23.46875 22.03125 C 23.324219 22.050781 23.183594 22.078125 23.039062 22.097656 C 22.925781 22.117188 22.8125 22.128906 22.699219 22.152344 C 22.515625 22.183594 22.332031 22.226562 22.144531 22.261719 C 21.960938 22.300781 21.804688 22.324219 21.632812 22.359375 C 21.558594 22.375 21.484375 22.390625 21.40625 22.410156 L 20.933594 22.523438 C 20.800781 22.554688 20.667969 22.585938 20.535156 22.621094 C 20.402344 22.65625 20.265625 22.695312 20.128906 22.734375 C 19.992188 22.773438 19.871094 22.796875 19.742188 22.835938 C 19.578125 22.878906 19.410156 22.933594 19.246094 22.984375 L 18.734375 23.132812 L 18.570312 23.179688 C 18.058594 23.320312 17.558594 23.488281 17.066406 23.6875 C 16.988281 23.714844 16.90625 23.746094 16.828125 23.777344 C 16.816406 23.78125 16.808594 23.785156 16.800781 23.792969 L 16.621094 23.863281 L 16.605469 23.863281 L 16.289062 23.992188 C 16.289062 23.988281 16.289062 23.988281 16.289062 23.984375 C 16.203125 24.015625 16.132812 24.042969 16.0625 24.074219 L 15.257812 24.421875 C 14.84375 24.601562 14.566406 24.726562 14.566406 24.726562 L 14.558594 24.738281 L 14.445312 24.789062 C 13.878906 25.046875 13.3125 25.335938 12.769531 25.640625 C 12.296875 25.902344 11.828125 26.171875 11.363281 26.449219 C 11.089844 26.613281 10.820312 26.789062 10.554688 26.972656 C 10.242188 27.1875 9.929688 27.414062 9.625 27.640625 C 9.34375 27.855469 9.078125 28.089844 8.832031 28.34375 C 8.679688 28.496094 8.546875 28.660156 8.425781 28.835938 C 8.410156 28.855469 8.402344 28.878906 8.394531 28.902344 C 8.414062 28.902344 8.421875 28.902344 8.425781 28.902344 C 8.894531 28.601562 9.375 28.328125 9.863281 28.066406 C 10.238281 27.871094 10.613281 27.675781 10.988281 27.488281 C 11.367188 27.304688 11.730469 27.132812 12.101562 26.957031 C 12.339844 26.84375 12.582031 26.734375 12.820312 26.625 L 14.332031 25.960938 L 14.578125 25.847656 L 14.730469 25.792969 L 14.753906 25.785156 L 17.246094 24.859375 L 17.273438 24.851562 C 17.460938 24.789062 17.652344 24.730469 17.839844 24.671875 C 17.96875 24.632812 18.101562 24.601562 18.230469 24.558594 C 18.289062 24.53125 18.34375 24.542969 18.390625 24.589844 C 18.640625 24.804688 18.894531 25.019531 19.15625 25.226562 C 19.460938 25.46875 19.773438 25.707031 20.082031 25.945312 C 20.390625 26.183594 20.667969 26.445312 20.921875 26.738281 C 21.144531 26.988281 21.328125 27.261719 21.464844 27.566406 C 21.523438 27.703125 21.574219 27.84375 21.609375 27.988281 C 21.640625 28.117188 21.648438 28.25 21.667969 28.382812 C 21.710938 28.71875 21.667969 29.042969 21.535156 29.351562 C 21.347656 29.800781 21.035156 30.136719 20.605469 30.363281 C 20.421875 30.460938 20.230469 30.535156 20.027344 30.582031 C 19.890625 30.617188 19.746094 30.617188 19.609375 30.644531 C 19.332031 30.703125 19.054688 30.65625 18.777344 30.625 C 18.582031 30.589844 18.390625 30.539062 18.203125 30.464844 C 17.773438 30.3125 17.425781 30.046875 17.160156 29.671875 C 16.9375 29.351562 16.785156 29 16.707031 28.617188 C 16.644531 28.378906 16.613281 28.136719 16.617188 27.894531 C 16.617188 27.859375 16.609375 27.828125 16.597656 27.796875 C 16.574219 27.71875 16.519531 27.683594 16.441406 27.683594 C 16.355469 27.679688 16.300781 27.71875 16.273438 27.796875 C 16.25 27.851562 16.230469 27.90625 16.222656 27.964844 C 16.203125 28.125 16.183594 28.289062 16.175781 28.449219 C 16.167969 28.703125 16.148438 28.960938 16.136719 29.210938 C 16.117188 29.71875 16.125 30.226562 16.125 30.730469 C 16.128906 30.765625 16.136719 30.796875 16.152344 30.824219 C 16.207031 30.960938 16.304688 31.046875 16.445312 31.085938 C 16.578125 31.144531 16.710938 31.199219 16.84375 31.246094 C 16.992188 31.296875 17.144531 31.34375 17.296875 31.378906 C 17.476562 31.417969 17.660156 31.445312 17.84375 31.46875 C 18.085938 31.5 18.328125 31.527344 18.574219 31.539062 C 18.855469 31.550781 19.140625 31.539062 19.421875 31.539062 C 19.5 31.539062 19.578125 31.539062 19.65625 31.53125 C 19.824219 31.511719 19.992188 31.484375 20.160156 31.457031 C 20.316406 31.4375 20.472656 31.40625 20.628906 31.367188 C 20.828125 31.3125 21.027344 31.242188 21.21875 31.164062 C 21.710938 30.972656 22.144531 30.691406 22.519531 30.320312 C 22.828125 30.019531 23.070312 29.671875 23.25 29.277344 C 23.355469 29.042969 23.433594 28.796875 23.476562 28.542969 C 23.507812 28.398438 23.53125 28.253906 23.546875 28.109375 C 23.589844 27.613281 23.550781 27.121094 23.433594 26.636719 C 23.371094 26.371094 23.285156 26.109375 23.171875 25.859375 C 23.003906 25.53125 22.804688 25.222656 22.566406 24.9375 C 22.324219 24.648438 22.0625 24.375 21.78125 24.125 C 21.691406 24.039062 21.601562 23.953125 21.511719 23.867188 C 21.511719 23.855469 21.519531 23.847656 21.523438 23.839844 C 21.6875 23.8125 21.847656 23.78125 22.011719 23.757812 C 22.273438 23.726562 22.535156 23.699219 22.796875 23.667969 L 22.839844 23.667969 C 23.019531 23.644531 23.199219 23.617188 23.378906 23.59375 C 23.53125 23.578125 23.6875 23.566406 23.84375 23.554688 C 24.09375 23.539062 24.347656 23.523438 24.597656 23.511719 C 24.808594 23.507812 25.019531 23.511719 25.230469 23.507812 C 25.652344 23.492188 26.070312 23.53125 26.488281 23.554688 C 26.511719 23.554688 26.535156 23.558594 26.554688 23.5625 L 26.992188 23.632812 C 27.097656 23.652344 27.207031 23.660156 27.308594 23.6875 C 27.488281 23.730469 27.664062 23.785156 27.835938 23.847656 C 28.058594 23.921875 28.246094 24.042969 28.402344 24.214844 C 28.5 24.324219 28.550781 24.453125 28.558594 24.601562 C 28.574219 24.828125 28.546875 25.050781 28.46875 25.265625 C 28.417969 25.40625 28.359375 25.542969 28.292969 25.679688 C 28.144531 25.945312 27.964844 26.191406 27.753906 26.414062 C 27.453125 26.734375 27.125 27.027344 26.773438 27.292969 C 26.441406 27.542969 26.09375 27.773438 25.730469 27.980469 C 25.316406 28.21875 24.894531 28.441406 24.476562 28.671875 L 24.375 28.726562 C 24.394531 28.742188 24.414062 28.746094 24.4375 28.738281 L 24.90625 28.542969 C 25.265625 28.386719 25.632812 28.242188 25.988281 28.074219 C 26.417969 27.871094 26.847656 27.65625 27.269531 27.433594 C 27.765625 27.179688 28.238281 26.890625 28.691406 26.566406 C 28.902344 26.417969 29.113281 26.269531 29.308594 26.101562 C 29.53125 25.925781 29.738281 25.726562 29.921875 25.511719 C 30.050781 25.351562 30.195312 25.199219 30.308594 25.027344 C 30.433594 24.847656 30.519531 24.652344 30.566406 24.4375 C 30.585938 24.308594 30.628906 24.1875 30.640625 24.058594 C 30.648438 23.886719 30.625 23.71875 30.566406 23.554688 Z M 30.566406 23.554688"/></g><g fill="#000" fill-opacity="1"><g><g><path d="M 0.71875 -9.859375 L 4.3125 -9.859375 C 5.320312 -9.859375 6.132812 -9.597656 6.75 -9.078125 C 7.375 -8.566406 7.6875 -7.816406 7.6875 -6.828125 C 7.6875 -5.835938 7.367188 -5.0625 6.734375 -4.5 C 6.109375 -3.9375 5.300781 -3.65625 4.3125 -3.65625 L 2.96875 -3.65625 L 2.96875 0 L 0.71875 0 Z M 2.96875 -5.453125 L 3.59375 -5.453125 C 4.09375 -5.453125 4.503906 -5.550781 4.828125 -5.75 C 5.148438 -5.957031 5.3125 -6.289062 5.3125 -6.75 C 5.3125 -7.21875 5.148438 -7.550781 4.828125 -7.75 C 4.503906 -7.957031 4.09375 -8.0625 3.59375 -8.0625 L 2.96875 -8.0625 Z M 2.96875 -5.453125" transform="translate(33.234852, 20.724326)"/></g></g></g><g fill="#000" fill-opacity="1"><g><g><path d="M 0.71875 -9.859375 L 4.25 -9.859375 C 5.195312 -9.859375 5.96875 -9.601562 6.5625 -9.09375 C 7.15625 -8.59375 7.453125 -7.875 7.453125 -6.9375 C 7.453125 -6.207031 7.269531 -5.597656 6.90625 -5.109375 C 6.550781 -4.617188 6.0625 -4.273438 5.4375 -4.078125 L 8.828125 0 L 5.96875 0 L 2.96875 -3.890625 L 2.96875 0 L 0.71875 0 Z M 2.96875 -5.484375 L 3.234375 -5.484375 C 3.429688 -5.484375 3.601562 -5.488281 3.75 -5.5 C 3.894531 -5.507812 4.054688 -5.535156 4.234375 -5.578125 C 4.421875 -5.628906 4.570312 -5.695312 4.6875 -5.78125 C 4.800781 -5.875 4.894531 -6.003906 4.96875 -6.171875 C 5.050781 -6.335938 5.09375 -6.539062 5.09375 -6.78125 C 5.09375 -7.019531 5.050781 -7.222656 4.96875 -7.390625 C 4.894531 -7.554688 4.800781 -7.679688 4.6875 -7.765625 C 4.570312 -7.859375 4.421875 -7.925781 4.234375 -7.96875 C 4.054688 -8.019531 3.894531 -8.046875 3.75 -8.046875 C 3.601562 -8.054688 3.429688 -8.0625 3.234375 -8.0625 L 2.96875 -8.0625 Z M 2.96875 -5.484375" transform="translate(41.196146, 20.724326)"/></g></g></g><g fill="#000" fill-opacity="1"><g><g><path d="M 6.359375 -9.859375 L 6.359375 -7.890625 L 2.96875 -7.890625 L 2.96875 -5.921875 L 6.21875 -5.921875 L 6.21875 -3.953125 L 2.96875 -3.953125 L 2.96875 -1.96875 L 6.359375 -1.96875 L 6.359375 0 L 0.71875 0 L 0.71875 -9.859375 Z M 6.359375 -9.859375" transform="translate(49.755136, 20.724326)"/></g></g></g><g fill="#000" fill-opacity="1"><g><g><path d="M 4.34375 -10.046875 C 4.882812 -10.046875 5.410156 -9.96875 5.921875 -9.8125 C 6.429688 -9.65625 6.804688 -9.5 7.046875 -9.34375 L 7.40625 -9.109375 L 6.5 -7.3125 C 6.425781 -7.363281 6.328125 -7.425781 6.203125 -7.5 C 6.078125 -7.570312 5.835938 -7.671875 5.484375 -7.796875 C 5.128906 -7.929688 4.800781 -8 4.5 -8 C 4.125 -8 3.832031 -7.914062 3.625 -7.75 C 3.425781 -7.59375 3.328125 -7.378906 3.328125 -7.109375 C 3.328125 -6.972656 3.375 -6.847656 3.46875 -6.734375 C 3.570312 -6.617188 3.738281 -6.492188 3.96875 -6.359375 C 4.195312 -6.234375 4.398438 -6.128906 4.578125 -6.046875 C 4.753906 -5.960938 5.023438 -5.84375 5.390625 -5.6875 C 6.023438 -5.414062 6.566406 -5.046875 7.015625 -4.578125 C 7.472656 -4.117188 7.703125 -3.59375 7.703125 -3 C 7.703125 -2.4375 7.597656 -1.941406 7.390625 -1.515625 C 7.191406 -1.097656 6.914062 -0.769531 6.5625 -0.53125 C 6.207031 -0.289062 5.8125 -0.113281 5.375 0 C 4.945312 0.113281 4.484375 0.171875 3.984375 0.171875 C 3.546875 0.171875 3.117188 0.128906 2.703125 0.046875 C 2.296875 -0.0351562 1.953125 -0.144531 1.671875 -0.28125 C 1.390625 -0.414062 1.132812 -0.546875 0.90625 -0.671875 C 0.6875 -0.796875 0.53125 -0.898438 0.4375 -0.984375 L 0.28125 -1.125 L 1.40625 -3.015625 C 1.5 -2.929688 1.628906 -2.828125 1.796875 -2.703125 C 1.960938 -2.578125 2.257812 -2.410156 2.6875 -2.203125 C 3.113281 -2.003906 3.488281 -1.90625 3.8125 -1.90625 C 4.757812 -1.90625 5.234375 -2.226562 5.234375 -2.875 C 5.234375 -3.007812 5.195312 -3.132812 5.125 -3.25 C 5.0625 -3.363281 4.941406 -3.476562 4.765625 -3.59375 C 4.597656 -3.707031 4.445312 -3.796875 4.3125 -3.859375 C 4.1875 -3.929688 3.972656 -4.035156 3.671875 -4.171875 C 3.378906 -4.316406 3.160156 -4.425781 3.015625 -4.5 C 2.410156 -4.789062 1.945312 -5.15625 1.625 -5.59375 C 1.300781 -6.039062 1.140625 -6.519531 1.140625 -7.03125 C 1.140625 -7.914062 1.460938 -8.640625 2.109375 -9.203125 C 2.765625 -9.765625 3.507812 -10.046875 4.34375 -10.046875 Z M 4.34375 -10.046875" transform="translate(56.688394, 20.724326)"/></g></g></g><g fill="#000" fill-opacity="1"><g><g><path d="M 6.359375 -9.859375 L 6.359375 -7.890625 L 2.96875 -7.890625 L 2.96875 -5.921875 L 6.21875 -5.921875 L 6.21875 -3.953125 L 2.96875 -3.953125 L 2.96875 -1.96875 L 6.359375 -1.96875 L 6.359375 0 L 0.71875 0 L 0.71875 -9.859375 Z M 6.359375 -9.859375" transform="translate(64.721412, 20.724326)"/></g></g></g><g fill="#000" fill-opacity="1"><g><g><path d="M 5.71875 -9.859375 L 9.703125 0 L 7.296875 0 L 6.5625 -1.96875 L 2.8125 -1.96875 L 2.078125 0 L -0.328125 0 L 3.640625 -9.859375 Z M 5.796875 -3.9375 L 4.703125 -6.8125 L 4.671875 -6.8125 L 3.578125 -3.9375 Z M 5.796875 -3.9375" transform="translate(71.654668, 20.724326)"/></g></g></g><g fill="#000" fill-opacity="1"><g><g><path d="M 0.71875 -9.859375 L 4.25 -9.859375 C 5.195312 -9.859375 5.96875 -9.601562 6.5625 -9.09375 C 7.15625 -8.59375 7.453125 -7.875 7.453125 -6.9375 C 7.453125 -6.207031 7.269531 -5.597656 6.90625 -5.109375 C 6.550781 -4.617188 6.0625 -4.273438 5.4375 -4.078125 L 8.828125 0 L 5.96875 0 L 2.96875 -3.890625 L 2.96875 0 L 0.71875 0 Z M 2.96875 -5.484375 L 3.234375 -5.484375 C 3.429688 -5.484375 3.601562 -5.488281 3.75 -5.5 C 3.894531 -5.507812 4.054688 -5.535156 4.234375 -5.578125 C 4.421875 -5.628906 4.570312 -5.695312 4.6875 -5.78125 C 4.800781 -5.875 4.894531 -6.003906 4.96875 -6.171875 C 5.050781 -6.335938 5.09375 -6.539062 5.09375 -6.78125 C 5.09375 -7.019531 5.050781 -7.222656 4.96875 -7.390625 C 4.894531 -7.554688 4.800781 -7.679688 4.6875 -7.765625 C 4.570312 -7.859375 4.421875 -7.925781 4.234375 -7.96875 C 4.054688 -8.019531 3.894531 -8.046875 3.75 -8.046875 C 3.601562 -8.054688 3.429688 -8.0625 3.234375 -8.0625 L 2.96875 -8.0625 Z M 2.96875 -5.484375" transform="translate(81.026519, 20.724326)"/></g></g></g><g fill="#000" fill-opacity="1"><g><g><path d="M 4.34375 -10.046875 C 4.882812 -10.046875 5.410156 -9.96875 5.921875 -9.8125 C 6.429688 -9.65625 6.804688 -9.5 7.046875 -9.34375 L 7.40625 -9.109375 L 6.5 -7.3125 C 6.425781 -7.363281 6.328125 -7.425781 6.203125 -7.5 C 6.078125 -7.570312 5.835938 -7.671875 5.484375 -7.796875 C 5.128906 -7.929688 4.800781 -8 4.5 -8 C 4.125 -8 3.832031 -7.914062 3.625 -7.75 C 3.425781 -7.59375 3.328125 -7.378906 3.328125 -7.109375 C 3.328125 -6.972656 3.375 -6.847656 3.46875 -6.734375 C 3.570312 -6.617188 3.738281 -6.492188 3.96875 -6.359375 C 4.195312 -6.234375 4.398438 -6.128906 4.578125 -6.046875 C 4.753906 -5.960938 5.023438 -5.84375 5.390625 -5.6875 C 6.023438 -5.414062 6.566406 -5.046875 7.015625 -4.578125 C 7.472656 -4.117188 7.703125 -3.59375 7.703125 -3 C 7.703125 -2.4375 7.597656 -1.941406 7.390625 -1.515625 C 7.191406 -1.097656 6.914062 -0.769531 6.5625 -0.53125 C 6.207031 -0.289062 5.8125 -0.113281 5.375 0 C 4.945312 0.113281 4.484375 0.171875 3.984375 0.171875 C 3.546875 0.171875 3.117188 0.128906 2.703125 0.046875 C 2.296875 -0.0351562 1.953125 -0.144531 1.671875 -0.28125 C 1.390625 -0.414062 1.132812 -0.546875 0.90625 -0.671875 C 0.6875 -0.796875 0.53125 -0.898438 0.4375 -0.984375 L 0.28125 -1.125 L 1.40625 -3.015625 C 1.5 -2.929688 1.628906 -2.828125 1.796875 -2.703125 C 1.960938 -2.578125 2.257812 -2.410156 2.6875 -2.203125 C 3.113281 -2.003906 3.488281 -1.90625 3.8125 -1.90625 C 4.757812 -1.90625 5.234375 -2.226562 5.234375 -2.875 C 5.234375 -3.007812 5.195312 -3.132812 5.125 -3.25 C 5.0625 -3.363281 4.941406 -3.476562 4.765625 -3.59375 C 4.597656 -3.707031 4.445312 -3.796875 4.3125 -3.859375 C 4.1875 -3.929688 3.972656 -4.035156 3.671875 -4.171875 C 3.378906 -4.316406 3.160156 -4.425781 3.015625 -4.5 C 2.410156 -4.789062 1.945312 -5.15625 1.625 -5.59375 C 1.300781 -6.039062 1.140625 -6.519531 1.140625 -7.03125 C 1.140625 -7.914062 1.460938 -8.640625 2.109375 -9.203125 C 2.765625 -9.765625 3.507812 -10.046875 4.34375 -10.046875 Z M 4.34375 -10.046875" transform="translate(92.848925, 20.724326)"/></g></g></g><g fill="#000" fill-opacity="1"><g><g><path d="M 0.28125 -4.9375 C 0.28125 -6.363281 0.765625 -7.570312 1.734375 -8.5625 C 2.703125 -9.550781 3.875 -10.046875 5.25 -10.046875 C 6.625 -10.046875 7.789062 -9.550781 8.75 -8.5625 C 9.71875 -7.582031 10.203125 -6.375 10.203125 -4.9375 C 10.203125 -3.488281 9.726562 -2.273438 8.78125 -1.296875 C 7.832031 -0.316406 6.65625 0.171875 5.25 0.171875 C 3.800781 0.171875 2.609375 -0.3125 1.671875 -1.28125 C 0.742188 -2.257812 0.28125 -3.476562 0.28125 -4.9375 Z M 2.703125 -4.9375 C 2.703125 -4.414062 2.78125 -3.941406 2.9375 -3.515625 C 3.09375 -3.085938 3.367188 -2.726562 3.765625 -2.4375 C 4.171875 -2.144531 4.664062 -2 5.25 -2 C 6.082031 -2 6.710938 -2.285156 7.140625 -2.859375 C 7.566406 -3.429688 7.78125 -4.125 7.78125 -4.9375 C 7.78125 -5.738281 7.5625 -6.425781 7.125 -7 C 6.695312 -7.582031 6.070312 -7.875 5.25 -7.875 C 4.4375 -7.875 3.804688 -7.582031 3.359375 -7 C 2.921875 -6.425781 2.703125 -5.738281 2.703125 -4.9375 Z M 2.703125 -4.9375" transform="translate(100.881942, 20.724326)"/></g></g></g><g fill="#000" fill-opacity="1"><g><g><path d="M 6.421875 -9.859375 L 6.421875 -7.890625 L 2.96875 -7.890625 L 2.96875 -5.921875 L 6.15625 -5.921875 L 6.15625 -3.953125 L 2.96875 -3.953125 L 2.96875 0 L 0.71875 0 L 0.71875 -9.859375 Z M 6.421875 -9.859375" transform="translate(111.365514, 20.724326)"/></g></g></g><g fill="#000" fill-opacity="1"><g><g><path d="M 0.09375 -7.890625 L 0.09375 -9.859375 L 7.03125 -9.859375 L 7.03125 -7.890625 L 4.6875 -7.890625 L 4.6875 0 L 2.4375 0 L 2.4375 -7.890625 Z M 0.09375 -7.890625" transform="translate(118.143377, 20.724326)"/></g></g></g><g fill="#000" fill-opacity="1"><g><g><path d="M 8.28125 0 L 6.703125 -5.53125 L 5.125 0 L 2.625 0 L -0.171875 -9.859375 L 2.3125 -9.859375 L 4 -3.09375 L 4.0625 -3.09375 L 5.859375 -9.859375 L 7.546875 -9.859375 L 9.34375 -3.09375 L 9.40625 -3.09375 L 11.09375 -9.859375 L 13.578125 -9.859375 L 10.765625 0 Z M 8.28125 0" transform="translate(125.267898, 20.724326)"/></g></g></g><g fill="#000" fill-opacity="1"><g><g><path d="M 5.71875 -9.859375 L 9.703125 0 L 7.296875 0 L 6.5625 -1.96875 L 2.8125 -1.96875 L 2.078125 0 L -0.328125 0 L 3.640625 -9.859375 Z M 5.796875 -3.9375 L 4.703125 -6.8125 L 4.671875 -6.8125 L 3.578125 -3.9375 Z M 5.796875 -3.9375" transform="translate(138.668219, 20.724326)"/></g></g></g><g fill="#000" fill-opacity="1"><g><g><path d="M 0.71875 -9.859375 L 4.25 -9.859375 C 5.195312 -9.859375 5.96875 -9.601562 6.5625 -9.09375 C 7.15625 -8.59375 7.453125 -7.875 7.453125 -6.9375 C 7.453125 -6.207031 7.269531 -5.597656 6.90625 -5.109375 C 6.550781 -4.617188 6.0625 -4.273438 5.4375 -4.078125 L 8.828125 0 L 5.96875 0 L 2.96875 -3.890625 L 2.96875 0 L 0.71875 0 Z M 2.96875 -5.484375 L 3.234375 -5.484375 C 3.429688 -5.484375 3.601562 -5.488281 3.75 -5.5 C 3.894531 -5.507812 4.054688 -5.535156 4.234375 -5.578125 C 4.421875 -5.628906 4.570312 -5.695312 4.6875 -5.78125 C 4.800781 -5.875 4.894531 -6.003906 4.96875 -6.171875 C 5.050781 -6.335938 5.09375 -6.539062 5.09375 -6.78125 C 5.09375 -7.019531 5.050781 -7.222656 4.96875 -7.390625 C 4.894531 -7.554688 4.800781 -7.679688 4.6875 -7.765625 C 4.570312 -7.859375 4.421875 -7.925781 4.234375 -7.96875 C 4.054688 -8.019531 3.894531 -8.046875 3.75 -8.046875 C 3.601562 -8.054688 3.429688 -8.0625 3.234375 -8.0625 L 2.96875 -8.0625 Z M 2.96875 -5.484375" transform="translate(148.040071, 20.724326)"/></g></g></g><g fill="#000" fill-opacity="1"><g><g><path d="M 6.359375 -9.859375 L 6.359375 -7.890625 L 2.96875 -7.890625 L 2.96875 -5.921875 L 6.21875 -5.921875 L 6.21875 -3.953125 L 2.96875 -3.953125 L 2.96875 -1.96875 L 6.359375 -1.96875 L 6.359375 0 L 0.71875 0 L 0.71875 -9.859375 Z M 6.359375 -9.859375" transform="translate(156.599064, 20.724326)"/></g></g></g><g fill="#000" fill-opacity="1"><g><g><path d="M 4.34375 -10.046875 C 4.882812 -10.046875 5.410156 -9.96875 5.921875 -9.8125 C 6.429688 -9.65625 6.804688 -9.5 7.046875 -9.34375 L 7.40625 -9.109375 L 6.5 -7.3125 C 6.425781 -7.363281 6.328125 -7.425781 6.203125 -7.5 C 6.078125 -7.570312 5.835938 -7.671875 5.484375 -7.796875 C 5.128906 -7.929688 4.800781 -8 4.5 -8 C 4.125 -8 3.832031 -7.914062 3.625 -7.75 C 3.425781 -7.59375 3.328125 -7.378906 3.328125 -7.109375 C 3.328125 -6.972656 3.375 -6.847656 3.46875 -6.734375 C 3.570312 -6.617188 3.738281 -6.492188 3.96875 -6.359375 C 4.195312 -6.234375 4.398438 -6.128906 4.578125 -6.046875 C 4.753906 -5.960938 5.023438 -5.84375 5.390625 -5.6875 C 6.023438 -5.414062 6.566406 -5.046875 7.015625 -4.578125 C 7.472656 -4.117188 7.703125 -3.59375 7.703125 -3 C 7.703125 -2.4375 7.597656 -1.941406 7.390625 -1.515625 C 7.191406 -1.097656 6.914062 -0.769531 6.5625 -0.53125 C 6.207031 -0.289062 5.8125 -0.113281 5.375 0 C 4.945312 0.113281 4.484375 0.171875 3.984375 0.171875 C 3.546875 0.171875 3.117188 0.128906 2.703125 0.046875 C 2.296875 -0.0351562 1.953125 -0.144531 1.671875 -0.28125 C 1.390625 -0.414062 1.132812 -0.546875 0.90625 -0.671875 C 0.6875 -0.796875 0.53125 -0.898438 0.4375 -0.984375 L 0.28125 -1.125 L 1.40625 -3.015625 C 1.5 -2.929688 1.628906 -2.828125 1.796875 -2.703125 C 1.960938 -2.578125 2.257812 -2.410156 2.6875 -2.203125 C 3.113281 -2.003906 3.488281 -1.90625 3.8125 -1.90625 C 4.757812 -1.90625 5.234375 -2.226562 5.234375 -2.875 C 5.234375 -3.007812 5.195312 -3.132812 5.125 -3.25 C 5.0625 -3.363281 4.941406 -3.476562 4.765625 -3.59375 C 4.597656 -3.707031 4.445312 -3.796875 4.3125 -3.859375 C 4.1875 -3.929688 3.972656 -4.035156 3.671875 -4.171875 C 3.378906 -4.316406 3.160156 -4.425781 3.015625 -4.5 C 2.410156 -4.789062 1.945312 -5.15625 1.625 -5.59375 C 1.300781 -6.039062 1.140625 -6.519531 1.140625 -7.03125 C 1.140625 -7.914062 1.460938 -8.640625 2.109375 -9.203125 C 2.765625 -9.765625 3.507812 -10.046875 4.34375 -10.046875 Z M 4.34375 -10.046875" transform="translate(163.532325, 20.724326)"/></g></g></g></svg>