<svg xmlns="http://www.w3.org/2000/svg" xmlns:xlink="http://www.w3.org/1999/xlink" width="184" zoomAndPan="magnify" viewBox="0 0 138 42" height="56" preserveAspectRatio="xMidYMid meet" version="1.0"><defs><g/><clipPath id="315024505d"><path d="M 4.25 4.101562 L 33.554688 4.101562 L 33.554688 33.40625 L 4.25 33.40625 Z M 4.25 4.101562 " clip-rule="nonzero"/></clipPath><clipPath id="90ecf998fc"><path d="M 22 18.6875 L 25 18.6875 L 25 21 L 22 21 Z M 22 18.6875 " clip-rule="nonzero"/></clipPath><clipPath id="19d1b1e9f7"><path d="M 4.875 26 L 33.25 26 L 33.25 39.152344 L 4.875 39.152344 Z M 4.875 26 " clip-rule="nonzero"/></clipPath></defs><path fill="#000000" d="M 15.953125 18.777344 C 15.953125 18.335938 15.597656 17.984375 15.160156 17.984375 C 14.722656 17.984375 14.367188 18.335938 14.367188 18.777344 C 14.367188 19.214844 14.722656 19.570312 15.160156 19.570312 C 15.597656 19.570312 15.953125 19.214844 15.953125 18.777344 " fill-opacity="1" fill-rule="nonzero"/><g clip-path="url(#315024505d)"><path fill="#000000" d="M 33.519531 4.945312 C 33.519531 4.519531 33.160156 4.160156 32.738281 4.160156 C 31.820312 4.160156 30.902344 4.160156 29.984375 4.160156 C 27.777344 4.160156 25.574219 4.160156 23.371094 4.160156 C 20.714844 4.160156 18.058594 4.160156 15.402344 4.160156 C 13.097656 4.160156 10.792969 4.160156 8.484375 4.160156 C 7.367188 4.160156 6.238281 4.125 5.121094 4.160156 C 5.105469 4.160156 5.089844 4.160156 5.074219 4.160156 C 4.648438 4.160156 4.289062 4.519531 4.289062 4.945312 C 4.289062 5.863281 4.289062 6.78125 4.289062 7.699219 C 4.289062 9.902344 4.289062 12.105469 4.289062 14.308594 C 4.289062 16.964844 4.289062 19.621094 4.289062 22.277344 C 4.289062 24.582031 4.289062 26.890625 4.289062 29.195312 C 4.289062 30.316406 4.253906 31.441406 4.289062 32.558594 C 4.289062 32.574219 4.289062 32.59375 4.289062 32.609375 C 4.289062 33.03125 4.648438 33.390625 5.074219 33.390625 C 7.273438 33.390625 9.476562 33.390625 11.679688 33.390625 C 11.992188 33.390625 12.308594 33.390625 12.621094 33.390625 C 12.863281 33.390625 13.042969 33.300781 13.171875 33.164062 C 13.3125 33.039062 13.40625 32.855469 13.40625 32.609375 C 13.40625 31.820312 13.40625 31.035156 13.40625 30.246094 C 13.40625 28.367188 13.40625 26.488281 13.40625 24.609375 C 13.40625 22.328125 13.40625 20.042969 13.40625 17.761719 C 13.40625 15.785156 13.40625 13.8125 13.40625 11.835938 C 13.40625 11.128906 13.425781 10.414062 13.417969 9.703125 C 15.621094 9.703125 17.820312 9.703125 20.019531 9.703125 C 20.703125 9.703125 21.269531 9.769531 21.871094 10.027344 C 22.832031 10.4375 23.558594 11.167969 24.039062 12.140625 C 24.222656 12.515625 24.375 13.148438 24.398438 13.585938 C 24.429688 14.179688 24.378906 14.570312 24.203125 15.121094 C 23.902344 16.066406 23.210938 16.921875 22.335938 17.433594 C 22.023438 17.613281 21.875 17.679688 21.574219 17.78125 C 21.414062 17.832031 21.25 17.875 21.082031 17.910156 C 20.902344 17.949219 20.871094 17.957031 20.742188 17.96875 C 20.421875 18 20.097656 17.992188 19.777344 17.992188 C 19.0625 17.992188 18.34375 17.992188 17.628906 17.992188 C 16.621094 17.992188 16.621094 19.558594 17.628906 19.558594 C 18.304688 19.558594 18.976562 19.558594 19.648438 19.558594 C 20.558594 19.558594 21.449219 19.515625 22.304688 19.171875 C 24.863281 18.152344 26.351562 15.488281 25.867188 12.777344 C 25.390625 10.109375 22.933594 8.160156 20.261719 8.136719 C 19.113281 8.128906 17.960938 8.136719 16.8125 8.136719 C 15.417969 8.136719 14.019531 8.136719 12.621094 8.136719 C 12.382812 8.136719 12.199219 8.226562 12.074219 8.363281 C 11.933594 8.488281 11.839844 8.675781 11.839844 8.921875 C 11.839844 9.707031 11.839844 10.496094 11.839844 11.28125 C 11.839844 13.160156 11.839844 15.039062 11.839844 16.917969 C 11.839844 19.203125 11.839844 21.484375 11.839844 23.769531 C 11.839844 25.742188 11.839844 27.71875 11.839844 29.691406 C 11.839844 30.402344 11.820312 31.113281 11.824219 31.824219 C 9.890625 31.824219 7.953125 31.824219 6.015625 31.824219 C 5.960938 31.824219 5.910156 31.824219 5.855469 31.824219 C 5.855469 31.167969 5.855469 30.511719 5.855469 29.855469 C 5.855469 27.648438 5.855469 25.445312 5.855469 23.242188 C 5.855469 20.585938 5.855469 17.929688 5.855469 15.273438 C 5.855469 12.96875 5.855469 10.660156 5.855469 8.355469 C 5.855469 7.597656 5.855469 6.839844 5.855469 6.082031 C 5.855469 5.964844 5.859375 5.84375 5.859375 5.726562 C 6.515625 5.726562 7.171875 5.726562 7.828125 5.726562 C 10.03125 5.726562 12.234375 5.726562 14.441406 5.726562 C 17.09375 5.726562 19.75 5.726562 22.40625 5.726562 C 24.714844 5.726562 27.019531 5.726562 29.324219 5.726562 C 30.082031 5.726562 30.839844 5.726562 31.597656 5.726562 C 31.71875 5.726562 31.835938 5.726562 31.953125 5.730469 C 31.953125 6.386719 31.953125 7.042969 31.953125 7.699219 C 31.953125 9.902344 31.953125 12.105469 31.953125 14.308594 C 31.953125 16.964844 31.953125 19.621094 31.953125 22.277344 C 31.953125 24.582031 31.953125 26.890625 31.953125 29.195312 C 31.953125 29.953125 31.953125 30.710938 31.953125 31.46875 C 31.953125 31.585938 31.953125 31.707031 31.949219 31.824219 C 29.859375 31.824219 27.765625 31.824219 25.675781 31.824219 C 25.335938 31.824219 25 31.824219 24.660156 31.824219 C 23.652344 31.824219 23.652344 33.390625 24.660156 33.390625 C 27.015625 33.390625 29.367188 33.390625 31.722656 33.390625 C 32.0625 33.390625 32.398438 33.390625 32.738281 33.390625 C 33.160156 33.390625 33.519531 33.03125 33.519531 32.609375 C 33.519531 31.691406 33.519531 30.773438 33.519531 29.855469 C 33.519531 27.648438 33.519531 25.445312 33.519531 23.242188 C 33.519531 20.585938 33.519531 17.929688 33.519531 15.273438 C 33.519531 12.96875 33.519531 10.660156 33.519531 8.355469 C 33.519531 7.238281 33.558594 6.109375 33.519531 4.992188 C 33.519531 4.976562 33.519531 4.960938 33.519531 4.945312 " fill-opacity="1" fill-rule="nonzero"/></g><path fill="#000000" d="M 27.789062 22.347656 L 28.117188 20.042969 L 28.152344 20.042969 L 28.183594 20.234375 C 28.261719 20.75 28.34375 21.261719 28.414062 21.777344 C 28.4375 21.910156 28.4375 22.046875 28.449219 22.1875 C 28.460938 22.324219 28.46875 22.347656 28.621094 22.371094 L 30.683594 22.65625 C 30.714844 22.664062 30.742188 22.675781 30.773438 22.6875 C 30.703125 22.703125 30.664062 22.714844 30.628906 22.71875 C 30.121094 22.800781 29.609375 22.875 29.097656 22.953125 C 28.933594 22.976562 28.765625 22.992188 28.601562 23.011719 C 28.46875 23.03125 28.46875 23.035156 28.449219 23.171875 C 28.351562 23.867188 28.257812 24.558594 28.167969 25.253906 C 28.164062 25.273438 28.15625 25.292969 28.136719 25.308594 C 28.054688 24.933594 28.007812 24.554688 27.949219 24.179688 C 27.894531 23.804688 27.84375 23.425781 27.792969 23.042969 L 25.558594 22.710938 C 25.789062 22.601562 26.039062 22.605469 26.277344 22.5625 C 26.515625 22.519531 26.777344 22.480469 27.023438 22.445312 C 27.273438 22.410156 27.527344 22.378906 27.789062 22.347656 Z M 27.789062 22.347656 " fill-opacity="1" fill-rule="nonzero"/><path fill="#000000" d="M 12.601562 28.296875 L 12.722656 27.441406 L 12.738281 27.441406 C 12.738281 27.464844 12.738281 27.488281 12.75 27.511719 C 12.777344 27.703125 12.804688 27.894531 12.832031 28.082031 C 12.839844 28.132812 12.84375 28.1875 12.847656 28.230469 C 12.851562 28.273438 12.847656 28.292969 12.910156 28.300781 L 13.675781 28.40625 L 13.707031 28.417969 L 13.65625 28.429688 L 13.085938 28.515625 C 13.023438 28.523438 12.964844 28.53125 12.902344 28.535156 C 12.839844 28.542969 12.851562 28.535156 12.847656 28.59375 L 12.742188 29.367188 C 12.742188 29.375 12.738281 29.382812 12.730469 29.386719 C 12.699219 29.25 12.683594 29.109375 12.660156 28.96875 C 12.640625 28.828125 12.621094 28.695312 12.601562 28.546875 L 11.773438 28.421875 C 11.859375 28.394531 11.949219 28.375 12.042969 28.367188 C 12.132812 28.351562 12.226562 28.339844 12.320312 28.324219 C 12.410156 28.3125 12.503906 28.308594 12.601562 28.296875 Z M 12.601562 28.296875 " fill-opacity="1" fill-rule="nonzero"/><g clip-path="url(#90ecf998fc)"><path fill="#000000" d="M 22.921875 19.5625 L 23.050781 18.710938 L 23.066406 18.710938 C 23.066406 18.734375 23.074219 18.757812 23.078125 18.78125 C 23.105469 18.972656 23.136719 19.160156 23.164062 19.351562 C 23.164062 19.402344 23.171875 19.453125 23.175781 19.5 C 23.179688 19.546875 23.183594 19.558594 23.238281 19.566406 L 24.003906 19.671875 L 24.035156 19.683594 C 24.019531 19.691406 24 19.695312 23.984375 19.695312 L 23.414062 19.78125 C 23.355469 19.792969 23.292969 19.796875 23.230469 19.804688 C 23.167969 19.8125 23.183594 19.8125 23.175781 19.867188 L 23.066406 20.640625 C 23.0625 20.648438 23.058594 20.65625 23.054688 20.664062 C 23.023438 20.523438 23.007812 20.382812 22.984375 20.242188 C 22.964844 20.105469 22.945312 19.964844 22.925781 19.824219 L 22.097656 19.699219 C 22.183594 19.667969 22.273438 19.648438 22.367188 19.644531 C 22.457031 19.625 22.550781 19.613281 22.640625 19.597656 C 22.734375 19.585938 22.832031 19.574219 22.921875 19.5625 Z M 22.921875 19.5625 " fill-opacity="1" fill-rule="nonzero"/></g><path fill="#000000" d="M 23.769531 22.296875 C 23.769531 22.347656 23.769531 22.402344 23.769531 22.449219 C 23.757812 22.734375 23.734375 23.015625 23.726562 23.296875 C 23.714844 23.796875 23.714844 24.292969 23.703125 24.792969 C 23.699219 24.886719 23.683594 24.980469 23.65625 25.070312 C 23.621094 25.207031 23.546875 25.261719 23.441406 25.253906 C 23.316406 25.234375 23.246094 25.164062 23.230469 25.035156 C 23.226562 25.007812 23.226562 24.980469 23.230469 24.949219 C 23.226562 24.402344 23.066406 23.90625 22.742188 23.46875 C 22.492188 23.085938 22.167969 22.789062 21.769531 22.574219 C 21.53125 22.445312 21.277344 22.351562 21.015625 22.296875 C 20.65625 22.21875 20.296875 22.191406 19.929688 22.214844 C 19.367188 22.230469 18.851562 22.402344 18.386719 22.722656 C 17.890625 23.074219 17.59375 23.554688 17.507812 24.167969 C 17.441406 24.589844 17.476562 25.007812 17.617188 25.414062 C 17.695312 25.617188 17.796875 25.808594 17.929688 25.988281 C 18.207031 26.382812 18.527344 26.734375 18.894531 27.046875 L 19 27.136719 C 18.988281 27.203125 18.941406 27.207031 18.894531 27.222656 C 18.53125 27.328125 16.328125 28.070312 16.230469 28.113281 C 16.15625 28.144531 16.085938 28.167969 15.992188 28.199219 C 15.949219 28.128906 15.902344 28.0625 15.863281 27.992188 C 15.695312 27.695312 15.558594 27.382812 15.453125 27.058594 C 15.367188 26.769531 15.308594 26.476562 15.273438 26.175781 C 15.226562 25.824219 15.214844 25.46875 15.238281 25.117188 C 15.273438 24.609375 15.402344 24.128906 15.621094 23.675781 C 15.875 23.164062 16.21875 22.726562 16.652344 22.363281 C 17.023438 22.046875 17.433594 21.800781 17.882812 21.621094 C 18.132812 21.523438 18.386719 21.4375 18.644531 21.359375 C 18.820312 21.308594 19.003906 21.269531 19.183594 21.242188 C 19.679688 21.160156 20.179688 21.121094 20.683594 21.132812 C 21.082031 21.152344 21.484375 21.1875 21.882812 21.226562 C 22.15625 21.253906 22.429688 21.292969 22.699219 21.339844 C 23.011719 21.386719 23.320312 21.460938 23.621094 21.558594 C 23.765625 21.609375 23.855469 21.707031 23.800781 21.945312 " fill-opacity="1" fill-rule="nonzero"/><g clip-path="url(#19d1b1e9f7)"><path fill="#000000" d="M 33.152344 28.789062 C 33.046875 28.433594 32.855469 28.132812 32.585938 27.882812 C 32.425781 27.734375 32.25 27.601562 32.0625 27.492188 C 31.824219 27.351562 31.574219 27.226562 31.320312 27.125 C 31.078125 27.03125 30.832031 26.953125 30.582031 26.890625 C 30.410156 26.84375 30.230469 26.8125 30.058594 26.773438 C 29.914062 26.742188 29.769531 26.707031 29.613281 26.6875 C 29.375 26.65625 29.136719 26.636719 28.894531 26.617188 C 28.871094 26.617188 28.847656 26.609375 28.824219 26.605469 C 28.613281 26.59375 28.402344 26.578125 28.191406 26.566406 C 28.171875 26.566406 28.148438 26.578125 28.121094 26.582031 C 28.066406 26.585938 28.011719 26.585938 27.953125 26.582031 C 27.875 26.570312 27.796875 26.5625 27.714844 26.566406 C 27.558594 26.578125 27.40625 26.578125 27.25 26.566406 C 26.671875 26.539062 26.105469 26.601562 25.53125 26.632812 C 25.488281 26.636719 25.449219 26.644531 25.40625 26.652344 L 25.167969 26.679688 C 24.949219 26.703125 24.734375 26.726562 24.519531 26.75 C 24.375 26.765625 24.238281 26.789062 24.097656 26.808594 C 23.917969 26.839844 23.734375 26.871094 23.554688 26.898438 C 23.410156 26.921875 23.265625 26.9375 23.121094 26.964844 C 22.886719 27.011719 22.652344 27.0625 22.414062 27.113281 C 22.175781 27.160156 21.980469 27.195312 21.761719 27.234375 C 21.664062 27.253906 21.570312 27.277344 21.472656 27.300781 L 20.867188 27.449219 C 20.699219 27.488281 20.527344 27.53125 20.359375 27.578125 C 20.191406 27.621094 20.015625 27.671875 19.84375 27.722656 C 19.671875 27.777344 19.515625 27.804688 19.351562 27.851562 C 19.140625 27.914062 18.929688 27.980469 18.714844 28.046875 L 18.066406 28.238281 L 17.855469 28.300781 C 17.203125 28.484375 16.566406 28.703125 15.9375 28.960938 C 15.835938 28.996094 15.734375 29.035156 15.632812 29.074219 C 15.621094 29.078125 15.605469 29.085938 15.597656 29.09375 L 15.371094 29.1875 L 15.347656 29.1875 L 14.945312 29.355469 C 14.945312 29.351562 14.945312 29.347656 14.945312 29.347656 C 14.839844 29.386719 14.746094 29.417969 14.65625 29.457031 L 13.632812 29.914062 C 13.105469 30.144531 12.75 30.308594 12.75 30.308594 L 12.738281 30.320312 L 12.59375 30.386719 C 11.871094 30.722656 11.148438 31.097656 10.457031 31.492188 C 9.851562 31.832031 9.257812 32.179688 8.664062 32.539062 C 8.3125 32.753906 7.972656 32.980469 7.636719 33.21875 C 7.234375 33.5 6.835938 33.789062 6.445312 34.089844 C 6.089844 34.367188 5.75 34.667969 5.433594 34.996094 C 5.242188 35.195312 5.070312 35.40625 4.917969 35.636719 C 4.902344 35.664062 4.886719 35.691406 4.878906 35.722656 C 4.902344 35.722656 4.914062 35.722656 4.917969 35.722656 C 5.515625 35.332031 6.128906 34.976562 6.753906 34.640625 C 7.230469 34.386719 7.707031 34.132812 8.1875 33.890625 C 8.667969 33.648438 9.128906 33.425781 9.605469 33.195312 C 9.910156 33.050781 10.21875 32.914062 10.523438 32.765625 L 12.449219 31.90625 L 12.765625 31.757812 L 12.960938 31.6875 L 12.988281 31.675781 L 16.164062 30.480469 L 16.199219 30.46875 C 16.441406 30.386719 16.683594 30.3125 16.921875 30.238281 C 17.085938 30.1875 17.257812 30.144531 17.417969 30.089844 C 17.496094 30.054688 17.5625 30.066406 17.625 30.128906 C 17.945312 30.40625 18.269531 30.683594 18.601562 30.953125 C 18.992188 31.269531 19.390625 31.574219 19.78125 31.890625 C 20.171875 32.195312 20.53125 32.539062 20.855469 32.917969 C 21.140625 33.238281 21.371094 33.59375 21.546875 33.988281 C 21.621094 34.167969 21.683594 34.351562 21.730469 34.539062 C 21.773438 34.703125 21.777344 34.878906 21.800781 35.046875 C 21.859375 35.484375 21.804688 35.902344 21.632812 36.308594 C 21.394531 36.890625 21 37.324219 20.449219 37.617188 C 20.214844 37.746094 19.96875 37.839844 19.710938 37.902344 C 19.539062 37.945312 19.355469 37.945312 19.179688 37.984375 C 18.824219 38.058594 18.46875 38 18.121094 37.953125 C 17.871094 37.914062 17.625 37.84375 17.386719 37.75 C 16.835938 37.550781 16.394531 37.207031 16.058594 36.722656 C 15.773438 36.304688 15.578125 35.847656 15.480469 35.351562 C 15.402344 35.042969 15.359375 34.730469 15.363281 34.414062 C 15.363281 34.371094 15.355469 34.328125 15.339844 34.289062 C 15.308594 34.1875 15.242188 34.140625 15.140625 34.144531 C 15.03125 34.136719 14.960938 34.1875 14.929688 34.289062 C 14.894531 34.359375 14.871094 34.429688 14.859375 34.507812 C 14.835938 34.714844 14.8125 34.925781 14.800781 35.136719 C 14.789062 35.464844 14.765625 35.796875 14.753906 36.125 C 14.722656 36.78125 14.738281 37.4375 14.738281 38.09375 C 14.742188 38.136719 14.753906 38.175781 14.769531 38.21875 C 14.839844 38.390625 14.964844 38.503906 15.144531 38.554688 C 15.3125 38.628906 15.480469 38.703125 15.652344 38.761719 C 15.84375 38.828125 16.035156 38.886719 16.230469 38.933594 C 16.460938 38.984375 16.695312 39.023438 16.929688 39.050781 C 17.238281 39.089844 17.546875 39.128906 17.859375 39.140625 C 18.21875 39.15625 18.582031 39.140625 18.9375 39.140625 C 19.039062 39.144531 19.136719 39.140625 19.238281 39.128906 C 19.453125 39.105469 19.667969 39.074219 19.882812 39.039062 C 20.082031 39.011719 20.28125 38.96875 20.480469 38.921875 C 20.734375 38.847656 20.988281 38.757812 21.234375 38.65625 C 21.859375 38.40625 22.410156 38.042969 22.890625 37.5625 C 23.285156 37.171875 23.59375 36.71875 23.820312 36.207031 C 23.957031 35.902344 24.054688 35.585938 24.109375 35.257812 C 24.152344 35.070312 24.183594 34.882812 24.203125 34.691406 C 24.253906 34.050781 24.207031 33.414062 24.058594 32.785156 C 23.980469 32.4375 23.867188 32.101562 23.722656 31.777344 C 23.511719 31.347656 23.253906 30.949219 22.949219 30.582031 C 22.640625 30.203125 22.308594 29.851562 21.949219 29.523438 C 21.835938 29.417969 21.722656 29.300781 21.605469 29.191406 C 21.605469 29.179688 21.617188 29.167969 21.621094 29.15625 C 21.828125 29.121094 22.035156 29.078125 22.242188 29.050781 C 22.578125 29.007812 22.910156 28.972656 23.242188 28.933594 L 23.300781 28.933594 C 23.527344 28.902344 23.757812 28.867188 23.988281 28.839844 C 24.183594 28.816406 24.382812 28.800781 24.578125 28.789062 C 24.898438 28.765625 25.222656 28.746094 25.542969 28.734375 C 25.8125 28.726562 26.082031 28.734375 26.351562 28.726562 C 26.886719 28.707031 27.417969 28.757812 27.953125 28.785156 C 27.980469 28.789062 28.011719 28.789062 28.039062 28.796875 L 28.59375 28.890625 C 28.730469 28.914062 28.867188 28.921875 28.996094 28.957031 C 29.226562 29.015625 29.449219 29.085938 29.671875 29.167969 C 29.953125 29.261719 30.191406 29.417969 30.394531 29.640625 C 30.519531 29.785156 30.582031 29.953125 30.589844 30.144531 C 30.613281 30.441406 30.574219 30.726562 30.476562 31.003906 C 30.414062 31.1875 30.339844 31.367188 30.253906 31.539062 C 30.066406 31.886719 29.835938 32.207031 29.566406 32.496094 C 29.183594 32.910156 28.765625 33.289062 28.316406 33.632812 C 27.890625 33.960938 27.449219 34.257812 26.988281 34.527344 C 26.457031 34.835938 25.917969 35.125 25.382812 35.421875 L 25.253906 35.492188 C 25.28125 35.515625 25.308594 35.519531 25.335938 35.507812 L 25.933594 35.253906 C 26.394531 35.054688 26.859375 34.867188 27.3125 34.652344 C 27.863281 34.386719 28.410156 34.105469 28.949219 33.816406 C 29.578125 33.484375 30.183594 33.113281 30.761719 32.695312 C 31.027344 32.5 31.296875 32.304688 31.550781 32.089844 C 31.835938 31.859375 32.09375 31.605469 32.332031 31.324219 C 32.496094 31.117188 32.675781 30.917969 32.820312 30.695312 C 32.984375 30.464844 33.09375 30.210938 33.152344 29.929688 C 33.179688 29.765625 33.230469 29.605469 33.246094 29.441406 C 33.257812 29.21875 33.226562 29 33.152344 28.789062 Z M 33.152344 28.789062 " fill-opacity="1" fill-rule="nonzero"/></g><g fill="#000000" fill-opacity="1"><g transform="translate(34.447284, 16.754677)"><g><path d="M 0.890625 -12.265625 L 5.359375 -12.265625 C 6.609375 -12.265625 7.617188 -11.941406 8.390625 -11.296875 C 9.160156 -10.648438 9.546875 -9.710938 9.546875 -8.484375 C 9.546875 -7.253906 9.15625 -6.289062 8.375 -5.59375 C 7.59375 -4.894531 6.585938 -4.546875 5.359375 -4.546875 L 3.6875 -4.546875 L 3.6875 0 L 0.890625 0 Z M 3.6875 -6.78125 L 4.46875 -6.78125 C 5.09375 -6.78125 5.601562 -6.90625 6 -7.15625 C 6.40625 -7.40625 6.609375 -7.816406 6.609375 -8.390625 C 6.609375 -8.972656 6.40625 -9.390625 6 -9.640625 C 5.601562 -9.898438 5.09375 -10.03125 4.46875 -10.03125 L 3.6875 -10.03125 Z M 3.6875 -6.78125 "/></g></g></g><g fill="#000000" fill-opacity="1"><g transform="translate(44.344563, 16.754677)"><g><path d="M 0.890625 -12.265625 L 5.28125 -12.265625 C 6.457031 -12.265625 7.414062 -11.945312 8.15625 -11.3125 C 8.894531 -10.6875 9.265625 -9.789062 9.265625 -8.625 C 9.265625 -7.71875 9.039062 -6.957031 8.59375 -6.34375 C 8.144531 -5.738281 7.535156 -5.3125 6.765625 -5.0625 L 10.984375 0 L 7.4375 0 L 3.6875 -4.84375 L 3.6875 0 L 0.890625 0 Z M 3.6875 -6.828125 L 4.015625 -6.828125 C 4.265625 -6.828125 4.476562 -6.828125 4.65625 -6.828125 C 4.84375 -6.835938 5.046875 -6.875 5.265625 -6.9375 C 5.492188 -7 5.675781 -7.082031 5.8125 -7.1875 C 5.957031 -7.300781 6.078125 -7.460938 6.171875 -7.671875 C 6.273438 -7.878906 6.328125 -8.128906 6.328125 -8.421875 C 6.328125 -8.722656 6.273438 -8.976562 6.171875 -9.1875 C 6.078125 -9.394531 5.957031 -9.550781 5.8125 -9.65625 C 5.675781 -9.769531 5.492188 -9.851562 5.265625 -9.90625 C 5.046875 -9.96875 4.84375 -10.003906 4.65625 -10.015625 C 4.476562 -10.023438 4.265625 -10.03125 4.015625 -10.03125 L 3.6875 -10.03125 Z M 3.6875 -6.828125 "/></g></g></g><g fill="#000000" fill-opacity="1"><g transform="translate(54.984881, 16.754677)"><g><path d="M 7.90625 -12.265625 L 7.90625 -9.8125 L 3.6875 -9.8125 L 3.6875 -7.375 L 7.734375 -7.375 L 7.734375 -4.921875 L 3.6875 -4.921875 L 3.6875 -2.453125 L 7.90625 -2.453125 L 7.90625 0 L 0.890625 0 L 0.890625 -12.265625 Z M 7.90625 -12.265625 "/></g></g></g><g fill="#000000" fill-opacity="1"><g transform="translate(63.604135, 16.754677)"><g><path d="M 5.40625 -12.484375 C 6.070312 -12.484375 6.722656 -12.382812 7.359375 -12.1875 C 7.992188 -12 8.460938 -11.8125 8.765625 -11.625 L 9.21875 -11.328125 L 8.078125 -9.09375 C 7.992188 -9.15625 7.867188 -9.234375 7.703125 -9.328125 C 7.546875 -9.421875 7.25 -9.546875 6.8125 -9.703125 C 6.382812 -9.859375 5.984375 -9.9375 5.609375 -9.9375 C 5.140625 -9.9375 4.773438 -9.835938 4.515625 -9.640625 C 4.265625 -9.441406 4.140625 -9.175781 4.140625 -8.84375 C 4.140625 -8.675781 4.195312 -8.519531 4.3125 -8.375 C 4.4375 -8.226562 4.640625 -8.070312 4.921875 -7.90625 C 5.210938 -7.75 5.46875 -7.617188 5.6875 -7.515625 C 5.90625 -7.421875 6.242188 -7.273438 6.703125 -7.078125 C 7.492188 -6.734375 8.164062 -6.269531 8.71875 -5.6875 C 9.28125 -5.113281 9.5625 -4.460938 9.5625 -3.734375 C 9.5625 -3.023438 9.4375 -2.40625 9.1875 -1.875 C 8.9375 -1.351562 8.585938 -0.941406 8.140625 -0.640625 C 7.703125 -0.347656 7.21875 -0.132812 6.6875 0 C 6.15625 0.144531 5.578125 0.21875 4.953125 0.21875 C 4.410156 0.21875 3.878906 0.160156 3.359375 0.046875 C 2.847656 -0.0546875 2.421875 -0.1875 2.078125 -0.34375 C 1.734375 -0.507812 1.421875 -0.671875 1.140625 -0.828125 C 0.867188 -0.984375 0.664062 -1.117188 0.53125 -1.234375 L 0.34375 -1.390625 L 1.734375 -3.75 C 1.859375 -3.644531 2.023438 -3.515625 2.234375 -3.359375 C 2.441406 -3.210938 2.804688 -3.007812 3.328125 -2.75 C 3.859375 -2.488281 4.328125 -2.359375 4.734375 -2.359375 C 5.921875 -2.359375 6.515625 -2.757812 6.515625 -3.5625 C 6.515625 -3.726562 6.46875 -3.882812 6.375 -4.03125 C 6.289062 -4.175781 6.140625 -4.320312 5.921875 -4.46875 C 5.710938 -4.613281 5.523438 -4.726562 5.359375 -4.8125 C 5.203125 -4.894531 4.9375 -5.019531 4.5625 -5.1875 C 4.195312 -5.363281 3.925781 -5.5 3.75 -5.59375 C 3 -5.957031 2.421875 -6.410156 2.015625 -6.953125 C 1.609375 -7.503906 1.40625 -8.097656 1.40625 -8.734375 C 1.40625 -9.835938 1.8125 -10.738281 2.625 -11.4375 C 3.4375 -12.132812 4.363281 -12.484375 5.40625 -12.484375 Z M 5.40625 -12.484375 "/></g></g></g><g fill="#000000" fill-opacity="1"><g transform="translate(73.590583, 16.754677)"><g><path d="M 7.90625 -12.265625 L 7.90625 -9.8125 L 3.6875 -9.8125 L 3.6875 -7.375 L 7.734375 -7.375 L 7.734375 -4.921875 L 3.6875 -4.921875 L 3.6875 -2.453125 L 7.90625 -2.453125 L 7.90625 0 L 0.890625 0 L 0.890625 -12.265625 Z M 7.90625 -12.265625 "/></g></g></g><g fill="#000000" fill-opacity="1"><g transform="translate(82.209837, 16.754677)"><g><path d="M 7.125 -12.265625 L 12.0625 0 L 9.0625 0 L 8.15625 -2.453125 L 3.484375 -2.453125 L 2.578125 0 L -0.421875 0 L 4.53125 -12.265625 Z M 7.203125 -4.90625 L 5.84375 -8.46875 L 5.8125 -8.46875 L 4.4375 -4.90625 Z M 7.203125 -4.90625 "/></g></g></g><g fill="#000000" fill-opacity="1"><g transform="translate(93.86069, 16.754677)"><g><path d="M 0.890625 -12.265625 L 5.28125 -12.265625 C 6.457031 -12.265625 7.414062 -11.945312 8.15625 -11.3125 C 8.894531 -10.6875 9.265625 -9.789062 9.265625 -8.625 C 9.265625 -7.71875 9.039062 -6.957031 8.59375 -6.34375 C 8.144531 -5.738281 7.535156 -5.3125 6.765625 -5.0625 L 10.984375 0 L 7.4375 0 L 3.6875 -4.84375 L 3.6875 0 L 0.890625 0 Z M 3.6875 -6.828125 L 4.015625 -6.828125 C 4.265625 -6.828125 4.476562 -6.828125 4.65625 -6.828125 C 4.84375 -6.835938 5.046875 -6.875 5.265625 -6.9375 C 5.492188 -7 5.675781 -7.082031 5.8125 -7.1875 C 5.957031 -7.300781 6.078125 -7.460938 6.171875 -7.671875 C 6.273438 -7.878906 6.328125 -8.128906 6.328125 -8.421875 C 6.328125 -8.722656 6.273438 -8.976562 6.171875 -9.1875 C 6.078125 -9.394531 5.957031 -9.550781 5.8125 -9.65625 C 5.675781 -9.769531 5.492188 -9.851562 5.265625 -9.90625 C 5.046875 -9.96875 4.84375 -10.003906 4.65625 -10.015625 C 4.476562 -10.023438 4.265625 -10.03125 4.015625 -10.03125 L 3.6875 -10.03125 Z M 3.6875 -6.828125 "/></g></g></g><g fill="#000000" fill-opacity="1"><g transform="translate(104.499894, 16.754677)"><g/></g></g><g fill="#000000" fill-opacity="1"><g transform="translate(34.447284, 35.693276)"><g><path d="M 5.40625 -12.484375 C 6.070312 -12.484375 6.722656 -12.382812 7.359375 -12.1875 C 7.992188 -12 8.460938 -11.8125 8.765625 -11.625 L 9.21875 -11.328125 L 8.078125 -9.09375 C 7.992188 -9.15625 7.867188 -9.234375 7.703125 -9.328125 C 7.546875 -9.421875 7.25 -9.546875 6.8125 -9.703125 C 6.382812 -9.859375 5.984375 -9.9375 5.609375 -9.9375 C 5.140625 -9.9375 4.773438 -9.835938 4.515625 -9.640625 C 4.265625 -9.441406 4.140625 -9.175781 4.140625 -8.84375 C 4.140625 -8.675781 4.195312 -8.519531 4.3125 -8.375 C 4.4375 -8.226562 4.640625 -8.070312 4.921875 -7.90625 C 5.210938 -7.75 5.46875 -7.617188 5.6875 -7.515625 C 5.90625 -7.421875 6.242188 -7.273438 6.703125 -7.078125 C 7.492188 -6.734375 8.164062 -6.269531 8.71875 -5.6875 C 9.28125 -5.113281 9.5625 -4.460938 9.5625 -3.734375 C 9.5625 -3.023438 9.4375 -2.40625 9.1875 -1.875 C 8.9375 -1.351562 8.585938 -0.941406 8.140625 -0.640625 C 7.703125 -0.347656 7.21875 -0.132812 6.6875 0 C 6.15625 0.144531 5.578125 0.21875 4.953125 0.21875 C 4.410156 0.21875 3.878906 0.160156 3.359375 0.046875 C 2.847656 -0.0546875 2.421875 -0.1875 2.078125 -0.34375 C 1.734375 -0.507812 1.421875 -0.671875 1.140625 -0.828125 C 0.867188 -0.984375 0.664062 -1.117188 0.53125 -1.234375 L 0.34375 -1.390625 L 1.734375 -3.75 C 1.859375 -3.644531 2.023438 -3.515625 2.234375 -3.359375 C 2.441406 -3.210938 2.804688 -3.007812 3.328125 -2.75 C 3.859375 -2.488281 4.328125 -2.359375 4.734375 -2.359375 C 5.921875 -2.359375 6.515625 -2.757812 6.515625 -3.5625 C 6.515625 -3.726562 6.46875 -3.882812 6.375 -4.03125 C 6.289062 -4.175781 6.140625 -4.320312 5.921875 -4.46875 C 5.710938 -4.613281 5.523438 -4.726562 5.359375 -4.8125 C 5.203125 -4.894531 4.9375 -5.019531 4.5625 -5.1875 C 4.195312 -5.363281 3.925781 -5.5 3.75 -5.59375 C 3 -5.957031 2.421875 -6.410156 2.015625 -6.953125 C 1.609375 -7.503906 1.40625 -8.097656 1.40625 -8.734375 C 1.40625 -9.835938 1.8125 -10.738281 2.625 -11.4375 C 3.4375 -12.132812 4.363281 -12.484375 5.40625 -12.484375 Z M 5.40625 -12.484375 "/></g></g></g><g fill="#000000" fill-opacity="1"><g transform="translate(44.433731, 35.693276)"><g><path d="M 0.34375 -6.140625 C 0.34375 -7.910156 0.945312 -9.410156 2.15625 -10.640625 C 3.363281 -11.867188 4.816406 -12.484375 6.515625 -12.484375 C 8.234375 -12.484375 9.691406 -11.867188 10.890625 -10.640625 C 12.085938 -9.421875 12.6875 -7.921875 12.6875 -6.140625 C 12.6875 -4.347656 12.097656 -2.835938 10.921875 -1.609375 C 9.742188 -0.390625 8.273438 0.21875 6.515625 0.21875 C 4.722656 0.21875 3.242188 -0.382812 2.078125 -1.59375 C 0.921875 -2.8125 0.34375 -4.328125 0.34375 -6.140625 Z M 3.359375 -6.140625 C 3.359375 -5.492188 3.457031 -4.90625 3.65625 -4.375 C 3.851562 -3.84375 4.195312 -3.394531 4.6875 -3.03125 C 5.1875 -2.664062 5.796875 -2.484375 6.515625 -2.484375 C 7.554688 -2.484375 8.34375 -2.835938 8.875 -3.546875 C 9.40625 -4.265625 9.671875 -5.128906 9.671875 -6.140625 C 9.671875 -7.140625 9.398438 -8 8.859375 -8.71875 C 8.316406 -9.4375 7.535156 -9.796875 6.515625 -9.796875 C 5.503906 -9.796875 4.722656 -9.4375 4.171875 -8.71875 C 3.628906 -8 3.359375 -7.140625 3.359375 -6.140625 Z M 3.359375 -6.140625 "/></g></g></g><g fill="#000000" fill-opacity="1"><g transform="translate(57.466635, 35.693276)"><g><path d="M 7.984375 -12.265625 L 7.984375 -9.8125 L 3.6875 -9.8125 L 3.6875 -7.375 L 7.65625 -7.375 L 7.65625 -4.921875 L 3.6875 -4.921875 L 3.6875 0 L 0.890625 0 L 0.890625 -12.265625 Z M 7.984375 -12.265625 "/></g></g></g><g fill="#000000" fill-opacity="1"><g transform="translate(65.892696, 35.693276)"><g><path d="M 0.125 -9.8125 L 0.125 -12.265625 L 8.734375 -12.265625 L 8.734375 -9.8125 L 5.828125 -9.8125 L 5.828125 0 L 3.03125 0 L 3.03125 -9.8125 Z M 0.125 -9.8125 "/></g></g></g><g fill="#000000" fill-opacity="1"><g transform="translate(74.749717, 35.693276)"><g><path d="M 10.296875 0 L 8.34375 -6.875 L 6.375 0 L 3.265625 0 L -0.21875 -12.265625 L 2.875 -12.265625 L 4.984375 -3.84375 L 5.046875 -3.84375 L 7.28125 -12.265625 L 9.390625 -12.265625 L 11.625 -3.84375 L 11.6875 -3.84375 L 13.796875 -12.265625 L 16.875 -12.265625 L 13.390625 0 Z M 10.296875 0 "/></g></g></g><g fill="#000000" fill-opacity="1"><g transform="translate(91.408651, 35.693276)"><g><path d="M 7.125 -12.265625 L 12.0625 0 L 9.0625 0 L 8.15625 -2.453125 L 3.484375 -2.453125 L 2.578125 0 L -0.421875 0 L 4.53125 -12.265625 Z M 7.203125 -4.90625 L 5.84375 -8.46875 L 5.8125 -8.46875 L 4.4375 -4.90625 Z M 7.203125 -4.90625 "/></g></g></g><g fill="#000000" fill-opacity="1"><g transform="translate(103.059504, 35.693276)"><g><path d="M 0.890625 -12.265625 L 5.28125 -12.265625 C 6.457031 -12.265625 7.414062 -11.945312 8.15625 -11.3125 C 8.894531 -10.6875 9.265625 -9.789062 9.265625 -8.625 C 9.265625 -7.71875 9.039062 -6.957031 8.59375 -6.34375 C 8.144531 -5.738281 7.535156 -5.3125 6.765625 -5.0625 L 10.984375 0 L 7.4375 0 L 3.6875 -4.84375 L 3.6875 0 L 0.890625 0 Z M 3.6875 -6.828125 L 4.015625 -6.828125 C 4.265625 -6.828125 4.476562 -6.828125 4.65625 -6.828125 C 4.84375 -6.835938 5.046875 -6.875 5.265625 -6.9375 C 5.492188 -7 5.675781 -7.082031 5.8125 -7.1875 C 5.957031 -7.300781 6.078125 -7.460938 6.171875 -7.671875 C 6.273438 -7.878906 6.328125 -8.128906 6.328125 -8.421875 C 6.328125 -8.722656 6.273438 -8.976562 6.171875 -9.1875 C 6.078125 -9.394531 5.957031 -9.550781 5.8125 -9.65625 C 5.675781 -9.769531 5.492188 -9.851562 5.265625 -9.90625 C 5.046875 -9.96875 4.84375 -10.003906 4.65625 -10.015625 C 4.476562 -10.023438 4.265625 -10.03125 4.015625 -10.03125 L 3.6875 -10.03125 Z M 3.6875 -6.828125 "/></g></g></g><g fill="#000000" fill-opacity="1"><g transform="translate(113.699822, 35.693276)"><g><path d="M 7.90625 -12.265625 L 7.90625 -9.8125 L 3.6875 -9.8125 L 3.6875 -7.375 L 7.734375 -7.375 L 7.734375 -4.921875 L 3.6875 -4.921875 L 3.6875 -2.453125 L 7.90625 -2.453125 L 7.90625 0 L 0.890625 0 L 0.890625 -12.265625 Z M 7.90625 -12.265625 "/></g></g></g><g fill="#000000" fill-opacity="1"><g transform="translate(122.319076, 35.693276)"><g><path d="M 5.40625 -12.484375 C 6.070312 -12.484375 6.722656 -12.382812 7.359375 -12.1875 C 7.992188 -12 8.460938 -11.8125 8.765625 -11.625 L 9.21875 -11.328125 L 8.078125 -9.09375 C 7.992188 -9.15625 7.867188 -9.234375 7.703125 -9.328125 C 7.546875 -9.421875 7.25 -9.546875 6.8125 -9.703125 C 6.382812 -9.859375 5.984375 -9.9375 5.609375 -9.9375 C 5.140625 -9.9375 4.773438 -9.835938 4.515625 -9.640625 C 4.265625 -9.441406 4.140625 -9.175781 4.140625 -8.84375 C 4.140625 -8.675781 4.195312 -8.519531 4.3125 -8.375 C 4.4375 -8.226562 4.640625 -8.070312 4.921875 -7.90625 C 5.210938 -7.75 5.46875 -7.617188 5.6875 -7.515625 C 5.90625 -7.421875 6.242188 -7.273438 6.703125 -7.078125 C 7.492188 -6.734375 8.164062 -6.269531 8.71875 -5.6875 C 9.28125 -5.113281 9.5625 -4.460938 9.5625 -3.734375 C 9.5625 -3.023438 9.4375 -2.40625 9.1875 -1.875 C 8.9375 -1.351562 8.585938 -0.941406 8.140625 -0.640625 C 7.703125 -0.347656 7.21875 -0.132812 6.6875 0 C 6.15625 0.144531 5.578125 0.21875 4.953125 0.21875 C 4.410156 0.21875 3.878906 0.160156 3.359375 0.046875 C 2.847656 -0.0546875 2.421875 -0.1875 2.078125 -0.34375 C 1.734375 -0.507812 1.421875 -0.671875 1.140625 -0.828125 C 0.867188 -0.984375 0.664062 -1.117188 0.53125 -1.234375 L 0.34375 -1.390625 L 1.734375 -3.75 C 1.859375 -3.644531 2.023438 -3.515625 2.234375 -3.359375 C 2.441406 -3.210938 2.804688 -3.007812 3.328125 -2.75 C 3.859375 -2.488281 4.328125 -2.359375 4.734375 -2.359375 C 5.921875 -2.359375 6.515625 -2.757812 6.515625 -3.5625 C 6.515625 -3.726562 6.46875 -3.882812 6.375 -4.03125 C 6.289062 -4.175781 6.140625 -4.320312 5.921875 -4.46875 C 5.710938 -4.613281 5.523438 -4.726562 5.359375 -4.8125 C 5.203125 -4.894531 4.9375 -5.019531 4.5625 -5.1875 C 4.195312 -5.363281 3.925781 -5.5 3.75 -5.59375 C 3 -5.957031 2.421875 -6.410156 2.015625 -6.953125 C 1.609375 -7.503906 1.40625 -8.097656 1.40625 -8.734375 C 1.40625 -9.835938 1.8125 -10.738281 2.625 -11.4375 C 3.4375 -12.132812 4.363281 -12.484375 5.40625 -12.484375 Z M 5.40625 -12.484375 "/></g></g></g></svg>