<svg xmlns="http://www.w3.org/2000/svg" xmlns:xlink="http://www.w3.org/1999/xlink" width="50" zoomAndPan="magnify" viewBox="0 0 37.5 37.499999" height="50" preserveAspectRatio="xMidYMid meet" version="1.0"><defs><clipPath id="00f6b95301"><path d="M 5 0 L 33 0 L 33 37.007812 L 5 37.007812 Z M 5 0 " clip-rule="nonzero"/></clipPath><clipPath id="1b2b146e16"><path d="M 1 36 L 3 36 L 3 37.007812 L 1 37.007812 Z M 1 36 " clip-rule="nonzero"/></clipPath><clipPath id="3f4678cfce"><path d="M 36 1 L 37.007812 1 L 37.007812 3 L 36 3 Z M 36 1 " clip-rule="nonzero"/></clipPath></defs><path fill="#dbe6fd" d="M 31.96875 12.707031 C 31.96875 15.925781 30.667969 20.328125 28.535156 24.09375 C 27.25 26.363281 24.449219 29.273438 24.449219 31.875 L 18.8125 31.875 L 18.8125 0.625 C 26.078125 0.625 31.96875 5.859375 31.96875 12.707031 Z M 31.96875 12.707031 " fill-opacity="1" fill-rule="nonzero"/><path fill="#17afdc" d="M 18.8125 11.25 L 24.449219 11.25 L 24.449219 18.75 L 18.8125 18.75 Z M 18.8125 11.25 " fill-opacity="1" fill-rule="nonzero"/><path fill="#fccc38" d="M 5.65625 12.707031 C 5.65625 15.925781 6.957031 20.328125 9.089844 24.09375 C 10.371094 26.363281 13.171875 29.273438 13.171875 31.875 L 18.8125 31.875 L 18.8125 0.625 C 11.546875 0.625 5.65625 5.859375 5.65625 12.707031 Z M 5.65625 12.707031 " fill-opacity="1" fill-rule="nonzero"/><path fill="#5358a1" d="M 23.976562 34.375 L 13.648438 34.375 C 12.953125 34.375 12.394531 33.816406 12.394531 33.125 L 12.394531 33.082031 C 12.394531 32.390625 12.953125 31.917969 13.648438 31.917969 L 23.976562 31.917969 C 24.667969 31.917969 25.230469 32.390625 25.230469 33.082031 L 25.230469 33.125 C 25.230469 33.816406 24.667969 34.375 23.976562 34.375 Z M 23.976562 34.375 " fill-opacity="1" fill-rule="nonzero"/><path fill="#5358a1" d="M 24.136719 36.917969 L 13.484375 36.917969 C 12.792969 36.917969 12.234375 36.359375 12.234375 35.667969 L 12.234375 35.625 C 12.234375 34.933594 12.792969 34.375 13.484375 34.375 L 24.136719 34.375 C 24.828125 34.375 25.390625 34.933594 25.390625 35.625 L 25.390625 35.667969 C 25.390625 36.359375 24.828125 36.917969 24.136719 36.917969 Z M 24.136719 36.917969 " fill-opacity="1" fill-rule="nonzero"/><path fill="#f4393d" d="M 17.742188 6.320312 L 17.46875 7.625 C 17.058594 7.699219 16.660156 7.808594 16.277344 7.945312 L 15.378906 6.945312 C 14.71875 7.226562 14.105469 7.59375 13.539062 8.019531 L 13.953125 9.28125 C 13.640625 9.546875 13.347656 9.839844 13.078125 10.152344 L 11.816406 9.738281 C 11.386719 10.304688 11.019531 10.914062 10.738281 11.574219 L 11.742188 12.46875 C 11.605469 12.851562 11.496094 13.25 11.421875 13.660156 L 10.113281 13.933594 C 10.070312 14.285156 10.039062 14.640625 10.039062 15 C 10.039062 15.359375 10.070312 15.714844 10.113281 16.066406 L 11.417969 16.339844 C 11.492188 16.75 11.601562 17.144531 11.742188 17.53125 L 10.738281 18.425781 C 11.019531 19.082031 11.386719 19.695312 11.8125 20.261719 L 13.078125 19.84375 C 13.347656 20.160156 13.636719 20.453125 13.953125 20.71875 L 13.539062 21.980469 C 14.101562 22.40625 14.714844 22.773438 15.378906 23.050781 L 16.273438 22.050781 C 16.660156 22.191406 17.058594 22.300781 17.46875 22.375 L 17.742188 23.679688 C 18.09375 23.722656 18.449219 23.75 18.8125 23.75 L 18.8125 6.25 C 18.449219 6.25 18.09375 6.277344 17.742188 6.320312 Z M 17.742188 6.320312 " fill-opacity="1" fill-rule="nonzero"/><path fill="#f7edd3" d="M 18.8125 20 C 16.042969 20 13.800781 17.761719 13.800781 15 C 13.800781 12.238281 16.042969 10 18.8125 10 " fill-opacity="1" fill-rule="nonzero"/><path fill="#fccc38" d="M 23.824219 5.625 C 23.824219 5.789062 23.792969 5.949219 23.730469 6.101562 C 23.664062 6.257812 23.574219 6.390625 23.457031 6.507812 C 23.339844 6.625 23.203125 6.714844 23.050781 6.78125 C 22.898438 6.84375 22.738281 6.875 22.570312 6.875 C 22.40625 6.875 22.246094 6.84375 22.089844 6.78125 C 21.9375 6.714844 21.800781 6.625 21.683594 6.507812 C 21.566406 6.390625 21.476562 6.257812 21.414062 6.101562 C 21.351562 5.949219 21.316406 5.789062 21.316406 5.625 C 21.316406 5.460938 21.351562 5.300781 21.414062 5.148438 C 21.476562 4.992188 21.566406 4.859375 21.683594 4.742188 C 21.800781 4.625 21.9375 4.535156 22.089844 4.46875 C 22.246094 4.40625 22.40625 4.375 22.570312 4.375 C 22.738281 4.375 22.898438 4.40625 23.050781 4.46875 C 23.203125 4.535156 23.339844 4.625 23.457031 4.742188 C 23.574219 4.859375 23.664062 4.992188 23.730469 5.148438 C 23.792969 5.300781 23.824219 5.460938 23.824219 5.625 Z M 23.824219 5.625 " fill-opacity="1" fill-rule="nonzero"/><path fill="#fccc38" d="M 28.835938 8.75 C 28.835938 8.914062 28.804688 9.074219 28.742188 9.226562 C 28.675781 9.382812 28.585938 9.515625 28.46875 9.632812 C 28.351562 9.75 28.214844 9.839844 28.0625 9.90625 C 27.910156 9.96875 27.75 10 27.582031 10 C 27.417969 10 27.257812 9.96875 27.105469 9.90625 C 26.949219 9.839844 26.816406 9.75 26.695312 9.632812 C 26.578125 9.515625 26.488281 9.382812 26.425781 9.226562 C 26.363281 9.074219 26.332031 8.914062 26.332031 8.75 C 26.332031 8.585938 26.363281 8.425781 26.425781 8.273438 C 26.488281 8.117188 26.578125 7.984375 26.695312 7.867188 C 26.816406 7.75 26.949219 7.660156 27.105469 7.59375 C 27.257812 7.53125 27.417969 7.5 27.582031 7.5 C 27.75 7.5 27.910156 7.53125 28.0625 7.59375 C 28.214844 7.660156 28.351562 7.75 28.46875 7.867188 C 28.585938 7.984375 28.675781 8.117188 28.742188 8.273438 C 28.804688 8.425781 28.835938 8.585938 28.835938 8.75 Z M 28.835938 8.75 " fill-opacity="1" fill-rule="nonzero"/><path fill="#fccc38" d="M 31.96875 16.875 C 31.96875 17.039062 31.9375 17.199219 31.875 17.351562 C 31.808594 17.507812 31.71875 17.640625 31.601562 17.757812 C 31.484375 17.875 31.347656 17.964844 31.195312 18.03125 C 31.042969 18.09375 30.882812 18.125 30.714844 18.125 C 30.550781 18.125 30.390625 18.09375 30.238281 18.03125 C 30.082031 17.964844 29.949219 17.875 29.828125 17.757812 C 29.710938 17.640625 29.621094 17.507812 29.558594 17.351562 C 29.496094 17.199219 29.460938 17.039062 29.460938 16.875 C 29.460938 16.710938 29.496094 16.550781 29.558594 16.398438 C 29.621094 16.242188 29.710938 16.109375 29.828125 15.992188 C 29.949219 15.875 30.082031 15.785156 30.238281 15.71875 C 30.390625 15.65625 30.550781 15.625 30.714844 15.625 C 30.882812 15.625 31.042969 15.65625 31.195312 15.71875 C 31.347656 15.785156 31.484375 15.875 31.601562 15.992188 C 31.71875 16.109375 31.808594 16.242188 31.875 16.398438 C 31.9375 16.550781 31.96875 16.710938 31.96875 16.875 Z M 31.96875 16.875 " fill-opacity="1" fill-rule="nonzero"/><path fill="#fccc38" d="M 25.078125 24.375 C 25.078125 24.539062 25.046875 24.699219 24.980469 24.851562 C 24.917969 25.007812 24.828125 25.140625 24.710938 25.257812 C 24.59375 25.375 24.457031 25.464844 24.304688 25.53125 C 24.148438 25.59375 23.988281 25.625 23.824219 25.625 C 23.65625 25.625 23.496094 25.59375 23.34375 25.53125 C 23.191406 25.464844 23.054688 25.375 22.9375 25.257812 C 22.820312 25.140625 22.730469 25.007812 22.667969 24.851562 C 22.601562 24.699219 22.570312 24.539062 22.570312 24.375 C 22.570312 24.210938 22.601562 24.050781 22.667969 23.898438 C 22.730469 23.742188 22.820312 23.609375 22.9375 23.492188 C 23.054688 23.375 23.191406 23.285156 23.34375 23.21875 C 23.496094 23.15625 23.65625 23.125 23.824219 23.125 C 23.988281 23.125 24.148438 23.15625 24.304688 23.21875 C 24.457031 23.285156 24.59375 23.375 24.710938 23.492188 C 24.828125 23.609375 24.917969 23.742188 24.980469 23.898438 C 25.046875 24.050781 25.078125 24.210938 25.078125 24.375 Z M 25.078125 24.375 " fill-opacity="1" fill-rule="nonzero"/><path fill="#000000" d="M 25.433594 30.273438 L 24.269531 29.8125 C 24.421875 29.425781 24.613281 29.023438 24.855469 28.59375 L 25.949219 29.195312 C 25.738281 29.582031 25.566406 29.933594 25.433594 30.273438 Z M 25.433594 30.273438 " fill-opacity="1" fill-rule="nonzero"/><path fill="#000000" d="M 26.589844 28.140625 L 25.535156 27.464844 C 25.769531 27.101562 26.015625 26.742188 26.261719 26.390625 L 27.292969 27.105469 C 27.054688 27.445312 26.816406 27.792969 26.589844 28.140625 Z M 26.589844 28.140625 " fill-opacity="1" fill-rule="nonzero"/><path fill="#000000" d="M 28.023438 26.058594 L 26.996094 25.34375 C 27.242188 24.992188 27.476562 24.644531 27.6875 24.308594 L 28.75 24.976562 C 28.527344 25.324219 28.28125 25.6875 28.023438 26.058594 Z M 28.023438 26.058594 " fill-opacity="1" fill-rule="nonzero"/><path fill="#000000" d="M 29.40625 23.832031 L 28.300781 23.242188 C 28.496094 22.878906 28.683594 22.507812 28.863281 22.132812 L 29.996094 22.671875 C 29.808594 23.0625 29.609375 23.449219 29.40625 23.832031 Z M 29.40625 23.832031 " fill-opacity="1" fill-rule="nonzero"/><path fill="#000000" d="M 30.53125 21.484375 L 29.378906 20.996094 C 29.542969 20.613281 29.695312 20.226562 29.84375 19.839844 L 31.015625 20.277344 C 30.863281 20.679688 30.703125 21.082031 30.53125 21.484375 Z M 30.53125 21.484375 " fill-opacity="1" fill-rule="nonzero"/><path fill="#000000" d="M 32.542969 13.933594 L 31.292969 13.828125 C 31.324219 13.449219 31.34375 13.078125 31.34375 12.730469 L 31.34375 12.613281 L 32.59375 12.605469 L 32.59375 12.730469 C 32.59375 13.113281 32.578125 13.519531 32.542969 13.933594 Z M 32.542969 13.933594 " fill-opacity="1" fill-rule="nonzero"/><path fill="#000000" d="M 31.265625 11.414062 C 31.214844 11.015625 31.144531 10.617188 31.054688 10.230469 L 32.273438 9.945312 C 32.375 10.378906 32.457031 10.824219 32.507812 11.265625 Z M 31.265625 11.414062 " fill-opacity="1" fill-rule="nonzero"/><path fill="#000000" d="M 30.714844 9.074219 C 30.582031 8.699219 30.425781 8.328125 30.25 7.964844 L 31.375 7.417969 C 31.570312 7.820312 31.746094 8.238281 31.894531 8.65625 Z M 30.714844 9.074219 " fill-opacity="1" fill-rule="nonzero"/><path fill="#000000" d="M 29.660156 6.917969 C 29.445312 6.578125 29.210938 6.25 28.960938 5.933594 L 29.941406 5.15625 C 30.21875 5.507812 30.480469 5.875 30.71875 6.25 Z M 29.660156 6.917969 " fill-opacity="1" fill-rule="nonzero"/><path fill="#000000" d="M 28.160156 5.03125 C 27.875 4.742188 27.574219 4.46875 27.265625 4.210938 L 28.0625 3.25 C 28.40625 3.53125 28.738281 3.835938 29.050781 4.152344 Z M 28.160156 5.03125 " fill-opacity="1" fill-rule="nonzero"/><path fill="#000000" d="M 26.292969 3.484375 C 25.960938 3.261719 25.609375 3.050781 25.25 2.859375 L 25.847656 1.757812 C 26.242188 1.972656 26.625 2.203125 26.992188 2.449219 Z M 26.292969 3.484375 " fill-opacity="1" fill-rule="nonzero"/><path fill="#000000" d="M 24.152344 2.332031 C 23.785156 2.179688 23.402344 2.035156 23.011719 1.914062 L 23.390625 0.722656 C 23.820312 0.859375 24.238281 1.011719 24.644531 1.183594 Z M 24.152344 2.332031 " fill-opacity="1" fill-rule="nonzero"/><path fill="#000000" d="M 21.832031 1.597656 C 21.441406 1.511719 21.035156 1.441406 20.632812 1.390625 L 20.792969 0.148438 C 21.234375 0.207031 21.675781 0.28125 22.105469 0.378906 Z M 21.832031 1.597656 " fill-opacity="1" fill-rule="nonzero"/><g clip-path="url(#00f6b95301)"><path fill="#000000" d="M 30.714844 15 C 29.898438 15 29.210938 15.523438 28.953125 16.25 L 25.078125 16.25 L 25.078125 13.75 L 27.582031 13.75 C 27.929688 13.75 28.210938 13.46875 28.210938 13.125 L 28.210938 10.511719 C 28.9375 10.25 29.460938 9.5625 29.460938 8.75 C 29.460938 7.714844 28.621094 6.875 27.582031 6.875 C 26.546875 6.875 25.703125 7.714844 25.703125 8.75 C 25.703125 9.5625 26.230469 10.25 26.957031 10.511719 L 26.957031 12.5 L 25.078125 12.5 L 25.078125 11.25 C 25.078125 10.90625 24.796875 10.625 24.449219 10.625 L 23.199219 10.625 L 23.199219 7.386719 C 23.925781 7.125 24.449219 6.4375 24.449219 5.625 C 24.449219 4.589844 23.605469 3.75 22.570312 3.75 C 21.535156 3.75 20.691406 4.589844 20.691406 5.625 C 20.691406 6.4375 21.21875 7.125 21.945312 7.386719 L 21.945312 10.625 L 19.4375 10.625 L 19.4375 0.648438 C 19.4375 0.300781 19.15625 0.0234375 18.8125 0.0234375 C 11.082031 0.0234375 5.027344 5.605469 5.027344 12.730469 C 5.027344 16.113281 6.375 20.597656 8.542969 24.425781 C 8.933594 25.113281 9.441406 25.835938 9.980469 26.601562 C 11.117188 28.21875 12.382812 30.035156 12.519531 31.621094 C 12.058594 31.941406 11.765625 32.46875 11.765625 33.101562 C 11.765625 33.542969 11.925781 33.941406 12.183594 34.265625 C 11.828125 34.609375 11.605469 35.097656 11.605469 35.648438 C 11.605469 36.679688 12.449219 37.523438 13.484375 37.523438 L 24.136719 37.523438 C 25.171875 37.523438 26.015625 36.679688 26.015625 35.605469 C 26.015625 35.074219 25.792969 34.597656 25.441406 34.257812 C 25.695312 33.929688 25.855469 33.519531 25.855469 33.058594 C 25.855469 32.042969 25.046875 31.273438 23.976562 31.273438 L 19.4375 31.273438 L 19.4375 19.375 L 20.691406 19.375 L 20.691406 21.25 C 20.691406 21.59375 20.972656 21.875 21.316406 21.875 L 23.199219 21.875 L 23.199219 22.613281 C 22.46875 22.875 21.945312 23.5625 21.945312 24.375 C 21.945312 25.410156 22.789062 26.25 23.824219 26.25 C 24.859375 26.25 25.703125 25.410156 25.703125 24.375 C 25.703125 23.5625 25.179688 22.875 24.449219 22.613281 L 24.449219 21.25 C 24.449219 20.90625 24.167969 20.625 23.824219 20.625 L 21.945312 20.625 L 21.945312 19.375 L 24.449219 19.375 C 24.796875 19.375 25.078125 19.09375 25.078125 18.75 L 25.078125 17.5 L 28.953125 17.5 C 29.210938 18.226562 29.898438 18.75 30.714844 18.75 C 31.753906 18.75 32.59375 17.910156 32.59375 16.875 C 32.59375 15.839844 31.753906 15 30.714844 15 Z M 27.582031 8.125 C 27.929688 8.125 28.210938 8.40625 28.210938 8.75 C 28.210938 9.09375 27.929688 9.375 27.582031 9.375 C 27.238281 9.375 26.957031 9.09375 26.957031 8.75 C 26.957031 8.40625 27.238281 8.125 27.582031 8.125 Z M 11.003906 25.882812 C 10.484375 25.144531 9.992188 24.445312 9.632812 23.8125 C 7.597656 20.214844 6.28125 15.863281 6.28125 12.730469 C 6.28125 6.496094 11.460938 1.574219 18.183594 1.285156 L 18.183594 5.652344 C 18.019531 5.664062 17.847656 5.679688 17.667969 5.699219 C 17.402344 5.734375 17.183594 5.929688 17.128906 6.191406 L 16.941406 7.097656 C 16.78125 7.136719 16.625 7.175781 16.46875 7.222656 L 15.84375 6.53125 C 15.664062 6.328125 15.378906 6.265625 15.132812 6.371094 C 14.453125 6.660156 13.789062 7.046875 13.160156 7.519531 C 12.945312 7.679688 12.859375 7.960938 12.941406 8.214844 L 13.230469 9.085938 C 13.113281 9.199219 12.996094 9.3125 12.886719 9.429688 L 12.011719 9.144531 C 11.757812 9.0625 11.476562 9.148438 11.316406 9.363281 C 10.839844 9.992188 10.453125 10.652344 10.164062 11.328125 C 10.058594 11.574219 10.121094 11.859375 10.320312 12.039062 L 11.019531 12.660156 C 10.972656 12.816406 10.929688 12.972656 10.890625 13.125 L 9.917969 13.320312 C 9.625 13.378906 9.414062 13.636719 9.414062 13.933594 L 9.414062 16.066406 C 9.414062 16.363281 9.625 16.621094 9.917969 16.679688 L 10.890625 16.871094 C 10.929688 17.027344 10.96875 17.183594 11.019531 17.335938 L 10.320312 17.960938 C 10.121094 18.136719 10.058594 18.421875 10.164062 18.671875 C 10.449219 19.347656 10.839844 20.007812 11.3125 20.636719 C 11.476562 20.851562 11.757812 20.9375 12.007812 20.855469 L 12.882812 20.566406 C 12.996094 20.683594 13.113281 20.800781 13.230469 20.910156 L 12.941406 21.785156 C 12.859375 22.039062 12.945312 22.316406 13.160156 22.476562 C 13.789062 22.953125 14.453125 23.339844 15.132812 23.628906 C 15.378906 23.730469 15.664062 23.667969 15.84375 23.46875 L 16.46875 22.773438 C 16.625 22.820312 16.78125 22.863281 16.941406 22.902344 L 17.128906 23.804688 C 17.183594 24.066406 17.402344 24.265625 17.667969 24.296875 C 17.847656 24.320312 18.019531 24.335938 18.183594 24.347656 L 18.183594 31.269531 L 13.746094 31.269531 C 13.488281 29.429688 12.183594 27.554688 11.003906 25.882812 Z M 13.171875 15 C 13.171875 17.890625 15.371094 20.277344 18.183594 20.589844 L 18.183594 22.738281 L 18.082031 22.246094 C 18.027344 21.996094 17.832031 21.804688 17.578125 21.757812 C 17.214844 21.695312 16.847656 21.59375 16.488281 21.464844 C 16.417969 21.441406 16.347656 21.429688 16.277344 21.429688 C 16.101562 21.429688 15.929688 21.5 15.808594 21.636719 L 15.21875 22.292969 C 14.902344 22.132812 14.585938 21.949219 14.277344 21.738281 L 14.550781 20.914062 C 14.628906 20.671875 14.554688 20.40625 14.359375 20.242188 C 14.070312 20 13.800781 19.730469 13.558594 19.441406 C 13.390625 19.25 13.125 19.175781 12.882812 19.253906 L 12.054688 19.523438 C 11.847656 19.214844 11.660156 18.902344 11.5 18.582031 L 12.160156 17.996094 C 12.351562 17.824219 12.417969 17.558594 12.332031 17.320312 C 12.199219 16.957031 12.101562 16.589844 12.035156 16.230469 C 11.992188 15.976562 11.796875 15.777344 11.542969 15.726562 L 10.667969 15.554688 L 10.667969 14.445312 L 11.542969 14.273438 C 11.796875 14.222656 11.992188 14.023438 12.035156 13.769531 C 12.101562 13.410156 12.199219 13.042969 12.332031 12.679688 C 12.417969 12.441406 12.351562 12.171875 12.160156 12.003906 L 11.503906 11.417969 C 11.660156 11.097656 11.847656 10.785156 12.054688 10.476562 L 12.882812 10.75 C 13.125 10.828125 13.390625 10.753906 13.558594 10.558594 C 13.800781 10.269531 14.070312 10 14.359375 9.757812 C 14.554688 9.59375 14.628906 9.328125 14.550781 9.085938 L 14.277344 8.261719 C 14.585938 8.050781 14.902344 7.867188 15.222656 7.707031 L 15.808594 8.363281 C 15.980469 8.554688 16.25 8.621094 16.488281 8.535156 C 16.847656 8.40625 17.214844 8.308594 17.578125 8.242188 C 17.832031 8.195312 18.03125 8.003906 18.082031 7.753906 L 18.183594 7.261719 L 18.183594 9.410156 C 15.371094 9.722656 13.171875 12.109375 13.171875 15 Z M 18.183594 10.675781 L 18.183594 19.324219 C 16.0625 19.019531 14.425781 17.199219 14.425781 15 C 14.425781 12.800781 16.0625 10.980469 18.183594 10.675781 Z M 24.136719 36.273438 L 13.484375 36.273438 C 13.140625 36.273438 12.859375 35.992188 12.859375 35.601562 C 12.859375 35.257812 13.140625 34.976562 13.484375 34.976562 L 24.136719 34.976562 C 24.484375 34.976562 24.765625 35.257812 24.765625 35.648438 C 24.765625 35.992188 24.484375 36.273438 24.136719 36.273438 Z M 23.976562 32.523438 C 24.277344 32.523438 24.601562 32.691406 24.601562 33.101562 C 24.601562 33.449219 24.320312 33.726562 23.976562 33.726562 L 13.648438 33.726562 C 13.300781 33.726562 13.019531 33.449219 13.019531 33.058594 C 13.019531 32.691406 13.34375 32.523438 13.648438 32.523438 Z M 23.824219 23.75 C 24.167969 23.75 24.449219 24.03125 24.449219 24.375 C 24.449219 24.71875 24.167969 25 23.824219 25 C 23.480469 25 23.199219 24.71875 23.199219 24.375 C 23.199219 24.03125 23.480469 23.75 23.824219 23.75 Z M 22.570312 5 C 22.917969 5 23.199219 5.28125 23.199219 5.625 C 23.199219 5.96875 22.917969 6.25 22.570312 6.25 C 22.226562 6.25 21.945312 5.96875 21.945312 5.625 C 21.945312 5.28125 22.226562 5 22.570312 5 Z M 23.824219 18.125 L 19.4375 18.125 L 19.4375 11.875 L 23.824219 11.875 Z M 30.714844 17.5 C 30.371094 17.5 30.089844 17.21875 30.089844 16.875 C 30.089844 16.53125 30.371094 16.25 30.714844 16.25 C 31.0625 16.25 31.34375 16.53125 31.34375 16.875 C 31.34375 17.21875 31.0625 17.5 30.714844 17.5 Z M 30.714844 17.5 " fill-opacity="1" fill-rule="nonzero"/></g><path fill="#fccc38" d="M 1.269531 33.75 L 2.523438 33.75 L 2.523438 35 L 1.269531 35 Z M 1.269531 33.75 " fill-opacity="1" fill-rule="nonzero"/><g clip-path="url(#1b2b146e16)"><path fill="#fccc38" d="M 1.269531 36.25 L 2.523438 36.25 L 2.523438 37.5 L 1.269531 37.5 Z M 1.269531 36.25 " fill-opacity="1" fill-rule="nonzero"/></g><path fill="#fccc38" d="M 2.523438 35 L 3.773438 35 L 3.773438 36.25 L 2.523438 36.25 Z M 2.523438 35 " fill-opacity="1" fill-rule="nonzero"/><path fill="#fccc38" d="M 0.015625 35 L 1.269531 35 L 1.269531 36.25 L 0.015625 36.25 Z M 0.015625 35 " fill-opacity="1" fill-rule="nonzero"/><path fill="#fccc38" d="M 35.726562 0 L 36.980469 0 L 36.980469 1.25 L 35.726562 1.25 Z M 35.726562 0 " fill-opacity="1" fill-rule="nonzero"/><path fill="#fccc38" d="M 35.726562 2.5 L 36.980469 2.5 L 36.980469 3.75 L 35.726562 3.75 Z M 35.726562 2.5 " fill-opacity="1" fill-rule="nonzero"/><g clip-path="url(#3f4678cfce)"><path fill="#fccc38" d="M 36.980469 1.25 L 38.234375 1.25 L 38.234375 2.5 L 36.980469 2.5 Z M 36.980469 1.25 " fill-opacity="1" fill-rule="nonzero"/></g><path fill="#fccc38" d="M 34.476562 1.25 L 35.726562 1.25 L 35.726562 2.5 L 34.476562 2.5 Z M 34.476562 1.25 " fill-opacity="1" fill-rule="nonzero"/></svg>